<?xml version="1.0" encoding="UTF-8" standalone="no" ?>
<!DOCTYPE svg PUBLIC "-//W3C//DTD SVG 1.1//EN" "http://www.w3.org/Graphics/SVG/1.1/DTD/svg11.dtd">
<svg xmlns="http://www.w3.org/2000/svg" xmlns:xlink="http://www.w3.org/1999/xlink" version="1.1" width="100" height="100" viewBox="0 0 100 100" xml:space="preserve">
<desc>Created with Fabric.js 4.6.0</desc>
<defs>
</defs>
<g transform="matrix(4.85 0 0 4.85 62.06 62.77)" id="_8XSYd9Hy5O288LC-N0Hw"  >
<path style="stroke: rgb(0,0,0); stroke-opacity: 0.86; stroke-width: 0.25; stroke-dasharray: none; stroke-linecap: butt; stroke-dashoffset: 0; stroke-linejoin: miter; stroke-miterlimit: 4; fill: rgb(243,221,174); fill-rule: nonzero; opacity: 1;" vector-effect="non-scaling-stroke"  transform=" translate(0, 0)" d="M 0 -6.64894 C 3.67021 -6.64894 6.64894 -3.6702199999999996 6.64894 0 C 6.64894 3.67021 3.6702199999999996 6.64894 0 6.64894 C -3.67021 6.64894 -6.64894 3.6702199999999996 -6.64894 0 C -6.64894 -3.67021 -3.6702199999999996 -6.64894 0 -6.64894 z" stroke-linecap="round" />
</g>
<g transform="matrix(2.03 0 0 2.03 72.54 68.71)" id="WeDwiLEfeJ6HT4gmbxqOp"  >
<path style="stroke: rgb(178,220,236); stroke-width: 0; stroke-dasharray: none; stroke-linecap: butt; stroke-dashoffset: 0; stroke-linejoin: miter; stroke-miterlimit: 4; fill: rgb(245,251,255); fill-rule: nonzero; opacity: 1;" vector-effect="non-scaling-stroke"  transform=" translate(0, 0)" d="M 0 -6.64894 C 3.67021 -6.64894 6.64894 -3.6702199999999996 6.64894 0 C 6.64894 3.67021 3.6702199999999996 6.64894 0 6.64894 C -3.67021 6.64894 -6.64894 3.6702199999999996 -6.64894 0 C -6.64894 -3.67021 -3.6702199999999996 -6.64894 0 -6.64894 z" stroke-linecap="round" />
</g>
<g transform="matrix(1.28 1.08 -1.8 2.14 64.5 63.12)" id="IyrHF0tP5Fi9FBArp01UP"  >
<path style="stroke: rgb(123,243,220); stroke-width: 0; stroke-dasharray: none; stroke-linecap: butt; stroke-dashoffset: 0; stroke-linejoin: miter; stroke-miterlimit: 4; fill: rgb(243,221,174); fill-rule: nonzero; opacity: 1;" vector-effect="non-scaling-stroke"  transform=" translate(0, 0)" d="M -6.64894 -6.64894 L 6.64893 -6.64894 L 6.64893 6.64893 L -6.64894 6.64893 z" stroke-linecap="round" />
</g>
<g transform="matrix(2.03 0 0 2.03 51.03 68.71)" id="fu3GzkZ8kvilW3eroxBne"  >
<path style="stroke: rgb(178,220,236); stroke-width: 0; stroke-dasharray: none; stroke-linecap: butt; stroke-dashoffset: 0; stroke-linejoin: miter; stroke-miterlimit: 4; fill: rgb(245,251,255); fill-rule: nonzero; opacity: 1;" vector-effect="non-scaling-stroke"  transform=" translate(0, 0)" d="M 0 -6.64894 C 3.67021 -6.64894 6.64894 -3.6702199999999996 6.64894 0 C 6.64894 3.67021 3.6702199999999996 6.64894 0 6.64894 C -3.67021 6.64894 -6.64894 3.6702199999999996 -6.64894 0 C -6.64894 -3.67021 -3.6702199999999996 -6.64894 0 -6.64894 z" stroke-linecap="round" />
</g>
<g transform="matrix(1.28 -1.08 1.8 2.14 55.47 58.34)" id="RbmkBK9-WLsj-PSEhgPSB"  >
<path style="stroke: rgb(123,243,220); stroke-width: 0; stroke-dasharray: none; stroke-linecap: butt; stroke-dashoffset: 0; stroke-linejoin: miter; stroke-miterlimit: 4; fill: rgb(243,221,174); fill-rule: nonzero; opacity: 1;" vector-effect="non-scaling-stroke"  transform=" translate(0, 0)" d="M -6.64894 -6.64894 L 6.64893 -6.64894 L 6.64893 6.64893 L -6.64894 6.64893 z" stroke-linecap="round" />
</g>
<g transform="matrix(0 0.47 -0.47 0 62.06 49.63)" id="HIKPQP0W3CIJPCfAyG1yI"  >
<path style="stroke: none; stroke-width: 1; stroke-dasharray: none; stroke-linecap: butt; stroke-dashoffset: 0; stroke-linejoin: miter; stroke-miterlimit: 4; fill: rgb(126,79,70); fill-rule: nonzero; opacity: 1;" vector-effect="non-scaling-stroke"  transform=" translate(0, 0)" d="M 1.69531 32.5 L 40.52531 0 L 1.6953099999999992 -32.5 L 1.6953099999999992 -11.895 L -39.47469 -11.895 L -39.49566 -11.775739999999999 L -39.49566 -11.775739999999999 C -40.865320000000004 -3.9846999999999992 -40.86856 3.9852700000000016 -39.50524 11.77742 L -39.4747 11.952 L 1.6953000000000031 11.952 z" stroke-linecap="round" />
</g>
<g transform="matrix(0.39 0.27 -0.19 0.27 34.99 39.92)" id="wzS2AN1tA_zFOuepIehLt"  >
<path style="stroke: rgb(0,0,0); stroke-opacity: 0.59; stroke-width: 0.15; stroke-dasharray: none; stroke-linecap: butt; stroke-dashoffset: 0; stroke-linejoin: miter; stroke-miterlimit: 4; fill: rgb(122,200,122); fill-rule: nonzero; opacity: 1;" vector-effect="non-scaling-stroke"  transform=" translate(0, 0)" d="M 20.39502 32.5 L 59.22502 0 L 20.395020000000002 -32.5 L 20.395020000000002 -11.895 L -4.683719999999997 -11.895 L -27.12101 -11.895 L -42.22954 -11.895 L -59.225030000000004 -11.895 L -59.225030000000004 11.952000000000002 C -59.225030000000004 11.952000000000002 -50.25555 11.952000000000002 -42.22954 11.952000000000002 C -34.203540000000004 11.952000000000002 -27.12101 11.952000000000002 -27.12101 11.952000000000002 L -4.683719999999997 11.952000000000002 L 20.395020000000002 11.952000000000002 z" stroke-linecap="round" />
</g>
</svg>