<?xml version="1.0" encoding="UTF-8" standalone="no" ?>
<!DOCTYPE svg PUBLIC "-//W3C//DTD SVG 1.1//EN" "http://www.w3.org/Graphics/SVG/1.1/DTD/svg11.dtd">
<svg xmlns="http://www.w3.org/2000/svg" xmlns:xlink="http://www.w3.org/1999/xlink" version="1.1" width="100" height="100" viewBox="0 0 100 100" xml:space="preserve">
<desc>Created with Fabric.js 4.6.0</desc>
<defs>
</defs>
<g transform="matrix(7.27 0 0 7.27 48.7 50.25)" id="_8XSYd9Hy5O288LC-N0Hw"  >
<path style="stroke: rgb(0,0,0); stroke-opacity: 0.86; stroke-width: 0.25; stroke-dasharray: none; stroke-linecap: butt; stroke-dashoffset: 0; stroke-linejoin: miter; stroke-miterlimit: 4; fill: rgb(243,221,174); fill-rule: nonzero; opacity: 1;" vector-effect="non-scaling-stroke"  transform=" translate(0, 0)" d="M 0 -6.64894 C 3.67021 -6.64894 6.64894 -3.6702199999999996 6.64894 0 C 6.64894 3.67021 3.6702199999999996 6.64894 0 6.64894 C -3.67021 6.64894 -6.64894 3.6702199999999996 -6.64894 0 C -6.64894 -3.67021 -3.6702199999999996 -6.64894 0 -6.64894 z" stroke-linecap="round" />
</g>
<g transform="matrix(3.04 0 0 3.04 64.42 59.17)" id="WeDwiLEfeJ6HT4gmbxqOp"  >
<path style="stroke: none; stroke-width: 0; stroke-dasharray: none; stroke-linecap: butt; stroke-dashoffset: 0; stroke-linejoin: miter; stroke-miterlimit: 4; fill: rgb(245,251,255); fill-rule: nonzero; opacity: 1;" vector-effect="non-scaling-stroke"  transform=" translate(0, 0)" d="M 0 -6.64894 C 3.67021 -6.64894 6.64894 -3.6702199999999996 6.64894 0 C 6.64894 3.67021 3.6702199999999996 6.64894 0 6.64894 C -3.67021 6.64894 -6.64894 3.6702199999999996 -6.64894 0 C -6.64894 -3.67021 -3.6702199999999996 -6.64894 0 -6.64894 z" stroke-linecap="round" />
</g>
<g transform="matrix(1.92 1.61 -2.7 3.22 52.37 50.77)" id="IyrHF0tP5Fi9FBArp01UP"  >
<path style="stroke: none; stroke-width: 0; stroke-dasharray: none; stroke-linecap: butt; stroke-dashoffset: 0; stroke-linejoin: miter; stroke-miterlimit: 4; fill: rgb(243,221,174); fill-rule: nonzero; opacity: 1;" vector-effect="non-scaling-stroke"  transform=" translate(0, 0)" d="M -6.64894 -6.64894 L 6.64893 -6.64894 L 6.64893 6.64893 L -6.64894 6.64893 z" stroke-linecap="round" />
</g>
<g transform="matrix(3.04 0 0 3.04 32.15 59.17)" id="fu3GzkZ8kvilW3eroxBne"  >
<path style="stroke: none; stroke-width: 0; stroke-dasharray: none; stroke-linecap: butt; stroke-dashoffset: 0; stroke-linejoin: miter; stroke-miterlimit: 4; fill: rgb(245,251,255); fill-rule: nonzero; opacity: 1;" vector-effect="non-scaling-stroke"  transform=" translate(0, 0)" d="M 0 -6.64894 C 3.67021 -6.64894 6.64894 -3.6702199999999996 6.64894 0 C 6.64894 3.67021 3.6702199999999996 6.64894 0 6.64894 C -3.67021 6.64894 -6.64894 3.6702199999999996 -6.64894 0 C -6.64894 -3.67021 -3.6702199999999996 -6.64894 0 -6.64894 z" stroke-linecap="round" />
</g>
<g transform="matrix(1.92 -1.61 2.7 3.22 38.82 43.61)" id="RbmkBK9-WLsj-PSEhgPSB"  >
<path style="stroke: none; stroke-width: 0; stroke-dasharray: none; stroke-linecap: butt; stroke-dashoffset: 0; stroke-linejoin: miter; stroke-miterlimit: 4; fill: rgb(243,221,174); fill-rule: nonzero; opacity: 1;" vector-effect="non-scaling-stroke"  transform=" translate(0, 0)" d="M -6.64894 -6.64894 L 6.64893 -6.64894 L 6.64893 6.64893 L -6.64894 6.64893 z" stroke-linecap="round" />
</g>
<g transform="matrix(0 0.7 -0.7 0 48.7 30.53)" id="HIKPQP0W3CIJPCfAyG1yI"  >
<path style="stroke: none; stroke-width: 1; stroke-dasharray: none; stroke-linecap: butt; stroke-dashoffset: 0; stroke-linejoin: miter; stroke-miterlimit: 4; fill: rgb(117,77,17); fill-rule: nonzero; opacity: 1;" vector-effect="non-scaling-stroke"  transform=" translate(0, 0)" d="M 1.69833 32.5 L 40.52833 0 L 1.6983299999999986 -32.5 L 1.6983299999999986 -11.895 L -39.47167 -11.895 L -39.50462 -11.70759 L -39.50462 -11.70759 C -40.866350000000004 -3.96164 -40.86957 3.962200000000001 -39.514140000000005 11.70925 L -39.47167 11.95199 L 1.6983299999999986 11.95199 z" stroke-linecap="round" />
</g>
</svg>
