<?xml version="1.0" encoding="UTF-8" standalone="no" ?>
<!DOCTYPE svg PUBLIC "-//W3C//DTD SVG 1.1//EN" "http://www.w3.org/Graphics/SVG/1.1/DTD/svg11.dtd">
<svg xmlns="http://www.w3.org/2000/svg" xmlns:xlink="http://www.w3.org/1999/xlink" version="1.1" width="55" height="55" viewBox="0 0 60 60" xml:space="preserve">
<desc>Created with Fabric.js 4.6.0</desc>
<defs>
</defs>
<g transform="matrix(0.74 0 0 0.74 30 27.53)" id="C0Wms1v5Tv2BGu4_F9BPh"  >
<path style="stroke: none; stroke-width: 1; stroke-dasharray: none; stroke-linecap: butt; stroke-dashoffset: 0; stroke-linejoin: miter; stroke-miterlimit: 4; fill: rgb(26,26,27); fill-rule: nonzero; opacity: 1;" vector-effect="non-scaling-stroke"  transform=" translate(-40, -40)" d="M 60 4.346 C 71 4.346 80 13.973 80 25.738 C 80 58.45 40 74.762 40 75.65299999999999 L 40 75.65299999999999 C 40 74.763 0 58.54 0 25.738 C 0 13.884 9 4.346 20 4.346 C 31.1 4.346 40 10.835 40 22.689 C 40 10.835 48.9 4.346 60 4.346 z" stroke-linecap="round" />
</g>
<g transform="matrix(4 0 0 4 16.46 17.03)" id="nctYLX8A-wPE81rZzAxxu"  >
<path style="stroke: rgb(215,249,46); stroke-width: 0; stroke-dasharray: none; stroke-linecap: butt; stroke-dashoffset: 0; stroke-linejoin: miter; stroke-miterlimit: 4; fill: rgb(26,26,27); fill-rule: nonzero; opacity: 1;" vector-effect="non-scaling-stroke"  transform=" translate(0, 0)" d="M 0 -3.98936 C 2.20213 -3.98936 3.98936 -2.20213 3.98936 0 C 3.98936 2.20213 2.20213 3.98936 0 3.98936 C -2.20213 3.98936 -3.98936 2.20213 -3.98936 0 C -3.98936 -2.20213 -2.20213 -3.98936 0 -3.98936 z" stroke-linecap="round" />
</g>
<g transform="matrix(3.97 0 0 3.97 43.59 16.91)" id="aVGwu_WOeBLn0EKEjwqTj"  >
<path style="stroke: rgb(14,129,159); stroke-width: 0; stroke-dasharray: none; stroke-linecap: butt; stroke-dashoffset: 0; stroke-linejoin: miter; stroke-miterlimit: 4; fill: rgb(26,26,27); fill-rule: nonzero; opacity: 1;" vector-effect="non-scaling-stroke"  transform=" translate(0, 0)" d="M 0 -3.98936 C 2.20213 -3.98936 3.98936 -2.20213 3.98936 0 C 3.98936 2.20213 2.20213 3.98936 0 3.98936 C -2.20213 3.98936 -3.98936 2.20213 -3.98936 0 C -3.98936 -2.20213 -2.20213 -3.98936 0 -3.98936 z" stroke-linecap="round" />
</g>
<g transform="matrix(0.66 0 0 0.66 30 27.02)" id="jhQp98EJXS62LZXnLX-gG"  >
<path style="stroke: none; stroke-width: 1; stroke-dasharray: none; stroke-linecap: butt; stroke-dashoffset: 0; stroke-linejoin: miter; stroke-miterlimit: 4; fill: rgb(101,100,121); fill-rule: nonzero; opacity: 1;" vector-effect="non-scaling-stroke"  transform=" translate(-40, -40)" d="M 60 4.346 C 71 4.346 80 13.973 80 25.738 C 80 58.45 40 74.762 40 75.65299999999999 L 40 75.65299999999999 C 40 74.763 0 58.54 0 25.738 C 0 13.884 9 4.346 20 4.346 C 31.1 4.346 40 10.835 40 22.689 C 40 10.835 48.9 4.346 60 4.346 z" stroke-linecap="round" />
</g>
</svg>