<?xml version="1.0" encoding="UTF-8" standalone="no" ?>
<!DOCTYPE svg PUBLIC "-//W3C//DTD SVG 1.1//EN" "http://www.w3.org/Graphics/SVG/1.1/DTD/svg11.dtd">
<svg xmlns="http://www.w3.org/2000/svg" xmlns:xlink="http://www.w3.org/1999/xlink" version="1.1" width="15" height="15" viewBox="0 0 10 10" xml:space="preserve">
<desc>Created with Fabric.js 4.6.0</desc>
<defs>
</defs>
<g transform="matrix(0.08 0 0 0.08 4.46 5.92)" id="AxMfxc4gGrF99xYt4hQS1"  >
<path style="stroke: none; stroke-width: 1; stroke-dasharray: none; stroke-linecap: butt; stroke-dashoffset: 0; stroke-linejoin: miter; stroke-miterlimit: 4; fill: rgb(255,207,41); fill-rule: nonzero; opacity: 1;" vector-effect="non-scaling-stroke"  transform=" translate(0, 0)" d="M -46.5 -45.5 L 46.5 45.5 L -33.5 45.5 z" stroke-linecap="round" />
</g>
<g transform="matrix(0 -0.08 0.08 0 5.54 5.92)" id="oWHROhL1V9vqvfwUvwYGW"  >
<path style="stroke: none; stroke-width: 1; stroke-dasharray: none; stroke-linecap: butt; stroke-dashoffset: 0; stroke-linejoin: miter; stroke-miterlimit: 4; fill: rgb(255,207,41); fill-rule: nonzero; opacity: 1;" vector-effect="non-scaling-stroke"  transform=" translate(0, 0)" d="M -46.5 -46.5 L 46.5 46.5 L -46.5 33.5 z" stroke-linecap="round" />
</g>
<g transform="matrix(0.08 0 0 0.12 5 5)" id="rUGiVmoBYA50LPw6QKIs2"  >
<path style="stroke: none; stroke-width: 1; stroke-dasharray: none; stroke-linecap: butt; stroke-dashoffset: 0; stroke-linejoin: miter; stroke-miterlimit: 4; fill: rgb(255,207,41); fill-rule: nonzero; opacity: 1;" vector-effect="non-scaling-stroke"  transform=" translate(-40, -40)" d="M 60 40 L 80 80 L 40 80 L 0 80 L 20 40 L 40 0 L 60 40 z" stroke-linecap="round" />
</g>
<g transform="matrix(0 -0.01 0.01 0 15.23 13.52)" id="rwrVpqlFDyCXmCZrhPR30"  >
<path style="stroke: none; stroke-width: 1; stroke-dasharray: none; stroke-linecap: butt; stroke-dashoffset: 0; stroke-linejoin: miter; stroke-miterlimit: 4; fill: rgb(49,168,247); fill-rule: nonzero; opacity: 1;" vector-effect="non-scaling-stroke"  transform=" translate(0, 0)" d="M -46.5 -46.5 L 46.5 46.5 L -46.5 33.5 z" stroke-linecap="round" />
</g>
<g transform="matrix(0 -0.01 0.01 0 25.23 23.52)" id="ICXmzDZFbcoIRUa6D0inQ"  >
<path style="stroke: none; stroke-width: 1; stroke-dasharray: none; stroke-linecap: butt; stroke-dashoffset: 0; stroke-linejoin: miter; stroke-miterlimit: 4; fill: rgb(49,168,247); fill-rule: nonzero; opacity: 1;" vector-effect="non-scaling-stroke"  transform=" translate(0, 0)" d="M -46.5 -46.5 L 46.5 46.5 L -46.5 33.5 z" stroke-linecap="round" />
</g>
<g transform="matrix(0 -0.01 0.01 0 35.23 33.52)" id="NNGze8ruzWUHSnyJWDaZr"  >
<path style="stroke: none; stroke-width: 1; stroke-dasharray: none; stroke-linecap: butt; stroke-dashoffset: 0; stroke-linejoin: miter; stroke-miterlimit: 4; fill: rgb(49,168,247); fill-rule: nonzero; opacity: 1;" vector-effect="non-scaling-stroke"  transform=" translate(0, 0)" d="M -46.5 -46.5 L 46.5 46.5 L -46.5 33.5 z" stroke-linecap="round" />
</g>
<g transform="matrix(0 -0.01 0.01 0 45.23 43.52)" id="RjIHT3vpByuwHrxWyg6ZL"  >
<path style="stroke: none; stroke-width: 1; stroke-dasharray: none; stroke-linecap: butt; stroke-dashoffset: 0; stroke-linejoin: miter; stroke-miterlimit: 4; fill: rgb(49,168,247); fill-rule: nonzero; opacity: 1;" vector-effect="non-scaling-stroke"  transform=" translate(0, 0)" d="M -46.5 -46.5 L 46.5 46.5 L -46.5 33.5 z" stroke-linecap="round" />
</g>
<g transform="matrix(0 -0.01 0.01 0 55.23 53.52)" id="60vWBqDHfibvL_xU8lLhB"  >
<path style="stroke: none; stroke-width: 1; stroke-dasharray: none; stroke-linecap: butt; stroke-dashoffset: 0; stroke-linejoin: miter; stroke-miterlimit: 4; fill: rgb(49,168,247); fill-rule: nonzero; opacity: 1;" vector-effect="non-scaling-stroke"  transform=" translate(0, 0)" d="M -46.5 -46.5 L 46.5 46.5 L -46.5 33.5 z" stroke-linecap="round" />
</g>
<g transform="matrix(1 0 0 1 66.93 61.01)" id="lwO5LMOe0u-aUjN1CfYmG"  >
<path style="stroke: rgb(227,46,140); stroke-width: 0; stroke-dasharray: none; stroke-linecap: butt; stroke-dashoffset: 0; stroke-linejoin: miter; stroke-miterlimit: 4; fill: rgb(239,38,34); fill-rule: nonzero; opacity: 1;" vector-effect="non-scaling-stroke"  transform=" translate(-0.66, -0.66)" d="M 0.6648936170212766 0 C 1.0319148936170213 0 1.3297872340425532 0.2978723404255319 1.3297872340425532 0.6648936170212766 C 1.3297872340425532 1.0319148936170213 1.0319148936170213 1.3297872340425532 0.6648936170212766 1.3297872340425532 C 0.2978723404255319 1.3297872340425532 0 1.0319148936170213 0 0.6648936170212766 C 0 0.2978723404255319 0.2978723404255319 0 0.6648936170212766 0 Z" stroke-linecap="round" />
</g>
<g transform="matrix(1 0 0 1 76.93 71.01)" id="UJYFtT7AKJhPl3ELTH8r5"  >
<path style="stroke: rgb(227,46,140); stroke-width: 0; stroke-dasharray: none; stroke-linecap: butt; stroke-dashoffset: 0; stroke-linejoin: miter; stroke-miterlimit: 4; fill: rgb(239,38,34); fill-rule: nonzero; opacity: 1;" vector-effect="non-scaling-stroke"  transform=" translate(-0.66, -0.66)" d="M 0.6648936170212766 0 C 1.0319148936170213 0 1.3297872340425532 0.2978723404255319 1.3297872340425532 0.6648936170212766 C 1.3297872340425532 1.0319148936170213 1.0319148936170213 1.3297872340425532 0.6648936170212766 1.3297872340425532 C 0.2978723404255319 1.3297872340425532 0 1.0319148936170213 0 0.6648936170212766 C 0 0.2978723404255319 0.2978723404255319 0 0.6648936170212766 0 Z" stroke-linecap="round" />
</g>
<g transform="matrix(1 0 0 1 86.93 81.01)" id="MNvVIKTSKOXcg0-FPKvG1"  >
<path style="stroke: rgb(227,46,140); stroke-width: 0; stroke-dasharray: none; stroke-linecap: butt; stroke-dashoffset: 0; stroke-linejoin: miter; stroke-miterlimit: 4; fill: rgb(239,38,34); fill-rule: nonzero; opacity: 1;" vector-effect="non-scaling-stroke"  transform=" translate(-0.66, -0.66)" d="M 0.6648936170212766 0 C 1.0319148936170213 0 1.3297872340425532 0.2978723404255319 1.3297872340425532 0.6648936170212766 C 1.3297872340425532 1.0319148936170213 1.0319148936170213 1.3297872340425532 0.6648936170212766 1.3297872340425532 C 0.2978723404255319 1.3297872340425532 0 1.0319148936170213 0 0.6648936170212766 C 0 0.2978723404255319 0.2978723404255319 0 0.6648936170212766 0 Z" stroke-linecap="round" />
</g>
<g transform="matrix(1 0 0 1 96.93 91.01)" id="72GdMCcU534_ce7R-SyeQ"  >
<path style="stroke: rgb(227,46,140); stroke-width: 0; stroke-dasharray: none; stroke-linecap: butt; stroke-dashoffset: 0; stroke-linejoin: miter; stroke-miterlimit: 4; fill: rgb(239,38,34); fill-rule: nonzero; opacity: 1;" vector-effect="non-scaling-stroke"  transform=" translate(-0.66, -0.66)" d="M 0.6648936170212766 0 C 1.0319148936170213 0 1.3297872340425532 0.2978723404255319 1.3297872340425532 0.6648936170212766 C 1.3297872340425532 1.0319148936170213 1.0319148936170213 1.3297872340425532 0.6648936170212766 1.3297872340425532 C 0.2978723404255319 1.3297872340425532 0 1.0319148936170213 0 0.6648936170212766 C 0 0.2978723404255319 0.2978723404255319 0 0.6648936170212766 0 Z" stroke-linecap="round" />
</g>
<g transform="matrix(1 0 0 1 106.93 101.01)" id="01CD0NzA4l1sakUAoTS1e"  >
<path style="stroke: rgb(227,46,140); stroke-width: 0; stroke-dasharray: none; stroke-linecap: butt; stroke-dashoffset: 0; stroke-linejoin: miter; stroke-miterlimit: 4; fill: rgb(239,38,34); fill-rule: nonzero; opacity: 1;" vector-effect="non-scaling-stroke"  transform=" translate(-0.66, -0.66)" d="M 0.6648936170212766 0 C 1.0319148936170213 0 1.3297872340425532 0.2978723404255319 1.3297872340425532 0.6648936170212766 C 1.3297872340425532 1.0319148936170213 1.0319148936170213 1.3297872340425532 0.6648936170212766 1.3297872340425532 C 0.2978723404255319 1.3297872340425532 0 1.0319148936170213 0 0.6648936170212766 C 0 0.2978723404255319 0.2978723404255319 0 0.6648936170212766 0 Z" stroke-linecap="round" />
</g>
<g transform="matrix(1 0 0 1 116.93 111.01)" id="dQ7gz3BOaJJqNkqhWX6HX"  >
<path style="stroke: rgb(227,46,140); stroke-width: 0; stroke-dasharray: none; stroke-linecap: butt; stroke-dashoffset: 0; stroke-linejoin: miter; stroke-miterlimit: 4; fill: rgb(239,38,34); fill-rule: nonzero; opacity: 1;" vector-effect="non-scaling-stroke"  transform=" translate(-0.66, -0.66)" d="M 0.6648936170212766 0 C 1.0319148936170213 0 1.3297872340425532 0.2978723404255319 1.3297872340425532 0.6648936170212766 C 1.3297872340425532 1.0319148936170213 1.0319148936170213 1.3297872340425532 0.6648936170212766 1.3297872340425532 C 0.2978723404255319 1.3297872340425532 0 1.0319148936170213 0 0.6648936170212766 C 0 0.2978723404255319 0.2978723404255319 0 0.6648936170212766 0 Z" stroke-linecap="round" />
</g>
<g transform="matrix(1 0 0 1 126.93 121.01)" id="W-gPumkf0eCtdO4URQ74a"  >
<path style="stroke: rgb(227,46,140); stroke-width: 0; stroke-dasharray: none; stroke-linecap: butt; stroke-dashoffset: 0; stroke-linejoin: miter; stroke-miterlimit: 4; fill: rgb(239,38,34); fill-rule: nonzero; opacity: 1;" vector-effect="non-scaling-stroke"  transform=" translate(-0.66, -0.66)" d="M 0.6648936170212766 0 C 1.0319148936170213 0 1.3297872340425532 0.2978723404255319 1.3297872340425532 0.6648936170212766 C 1.3297872340425532 1.0319148936170213 1.0319148936170213 1.3297872340425532 0.6648936170212766 1.3297872340425532 C 0.2978723404255319 1.3297872340425532 0 1.0319148936170213 0 0.6648936170212766 C 0 0.2978723404255319 0.2978723404255319 0 0.6648936170212766 0 Z" stroke-linecap="round" />
</g>
<g transform="matrix(1 0 0 1 136.93 131.01)" id="2N9L93ZvGcUaZSlB_sKom"  >
<path style="stroke: rgb(227,46,140); stroke-width: 0; stroke-dasharray: none; stroke-linecap: butt; stroke-dashoffset: 0; stroke-linejoin: miter; stroke-miterlimit: 4; fill: rgb(239,38,34); fill-rule: nonzero; opacity: 1;" vector-effect="non-scaling-stroke"  transform=" translate(-0.66, -0.66)" d="M 0.6648936170212766 0 C 1.0319148936170213 0 1.3297872340425532 0.2978723404255319 1.3297872340425532 0.6648936170212766 C 1.3297872340425532 1.0319148936170213 1.0319148936170213 1.3297872340425532 0.6648936170212766 1.3297872340425532 C 0.2978723404255319 1.3297872340425532 0 1.0319148936170213 0 0.6648936170212766 C 0 0.2978723404255319 0.2978723404255319 0 0.6648936170212766 0 Z" stroke-linecap="round" />
</g>
<g transform="matrix(0.09 0 0 0.09 145.14 143.09)" id="qMJThB-UiUkYPWZMYi4R2"  >
<path style="stroke: rgb(227,46,140); stroke-width: 0; stroke-dasharray: none; stroke-linecap: butt; stroke-dashoffset: 0; stroke-linejoin: miter; stroke-miterlimit: 4; fill: rgb(239,38,34); fill-rule: nonzero; opacity: 1;" vector-effect="non-scaling-stroke"  transform=" translate(0, 0)" d="M 0 -0.66489 C 0.36702 -0.66489 0.66489 -0.36701999999999996 0.66489 0 C 0.66489 0.36702 0.36701999999999996 0.66489 0 0.66489 C -0.36702 0.66489 -0.66489 0.36701999999999996 -0.66489 0 C -0.66489 -0.36702 -0.36701999999999996 -0.66489 0 -0.66489 z" stroke-linecap="round" />
</g>
<g transform="matrix(0.09 0 0 0.09 155.14 153.09)" id="lsWZ_Jfy3TcDLVc5Dk5yl"  >
<path style="stroke: rgb(227,46,140); stroke-width: 0; stroke-dasharray: none; stroke-linecap: butt; stroke-dashoffset: 0; stroke-linejoin: miter; stroke-miterlimit: 4; fill: rgb(239,38,34); fill-rule: nonzero; opacity: 1;" vector-effect="non-scaling-stroke"  transform=" translate(0, 0)" d="M 0 -0.66489 C 0.36702 -0.66489 0.66489 -0.36701999999999996 0.66489 0 C 0.66489 0.36702 0.36701999999999996 0.66489 0 0.66489 C -0.36702 0.66489 -0.66489 0.36701999999999996 -0.66489 0 C -0.66489 -0.36702 -0.36701999999999996 -0.66489 0 -0.66489 z" stroke-linecap="round" />
</g>
<g transform="matrix(0.09 0 0 0.09 165.14 163.09)" id="YGEWQsQLKAo1lTPG0pbq0"  >
<path style="stroke: rgb(227,46,140); stroke-width: 0; stroke-dasharray: none; stroke-linecap: butt; stroke-dashoffset: 0; stroke-linejoin: miter; stroke-miterlimit: 4; fill: rgb(239,38,34); fill-rule: nonzero; opacity: 1;" vector-effect="non-scaling-stroke"  transform=" translate(0, 0)" d="M 0 -0.66489 C 0.36702 -0.66489 0.66489 -0.36701999999999996 0.66489 0 C 0.66489 0.36702 0.36701999999999996 0.66489 0 0.66489 C -0.36702 0.66489 -0.66489 0.36701999999999996 -0.66489 0 C -0.66489 -0.36702 -0.36701999999999996 -0.66489 0 -0.66489 z" stroke-linecap="round" />
</g>
</svg>