<?xml version="1.0" encoding="UTF-8" standalone="no" ?>
<!DOCTYPE svg PUBLIC "-//W3C//DTD SVG 1.1//EN" "http://www.w3.org/Graphics/SVG/1.1/DTD/svg11.dtd">
<svg xmlns="http://www.w3.org/2000/svg" xmlns:xlink="http://www.w3.org/1999/xlink" version="1.1" width="150" height="150" viewBox="0 0 100 100" xml:space="preserve">
<desc>Created with Fabric.js 4.6.0</desc>
<defs>
</defs>
<g transform="matrix(-0.78 0.14 0.14 0.78 22.51 35.77)" id="Av0ANDU7Gbku484pL9OVe"  >
<path style="stroke: rgb(80,138,79); stroke-width: 0; stroke-dasharray: none; stroke-linecap: butt; stroke-dashoffset: 0; stroke-linejoin: miter; stroke-miterlimit: 4; fill: rgb(154,28,28); fill-rule: nonzero; opacity: 1;" vector-effect="non-scaling-stroke"  transform=" translate(0, 0)" d="M -2.3681 -0.02801 C -0.6771400000000001 -0.02801 2.41118 -3.87169 6.28327 -7.19397 C 10.81551 -11.08266 5.24974 -24.21162 10.86861 -16.98925 C 16.48748 -9.766889999999998 15.474920000000001 -9.934589999999998 13.108830000000001 -4.284319999999999 C 9.357310000000002 4.6743700000000015 2.908380000000001 19.12093 0.6576800000000009 19.12093 C -3.012529999999999 19.12093 -15.001079999999998 -4.20354 -15.001079999999998 -7.873749999999998 C -15.001079999999998 -11.543959999999998 -6.038309999999997 -0.028009999999997426 -2.3680999999999983 -0.028009999999997426 z" stroke-linecap="round" />
</g>
<g transform="matrix(-0.7 0 0 0.7 33.44 24.77)" id="DoTAqm4L0GfWDTYxbZIO0"  >
<path style="stroke: rgb(80,138,79); stroke-width: 0; stroke-dasharray: none; stroke-linecap: butt; stroke-dashoffset: 0; stroke-linejoin: miter; stroke-miterlimit: 4; fill: rgb(154,28,28); fill-rule: nonzero; opacity: 1;" vector-effect="non-scaling-stroke"  transform=" translate(0, 0)" d="M -6.31816 -5.69826 C -4.47136 -5.69826 -1.01513 -8.61407 1.9632200000000006 -11.043690000000002 C 4.90385 -13.442530000000001 10.703110000000002 -14.290460000000001 10.703110000000002 -12.467060000000002 C 10.703110000000002 -11.498010000000003 6.515010000000002 -10.235770000000002 5.176240000000003 -7.317520000000002 C 1.4445000000000028 0.8169499999999985 -5.978949999999997 13.45066 -8.680119999999999 13.45066 C -12.35033 13.45066 -9.905179999999998 2.406839999999999 -9.905179999999998 -1.26337 C -9.905179999999998 -4.93358 -9.988379999999998 -5.69827 -6.3181699999999985 -5.69827 z" stroke-linecap="round" />
</g>
<g transform="matrix(-1.01 0 0 1.01 28.7 21.41)" id="1Yv78I9j3I1nkT-7_pFRb"  >
<path style="stroke: rgb(80,138,79); stroke-width: 0; stroke-dasharray: none; stroke-linecap: butt; stroke-dashoffset: 0; stroke-linejoin: miter; stroke-miterlimit: 4; fill: rgb(154,28,28); fill-rule: nonzero; opacity: 1;" vector-effect="non-scaling-stroke"  transform=" translate(0, 0)" d="M -5.41727 3.62957 C -3.8063400000000005 5.03645 7.31349 -6.44672 11.1502 -17.38663 C 14.98692 -28.32654 15.36041 -8.25502 12.68489 -2.4659499999999994 C 8.01906 7.629580000000001 2.26947 20.59568 -0.06315000000000026 20.59568 C -3.7333600000000002 20.59568 -14.41222 15.17032 -14.41222 11.500110000000001 C -14.41222 7.829900000000001 -11.41582 -1.6091999999999995 -5.41727 3.6295600000000015 z" stroke-linecap="round" />
</g>
<g transform="matrix(0.7 0 0 0.7 66.61 24.77)" id="esYk3n3mcIQ2qUvYNQGOx"  >
<path style="stroke: rgb(80,138,79); stroke-width: 0; stroke-dasharray: none; stroke-linecap: butt; stroke-dashoffset: 0; stroke-linejoin: miter; stroke-miterlimit: 4; fill: rgb(154,28,28); fill-rule: nonzero; opacity: 1;" vector-effect="non-scaling-stroke"  transform=" translate(0, 0)" d="M -6.31816 -5.69826 C -4.47136 -5.69826 -1.01513 -8.61407 1.9632200000000006 -11.043690000000002 C 4.90385 -13.442530000000001 10.703110000000002 -14.290460000000001 10.703110000000002 -12.467060000000002 C 10.703110000000002 -11.498010000000003 6.515010000000002 -10.235770000000002 5.176240000000003 -7.317520000000002 C 1.4445000000000028 0.8169499999999985 -5.978949999999997 13.45066 -8.680119999999999 13.45066 C -12.35033 13.45066 -9.905179999999998 2.406839999999999 -9.905179999999998 -1.26337 C -9.905179999999998 -4.93358 -9.988379999999998 -5.69827 -6.3181699999999985 -5.69827 z" stroke-linecap="round" />
</g>
<g transform="matrix(1.01 0 0 1.01 71.27 21.33)" id="6lgs1fm0nsZ9m1JNMmnvF"  >
<path style="stroke: rgb(80,138,79); stroke-width: 0; stroke-dasharray: none; stroke-linecap: butt; stroke-dashoffset: 0; stroke-linejoin: miter; stroke-miterlimit: 4; fill: rgb(154,28,28); fill-rule: nonzero; opacity: 1;" vector-effect="non-scaling-stroke"  transform=" translate(0, 0)" d="M -5.41727 3.62957 C -3.8063400000000005 5.03645 7.31349 -6.44672 11.1502 -17.38663 C 14.98692 -28.32654 15.36041 -8.25502 12.68489 -2.4659499999999994 C 8.01906 7.629580000000001 2.26947 20.59568 -0.06315000000000026 20.59568 C -3.7333600000000002 20.59568 -14.41222 15.17032 -14.41222 11.500110000000001 C -14.41222 7.829900000000001 -11.41582 -1.6091999999999995 -5.41727 3.6295600000000015 z" stroke-linecap="round" />
</g>
<g transform="matrix(0.77 0.14 -0.14 0.77 77.58 35.67)" id="LWo_mQNfxUXYO6Qg7iVUV"  >
<path style="stroke: rgb(80,138,79); stroke-width: 0; stroke-dasharray: none; stroke-linecap: butt; stroke-dashoffset: 0; stroke-linejoin: miter; stroke-miterlimit: 4; fill: rgb(154,28,28); fill-rule: nonzero; opacity: 1;" vector-effect="non-scaling-stroke"  transform=" translate(0, 0)" d="M -2.3681 -0.02801 C -0.6771400000000001 -0.02801 2.41118 -3.87169 6.28327 -7.19397 C 10.81551 -11.08266 5.24974 -24.21162 10.86861 -16.98925 C 16.48748 -9.766889999999998 15.474920000000001 -9.934589999999998 13.108830000000001 -4.284319999999999 C 9.357310000000002 4.6743700000000015 2.908380000000001 19.12093 0.6576800000000009 19.12093 C -3.012529999999999 19.12093 -15.001079999999998 -4.20354 -15.001079999999998 -7.873749999999998 C -15.001079999999998 -11.543959999999998 -6.038309999999997 -0.028009999999997426 -2.3680999999999983 -0.028009999999997426 z" stroke-linecap="round" />
</g>
<g transform="matrix(5.1 0 0 5.1 49.94 50.17)" id="XaYr2uJlaLCaa1cl8Kr74"  >
<path style="stroke: rgb(61,24,30); stroke-width: 0.35; stroke-dasharray: none; stroke-linecap: butt; stroke-dashoffset: 0; stroke-linejoin: miter; stroke-miterlimit: 4; fill: rgb(17,29,75); fill-rule: nonzero; opacity: 1;" vector-effect="non-scaling-stroke"  transform=" translate(0, 0)" d="M 0 -6.64894 C 3.67021 -6.64894 6.64894 -3.6702199999999996 6.64894 0 C 6.64894 3.67021 3.6702199999999996 6.64894 0 6.64894 C -3.67021 6.64894 -6.64894 3.6702199999999996 -6.64894 0 C -6.64894 -3.67021 -3.6702199999999996 -6.64894 0 -6.64894 z" stroke-linecap="round" />
</g>
<g transform="matrix(1.85 0 0 1.85 62.38 57.55)" id="8hC6Ppn-WH3VXvge5VBYM"  >
<path style="stroke: rgb(0,0,0); stroke-opacity: 0.66; stroke-width: 0.15; stroke-dasharray: none; stroke-linecap: butt; stroke-dashoffset: 0; stroke-linejoin: miter; stroke-miterlimit: 4; fill: rgb(154,28,28); fill-rule: nonzero; opacity: 1;" vector-effect="non-scaling-stroke"  transform=" translate(0, 0)" d="M 0 -6.64894 C 3.67021 -6.64894 6.64894 -3.6702199999999996 6.64894 0 C 6.64894 3.67021 3.6702199999999996 6.64894 0 6.64894 C -3.67021 6.64894 -6.64894 3.6702199999999996 -6.64894 0 C -6.64894 -3.67021 -3.6702199999999996 -6.64894 0 -6.64894 z" stroke-linecap="round" />
</g>
<g transform="matrix(1.85 0 0 1.85 37.79 57.55)" id="aJBtrwd22hxhhlSauX5C4"  >
<path style="stroke: rgb(0,0,0); stroke-opacity: 0.66; stroke-width: 0.15; stroke-dasharray: none; stroke-linecap: butt; stroke-dashoffset: 0; stroke-linejoin: miter; stroke-miterlimit: 4; fill: rgb(154,28,28); fill-rule: nonzero; opacity: 1;" vector-effect="non-scaling-stroke"  transform=" translate(0, 0)" d="M 0 -6.64894 C 3.67021 -6.64894 6.64894 -3.6702199999999996 6.64894 0 C 6.64894 3.67021 3.6702199999999996 6.64894 0 6.64894 C -3.67021 6.64894 -6.64894 3.6702199999999996 -6.64894 0 C -6.64894 -3.67021 -3.6702199999999996 -6.64894 0 -6.64894 z" stroke-linecap="round" />
</g>
<g transform="matrix(1.97 1.97 -1.97 1.97 49.78 50.17)" id="srgkvLW9Ki8FvU9LvyXO1"  >
<path style="stroke: rgb(0,0,0); stroke-opacity: 0; stroke-width: 0; stroke-dasharray: none; stroke-linecap: butt; stroke-dashoffset: 0; stroke-linejoin: miter; stroke-miterlimit: 4; fill: rgb(17,29,75); fill-rule: nonzero; opacity: 1;" vector-effect="non-scaling-stroke"  transform=" translate(0, 0)" d="M -6.64894 -6.64894 L 6.64893 -6.64894 L 4.98962 4.98962 L -6.64894 6.64893 z" stroke-linecap="round" />
</g>
<g transform="matrix(0.55 0.55 -0.55 0.55 49.78 49.86)" id="mOX09Yl72Vgk6zVNK0X-9"  >
<path style="stroke: rgb(0,0,0); stroke-opacity: 0; stroke-width: 0; stroke-dasharray: none; stroke-linecap: butt; stroke-dashoffset: 0; stroke-linejoin: miter; stroke-miterlimit: 4; fill: rgb(154,28,28); fill-rule: nonzero; opacity: 1;" vector-effect="non-scaling-stroke"  transform=" translate(0, 0)" d="M -10.95048 -10.95048 L -10.95048 -10.95048 L -10.95048 -10.95048 C -1.6685700000000008 -9.814810000000001 6.133359999999998 -3.443530000000001 9.10104 5.424200000000001 L 10.95047 10.950470000000001 L 5.419919999999999 9.086020000000001 L 5.419919999999999 9.086020000000001 C -3.4300700000000006 6.102530000000002 -9.791350000000001 -1.6833399999999994 -10.95048 -10.950479999999999 z" stroke-linecap="round" />
</g>
<g transform="matrix(0.08 0.43 -0.43 0.08 60.09 54.34)" id="vMSW-PBejo-z51ozVIxWy"  >
<path style="stroke: rgb(0,0,0); stroke-opacity: 0; stroke-width: 0; stroke-dasharray: none; stroke-linecap: butt; stroke-dashoffset: 0; stroke-linejoin: miter; stroke-miterlimit: 4; fill: rgb(154,28,28); fill-rule: nonzero; opacity: 1;" vector-effect="non-scaling-stroke"  transform=" translate(0, 0)" d="M -18.14966 -18.14966 L -15.91051 -17.3613 L -15.91051 -17.3613 C -4.1066400000000005 -13.20537 5.729349999999998 -4.80735 11.68415 6.199169999999999 L 18.14966 18.149659999999997 L 6.25501 11.691099999999997 L 6.25501 11.691099999999997 C -4.767769999999999 5.705949999999997 -13.18558 -4.1468000000000025 -17.37654 -15.968800000000003 z" stroke-linecap="round" />
</g>
<g transform="matrix(0.43 0.08 -0.08 0.43 40.44 54.56)" id="4k6mdlV1CmYqNKeyCuZDs"  >
<path style="stroke: rgb(0,0,0); stroke-opacity: 0; stroke-width: 0; stroke-dasharray: none; stroke-linecap: butt; stroke-dashoffset: 0; stroke-linejoin: miter; stroke-miterlimit: 4; fill: rgb(154,28,28); fill-rule: nonzero; opacity: 1;" vector-effect="non-scaling-stroke"  transform=" translate(0, 0)" d="M -18.14966 -18.14966 L -15.85363 -17.34127 L -15.85363 -17.34127 C -4.0863700000000005 -13.198230000000002 5.719119999999998 -4.826260000000001 11.65545 6.146129999999999 L 18.14966 18.149659999999997 L 6.201910000000002 11.662269999999996 L 6.201910000000002 11.662269999999996 C -4.786679999999999 5.695679999999996 -13.178379999999997 -4.126510000000003 -17.35634 -15.911840000000005 z" stroke-linecap="round" />
</g>
</svg>