<?xml version="1.0" encoding="UTF-8" standalone="no" ?>
<!DOCTYPE svg PUBLIC "-//W3C//DTD SVG 1.1//EN" "http://www.w3.org/Graphics/SVG/1.1/DTD/svg11.dtd">
<svg xmlns="http://www.w3.org/2000/svg" xmlns:xlink="http://www.w3.org/1999/xlink" version="1.1" width="100" height="100" viewBox="0 0 100 100" xml:space="preserve">
<desc>Created with Fabric.js 4.6.0</desc>
<defs>
</defs>
<g transform="matrix(1 0 0 1 83.44 16.53)" id="LWo_mQNfxUXYO6Qg7iVUV"  >
<path style="stroke: none; stroke-width: 0; stroke-dasharray: none; stroke-linecap: butt; stroke-dashoffset: 0; stroke-linejoin: miter; stroke-miterlimit: 4; fill: rgb(17,49,75); fill-rule: nonzero; opacity: 1;" vector-effect="non-scaling-stroke"  transform=" translate(0, 0)" d="M -2.90113 -3.09759 C 0.7690799999999998 -3.09759 15.53411 -19.17687 15.53411 -15.50666 C 15.53411 -11.83645 3.79486 16.05134 0.12465000000000082 16.05134 C -3.545559999999999 16.05134 -15.534109999999998 -7.273130000000002 -15.534109999999998 -10.94334 C -15.534109999999998 -14.61355 -6.5713399999999975 -3.097599999999999 -2.9011299999999984 -3.097599999999999 z" stroke-linecap="round" />
</g>
<g transform="matrix(1 0 0 1 16.76 16.53)" id="d_7JUiBi6L8MnbqNxpqox"  >
<path style="stroke: none; stroke-width: 0; stroke-dasharray: none; stroke-linecap: butt; stroke-dashoffset: 0; stroke-linejoin: miter; stroke-miterlimit: 4; fill: rgb(17,49,75); fill-rule: nonzero; opacity: 1;" vector-effect="non-scaling-stroke"  transform=" translate(0, 0)" d="M 2.0373 -3.09758 C 5.70751 -3.09758 15.73411 -14.61354 15.73411 -10.94332 C 15.73411 -7.27311 3.345559999999999 16.05136 -0.3246500000000001 16.05136 C -3.99486 16.05136 -15.73411 -11.83643 -15.73411 -15.50664 C -15.73411 -19.17685 -1.632909999999999 -3.097570000000001 2.0373 -3.097570000000001 z" stroke-linecap="round" />
</g>
<g transform="matrix(7.34 0 0 7.34 50 50)" id="XaYr2uJlaLCaa1cl8Kr74"  >
<path style="stroke: rgb(46,9,156); stroke-width: 0.35; stroke-dasharray: none; stroke-linecap: butt; stroke-dashoffset: 0; stroke-linejoin: miter; stroke-miterlimit: 4; fill: rgb(158,6,6); fill-rule: nonzero; opacity: 1;" vector-effect="non-scaling-stroke"  transform=" translate(0, 0)" d="M 0 -6.64894 C 3.67021 -6.64894 6.64894 -3.6702199999999996 6.64894 0 C 6.64894 3.67021 3.6702199999999996 6.64894 0 6.64894 C -3.67021 6.64894 -6.64894 3.6702199999999996 -6.64894 0 C -6.64894 -3.67021 -3.6702199999999996 -6.64894 0 -6.64894 z" stroke-linecap="round" />
</g>
<g transform="matrix(2.66 0 0 2.66 67.91 60.62)" id="8hC6Ppn-WH3VXvge5VBYM"  >
<path style="stroke: rgb(0,0,0); stroke-opacity: 0.66; stroke-width: 0.15; stroke-dasharray: none; stroke-linecap: butt; stroke-dashoffset: 0; stroke-linejoin: miter; stroke-miterlimit: 4; fill: rgb(17,49,75); fill-rule: nonzero; opacity: 1;" vector-effect="non-scaling-stroke"  transform=" translate(0, 0)" d="M 0 -6.64894 C 3.67021 -6.64894 6.64894 -3.6702199999999996 6.64894 0 C 6.64894 3.67021 3.6702199999999996 6.64894 0 6.64894 C -3.67021 6.64894 -6.64894 3.6702199999999996 -6.64894 0 C -6.64894 -3.67021 -3.6702199999999996 -6.64894 0 -6.64894 z" stroke-linecap="round" />
</g>
<g transform="matrix(2.66 0 0 2.66 32.49 60.62)" id="aJBtrwd22hxhhlSauX5C4"  >
<path style="stroke: rgb(0,0,0); stroke-opacity: 0.66; stroke-width: 0.15; stroke-dasharray: none; stroke-linecap: butt; stroke-dashoffset: 0; stroke-linejoin: miter; stroke-miterlimit: 4; fill: rgb(17,49,75); fill-rule: nonzero; opacity: 1;" vector-effect="non-scaling-stroke"  transform=" translate(0, 0)" d="M 0 -6.64894 C 3.67021 -6.64894 6.64894 -3.6702199999999996 6.64894 0 C 6.64894 3.67021 3.6702199999999996 6.64894 0 6.64894 C -3.67021 6.64894 -6.64894 3.6702199999999996 -6.64894 0 C -6.64894 -3.67021 -3.6702199999999996 -6.64894 0 -6.64894 z" stroke-linecap="round" />
</g>
<g transform="matrix(2.4 2.4 -2.4 2.4 50.16 50.48)" id="srgkvLW9Ki8FvU9LvyXO1"  >
<path style="stroke: none; stroke-opacity: 0; stroke-width: 0; stroke-dasharray: none; stroke-linecap: butt; stroke-dashoffset: 0; stroke-linejoin: miter; stroke-miterlimit: 4; fill: rgb(158,6,6); fill-rule: nonzero; opacity: 1;" vector-effect="non-scaling-stroke"  transform=" translate(0, 0)" d="M -9.03225 -8.9962 L 4.26562 -8.9962 L 9.032250000000001 8.9962 L -9.032249999999998 4.30167 z" stroke-linecap="round" />
</g>
<g transform="matrix(1.14 1.14 -1.14 1.14 50 50)" id="mOX09Yl72Vgk6zVNK0X-9"  >
<path style="stroke: none; stroke-opacity: 0; stroke-width: 0; stroke-dasharray: none; stroke-linecap: butt; stroke-dashoffset: 0; stroke-linejoin: miter; stroke-miterlimit: 4; fill: rgb(16,65,68); fill-rule: nonzero; opacity: 1;" vector-effect="non-scaling-stroke"  transform=" translate(0, 0)" d="M -7.77388 -7.68117 L -5.9882100000000005 -7.46269 L -5.9882100000000005 -7.46269 C 1.7167499999999993 -6.519970000000001 7.570409999999999 -0.07857000000000003 7.77389 7.6811799999999995 L 7.77389 7.6811799999999995 L 7.77389 7.6811799999999995 L 7.77389 7.6811799999999995 C -0.054870000000000196 7.563339999999999 -6.60088 1.6968599999999991 -7.57263 -6.07225 z" stroke-linecap="round" />
</g>
</svg>
