<?xml version="1.0" encoding="UTF-8" standalone="no" ?>
<!DOCTYPE svg PUBLIC "-//W3C//DTD SVG 1.1//EN" "http://www.w3.org/Graphics/SVG/1.1/DTD/svg11.dtd">
<svg xmlns="http://www.w3.org/2000/svg" xmlns:xlink="http://www.w3.org/1999/xlink" version="1.1" width="55" height="55" viewBox="0 0 60 60" xml:space="preserve">
<desc>Created with Fabric.js 4.6.0</desc>
<defs>
</defs>
<g transform="matrix(0.74 0 0 0.74 30 27.53)" id="C0Wms1v5Tv2BGu4_F9BPh"  >
<path style="stroke: none; stroke-width: 0; stroke-dasharray: none; stroke-linecap: butt; stroke-dashoffset: 0; stroke-linejoin: miter; stroke-miterlimit: 4; fill: rgb(26,26,27); fill-rule: nonzero; opacity: 1;" vector-effect="non-scaling-stroke"  transform=" translate(-40, -40)" d="M 60 4.346 C 71 4.346 80 13.973 80 25.738 C 80 58.45 40 74.762 40 75.65299999999999 L 40 75.65299999999999 C 40 74.763 0 58.54 0 25.738 C 0 13.884 9 4.346 20 4.346 C 31.1 4.346 40 10.835 40 22.689 C 40 10.835 48.9 4.346 60 4.346 z" stroke-linecap="round" />
</g>
<g transform="matrix(4 0 0 4 16.46 17.03)" id="nctYLX8A-wPE81rZzAxxu"  >
<path style="stroke: none; stroke-width: 0; stroke-dasharray: none; stroke-linecap: butt; stroke-dashoffset: 0; stroke-linejoin: miter; stroke-miterlimit: 4; fill: rgb(26,26,27); fill-rule: nonzero; opacity: 1;" vector-effect="non-scaling-stroke"  transform=" translate(0, 0)" d="M 0 -3.98936 C 2.20213 -3.98936 3.98936 -2.20213 3.98936 0 C 3.98936 2.20213 2.20213 3.98936 0 3.98936 C -2.20213 3.98936 -3.98936 2.20213 -3.98936 0 C -3.98936 -2.20213 -2.20213 -3.98936 0 -3.98936 z" stroke-linecap="round" />
</g>
<g transform="matrix(3.97 0 0 3.97 43.59 16.91)" id="aVGwu_WOeBLn0EKEjwqTj"  >
<path style="stroke: none; stroke-width: 0; stroke-dasharray: none; stroke-linecap: butt; stroke-dashoffset: 0; stroke-linejoin: miter; stroke-miterlimit: 4; fill: rgb(26,26,27); fill-rule: nonzero; opacity: 1;" vector-effect="non-scaling-stroke"  transform=" translate(0, 0)" d="M 0 -3.98936 C 2.20213 -3.98936 3.98936 -2.20213 3.98936 0 C 3.98936 2.20213 2.20213 3.98936 0 3.98936 C -2.20213 3.98936 -3.98936 2.20213 -3.98936 0 C -3.98936 -2.20213 -2.20213 -3.98936 0 -3.98936 z" stroke-linecap="round" />
</g>
<g transform="matrix(0.66 0 0 0.66 30 27.02)" id="jhQp98EJXS62LZXnLX-gG"  >
<path style="stroke: none; stroke-width: 0; stroke-dasharray: none; stroke-linecap: butt; stroke-dashoffset: 0; stroke-linejoin: miter; stroke-miterlimit: 4; fill: rgb(101,100,121); fill-rule: nonzero; opacity: 1;" vector-effect="non-scaling-stroke"  transform=" translate(-40, -40)" d="M 60 4.346 C 71 4.346 80 13.973 80 25.738 C 80 58.45 40 74.762 40 75.65299999999999 L 40 75.65299999999999 C 40 74.763 0 58.54 0 25.738 C 0 13.884 9 4.346 20 4.346 C 31.1 4.346 40 10.835 40 22.689 C 40 10.835 48.9 4.346 60 4.346 z" stroke-linecap="round" />
</g>
<g transform="matrix(1 0 0 1 42.33 8.94)" id="MxBMfyDOvT4KsO9JcVMdM"  >
<path style="stroke: none; stroke-width: 0; stroke-dasharray: none; stroke-linecap: butt; stroke-dashoffset: 0; stroke-linejoin: miter; stroke-miterlimit: 4; fill: rgb(101,100,121); fill-rule: nonzero; opacity: 1;" vector-effect="non-scaling-stroke"  transform=" translate(-3.99, -3.99)" d="M 3.9893617021276597 0 C 6.1914893617021285 0 7.9787234042553195 1.7872340425531914 7.9787234042553195 3.9893617021276597 C 7.9787234042553195 6.1914893617021285 6.1914893617021285 7.9787234042553195 3.9893617021276597 7.9787234042553195 C 1.7872340425531914 7.9787234042553195 0 6.1914893617021285 0 3.9893617021276597 C 0 1.7872340425531914 1.7872340425531914 0 3.9893617021276597 0 Z" stroke-linecap="round" />
</g>
<g transform="matrix(3.36 0 0 3.36 43.39 16.36)" id="FEO_1LaXAVd5WwKmP3M4D"  >
<path style="stroke: none; stroke-width: 0; stroke-dasharray: none; stroke-linecap: butt; stroke-dashoffset: 0; stroke-linejoin: miter; stroke-miterlimit: 4; fill: rgb(26,26,27); fill-rule: nonzero; opacity: 1;" vector-effect="non-scaling-stroke"  transform=" translate(0, 0)" d="M 0 -3.98936 C 2.20213 -3.98936 3.98936 -2.20213 3.98936 0 C 3.98936 2.20213 2.20213 3.98936 0 3.98936 C -2.20213 3.98936 -3.98936 2.20213 -3.98936 0 C -3.98936 -2.20213 -2.20213 -3.98936 0 -3.98936 z" stroke-linecap="round" />
</g>
<g transform="matrix(0 0.33 -0.33 0 43.25 39.41)" id="MbwtaNBY21CR0sVdWyqFl"  >
<path style="stroke: none; stroke-width: 0; stroke-dasharray: none; stroke-linecap: butt; stroke-dashoffset: 0; stroke-linejoin: miter; stroke-miterlimit: 4; fill: rgb(26,26,27); fill-rule: nonzero; opacity: 1;" vector-effect="non-scaling-stroke"  transform=" translate(-40, -40)" d="M 0 0 L 80 80 L 0 80 L 0 0 z" stroke-linecap="round" />
</g>
<g transform="matrix(0.77 0 0 2.64 33.05 20.51)" id="IAPNLXBX3bC1k-JOyrV7F"  >
<path style="stroke: none; stroke-width: 0; stroke-dasharray: none; stroke-linecap: butt; stroke-dashoffset: 0; stroke-linejoin: miter; stroke-miterlimit: 4; fill: rgb(26,26,27); fill-rule: nonzero; opacity: 1;" vector-effect="non-scaling-stroke"  transform=" translate(0, 0)" d="M -3.98936 -3.98936 L 3.98936 -3.98936 L 3.98936 3.98936 L -3.98936 3.98936 z" stroke-linecap="round" />
</g>
<g transform="matrix(1.71 0 0 1.71 37.51 11.26)" id="sx59y6kXFxz1mVVKQlKgS"  >
<path style="stroke: none; stroke-width: 0; stroke-dasharray: none; stroke-linecap: butt; stroke-dashoffset: 0; stroke-linejoin: miter; stroke-miterlimit: 4; fill: rgb(26,26,27); fill-rule: nonzero; opacity: 1;" vector-effect="non-scaling-stroke"  transform=" translate(0, 0)" d="M 0 -3.98936 C 2.20213 -3.98936 3.98936 -2.20213 3.98936 0 C 3.98936 2.20213 2.20213 3.98936 0 3.98936 C -2.20213 3.98936 -3.98936 2.20213 -3.98936 0 C -3.98936 -2.20213 -2.20213 -3.98936 0 -3.98936 z" stroke-linecap="round" />
</g>
<g transform="matrix(0.28 0.28 -2.1 2.1 44.64 38.75)" id="O96JE09nT93CxtRnADQPw"  >
<path style="stroke: none; stroke-width: 0; stroke-dasharray: none; stroke-linecap: butt; stroke-dashoffset: 0; stroke-linejoin: miter; stroke-miterlimit: 4; fill: rgb(26,26,27); fill-rule: nonzero; opacity: 1;" vector-effect="non-scaling-stroke"  transform=" translate(0, 0)" d="M -4.70745 -4.70745 L 4.70744 -4.70745 L 4.70744 4.70744 L -4.70745 4.70744 z" stroke-linecap="round" />
</g>
<g transform="matrix(0.32 0.1 -0.29 0.96 54.56 23.54)" id="9zjzvqB6WKRekcv5ck5WE"  >
<path style="stroke: none; stroke-width: 0; stroke-dasharray: none; stroke-linecap: butt; stroke-dashoffset: 0; stroke-linejoin: miter; stroke-miterlimit: 4; fill: rgb(26,26,27); fill-rule: nonzero; opacity: 1;" vector-effect="non-scaling-stroke"  transform=" translate(0, 0)" d="M -3.98936 -3.98936 L 3.98936 -3.98936 L 3.98936 3.98936 L -3.98936 3.98936 z" stroke-linecap="round" />
</g>
<g transform="matrix(0 0.12 -0.02 0 30.7 18.78)" id="3OqPwYZgpiFChf8aaw01Y"  >
<path style="stroke: none; stroke-width: 0; stroke-dasharray: none; stroke-linecap: butt; stroke-dashoffset: 0; stroke-linejoin: miter; stroke-miterlimit: 4; fill: rgb(101,100,121); fill-rule: nonzero; opacity: 1;" vector-effect="non-scaling-stroke"  transform=" translate(-40, -40)" d="M 60 40 L 80 80 L 40 80 L 0 80 L 20 40 L 40 0 L 60 40 z" stroke-linecap="round" />
</g>
<g transform="matrix(0 0.08 -0.01 0 30.44 33.71)" id="CKDLJesY-shpZDMomtARp"  >
<path style="stroke: none; stroke-width: 0; stroke-dasharray: none; stroke-linecap: butt; stroke-dashoffset: 0; stroke-linejoin: miter; stroke-miterlimit: 4; fill: rgb(101,100,121); fill-rule: nonzero; opacity: 1;" vector-effect="non-scaling-stroke"  transform=" translate(0, 0)" d="M 18.62905 -18.59561 L 40.76979 32.56584 L -0.7697799999999972 40 L -40.76978 40 L -20.769779999999997 0 L -0.7697799999999972 -40 z" stroke-linecap="round" />
</g>
<g transform="matrix(0 -0.09 0.02 0 29.18 27.02)" id="d884Uk3dTcn4m5L-xRou1"  >
<path style="stroke: none; stroke-width: 0; stroke-dasharray: none; stroke-linecap: butt; stroke-dashoffset: 0; stroke-linejoin: miter; stroke-miterlimit: 4; fill: rgb(26,26,27); fill-rule: nonzero; opacity: 1;" vector-effect="non-scaling-stroke"  transform=" translate(-40, -40)" d="M 60 40 L 80 80 L 40 80 L 0 80 L 20 40 L 40 0 L 60 40 z" stroke-linecap="round" />
</g>
<g transform="matrix(0 0.08 -0.02 0 30.95 47.16)" id="Xi9q5oVGxQ1lD0ZBMj1EF"  >
<path style="stroke: none; stroke-width: 0; stroke-dasharray: none; stroke-linecap: butt; stroke-dashoffset: 0; stroke-linejoin: miter; stroke-miterlimit: 4; fill: rgb(101,100,121); fill-rule: nonzero; opacity: 1;" vector-effect="non-scaling-stroke"  transform=" translate(-40, -40)" d="M 60 40 L 80 80 L 40 80 L 0 80 L 20 40 L 40 0 L 60 40 z" stroke-linecap="round" />
</g>
<g transform="matrix(0 -0.09 0.02 0 29.39 40.38)" id="PQ4UGL_bMpMCuYGxmxUZw"  >
<path style="stroke: none; stroke-opacity: 0; stroke-width: 0; stroke-dasharray: none; stroke-linecap: butt; stroke-dashoffset: 0; stroke-linejoin: miter; stroke-miterlimit: 4; fill: rgb(26,26,27); fill-rule: nonzero; opacity: 1;" vector-effect="non-scaling-stroke"  transform=" translate(-40, -40)" d="M 60 40 L 80 80 L 40 80 L 0 80 L 20 40 L 40 0 L 60 40 z" stroke-linecap="round" />
</g>
</svg>
