<?xml version="1.0" encoding="UTF-8" standalone="no" ?>
<!DOCTYPE svg PUBLIC "-//W3C//DTD SVG 1.1//EN" "http://www.w3.org/Graphics/SVG/1.1/DTD/svg11.dtd">
<svg xmlns="http://www.w3.org/2000/svg" xmlns:xlink="http://www.w3.org/1999/xlink" version="1.1" width="15" height="15" viewBox="0 0 15 15" xml:space="preserve">
<desc>Created with Fabric.js 4.6.0</desc>
<defs>
</defs>
<g transform="matrix(4.17 0 0 4.17 6.67 10.7)" id="upRw9uwXu2oBakR91_JMB"  >
<path style="stroke: rgb(248,27,128); stroke-width: 0; stroke-dasharray: none; stroke-linecap: butt; stroke-dashoffset: 0; stroke-linejoin: miter; stroke-miterlimit: 4; fill: rgb(208,223,227); fill-rule: nonzero; opacity: 1;" vector-effect="non-scaling-stroke"  transform=" translate(0, 0)" d="M -0.99734 -0.5742 C -0.99734 -0.80789 -0.8079000000000001 -0.9973400000000001 -0.5742 -0.9973400000000001 L 0.5742099999999999 -0.9973400000000001 L 0.5742099999999999 -0.9973400000000001 C 0.8078999999999998 -0.9973400000000001 0.99735 -0.8079000000000001 0.99735 -0.5742 L 0.99735 0.18611999999999995 L 0.99735 0.18611999999999995 C 0.99735 0.63415 0.63415 0.99735 0.18611999999999995 0.99735 L -0.19833000000000006 0.99735 L -0.19833000000000006 0.99735 C -0.63961 0.99735 -0.99733 0.63962 -0.99733 0.19834999999999992 z" stroke-linecap="round" />
</g>
<g transform="matrix(6.19 0 0 6.19 6.67 6.44)" id="O4KuIbeScC24UbZDxp8kJ"  >
<path style="stroke: rgb(75,4,187); stroke-width: 0; stroke-dasharray: none; stroke-linecap: butt; stroke-dashoffset: 0; stroke-linejoin: miter; stroke-miterlimit: 4; fill: rgb(208,223,227); fill-rule: nonzero; opacity: 1;" vector-effect="non-scaling-stroke"  transform=" translate(0, 0)" d="M 0 -0.99734 C 0.55053 -0.99734 0.99734 -0.55053 0.99734 0 C 0.99734 0.55053 0.55053 0.99734 0 0.99734 C -0.55053 0.99734 -0.99734 0.55053 -0.99734 0 C -0.99734 -0.55053 -0.55053 -0.99734 0 -0.99734 z" stroke-linecap="round" />
</g>
<g transform="matrix(1 0 0 1 4.23 6.8)" id="-vEHENoKzR2-FecbCVEMb"  >
<path style="stroke: rgb(172,102,177); stroke-width: 0; stroke-dasharray: none; stroke-linecap: butt; stroke-dashoffset: 0; stroke-linejoin: miter; stroke-miterlimit: 4; fill: rgb(36,38,38); fill-rule: nonzero; opacity: 1;" vector-effect="non-scaling-stroke"  transform=" translate(-1.93, -1.33)" d="M 1.92895 0 C 2.9937300000000002 0 3.8579 0.59669 3.8579 1.3319 C 3.8579 2.06711 2.99373 2.6638 1.92895 2.6638 C 0.8641699999999999 2.6638 0 2.06711 0 1.3319 C 0 0.59669 0.86417 0 1.92895 0 z" stroke-linecap="round" />
</g>
<g transform="matrix(1.93 0 0 1.34 9.11 6.8)" id="e9Wc8KrjZAFoV9REsVO3A"  >
<path style="stroke: rgb(31,91,168); stroke-width: 0; stroke-dasharray: none; stroke-linecap: butt; stroke-dashoffset: 0; stroke-linejoin: miter; stroke-miterlimit: 4; fill: rgb(36,38,38); fill-rule: nonzero; opacity: 1;" vector-effect="non-scaling-stroke"  transform=" translate(0, 0)" d="M 0 -0.99734 C 0.55053 -0.99734 0.99734 -0.55053 0.99734 0 C 0.99734 0.55053 0.55053 0.99734 0 0.99734 C -0.55053 0.99734 -0.99734 0.55053 -0.99734 0 C -0.99734 -0.55053 -0.55053 -0.99734 0 -0.99734 z" stroke-linecap="round" />
</g>
<g transform="matrix(3.06 0 0 246711968.59 6.52 12.3)" id="ML5JRW9TbpUskRkxpgnSw"  >
<path style="stroke: rgb(0,0,0); stroke-width: 0; stroke-dasharray: none; stroke-linecap: butt; stroke-dashoffset: 0; stroke-linejoin: miter; stroke-miterlimit: 4; fill: rgb(255,255,255); fill-opacity: 0; fill-rule: nonzero; opacity: 1;" vector-effect="non-scaling-stroke"  transform=" translate(0, 0)" d="M -0.77443 0 L 0.77443 0" stroke-linecap="round" />
</g>
<g transform="matrix(3.72 0 0 0.14 6.54 11.95)" id="cRxuQBHqCPfyC4XUHlNnR"  >
<path style="stroke: rgb(67,196,74); stroke-width: 0; stroke-dasharray: none; stroke-linecap: butt; stroke-dashoffset: 0; stroke-linejoin: miter; stroke-miterlimit: 4; fill: rgb(36,38,38); fill-rule: nonzero; opacity: 1;" vector-effect="non-scaling-stroke"  transform=" translate(0, 0)" d="M -0.99734 -0.99734 L 0.99734 -0.99734 L 0.99734 0.99734 L -0.99734 0.99734 z" stroke-linecap="round" />
</g>
<g transform="matrix(0.86 0 0 0.07 20.36 16.53)" id="8mAymtsV2n9D9Czz-WMvK"  >
<path style="stroke: rgb(67,196,74); stroke-width: 0; stroke-dasharray: none; stroke-linecap: butt; stroke-dashoffset: 0; stroke-linejoin: miter; stroke-miterlimit: 4; fill: rgb(36,38,38); fill-rule: nonzero; opacity: 1;" vector-effect="non-scaling-stroke"  transform=" translate(0, 0)" d="M -0.99734 -0.99734 L 0.99734 -0.99734 L 0.99734 0.99734 L -0.99734 0.99734 z" stroke-linecap="round" />
</g>
<g transform="matrix(0.86 0 0 0.07 30.36 26.53)" id="kwqZwn6EvRXCYWwOcBLkZ"  >
<path style="stroke: rgb(67,196,74); stroke-width: 0; stroke-dasharray: none; stroke-linecap: butt; stroke-dashoffset: 0; stroke-linejoin: miter; stroke-miterlimit: 4; fill: rgb(36,38,38); fill-rule: nonzero; opacity: 1;" vector-effect="non-scaling-stroke"  transform=" translate(0, 0)" d="M -0.99734 -0.99734 L 0.99734 -0.99734 L 0.99734 0.99734 L -0.99734 0.99734 z" stroke-linecap="round" />
</g>
<g transform="matrix(0.12 0 0 0.77 9.54 11.97)" id="DvHodU5FrGW6YzXUE4nbN"  >
<path style="stroke: rgb(156,47,53); stroke-width: 0; stroke-dasharray: none; stroke-linecap: butt; stroke-dashoffset: 0; stroke-linejoin: miter; stroke-miterlimit: 4; fill: rgb(36,38,38); fill-rule: nonzero; opacity: 1;" vector-effect="non-scaling-stroke"  transform=" translate(0, 0)" d="M -0.99734 -0.99734 L 0.99734 -0.99734 L 0.99734 0.99734 L -0.99734 0.99734 z" stroke-linecap="round" />
</g>
<g transform="matrix(0.04 0 0 0.25 38.31 39.7)" id="MfxvUWYIJsUGjo7S8I4Ht"  >
<path style="stroke: rgb(156,47,53); stroke-width: 0; stroke-dasharray: none; stroke-linecap: butt; stroke-dashoffset: 0; stroke-linejoin: miter; stroke-miterlimit: 4; fill: rgb(36,38,38); fill-rule: nonzero; opacity: 1;" vector-effect="non-scaling-stroke"  transform=" translate(0, 0)" d="M -0.99734 -0.99734 L 0.99734 -0.99734 L 0.99734 0.99734 L -0.99734 0.99734 z" stroke-linecap="round" />
</g>
<g transform="matrix(0.04 0 0 0.25 48.31 49.7)" id="G0QjK9ganfsjrPHqy6qci"  >
<path style="stroke: rgb(156,47,53); stroke-width: 0; stroke-dasharray: none; stroke-linecap: butt; stroke-dashoffset: 0; stroke-linejoin: miter; stroke-miterlimit: 4; fill: rgb(36,38,38); fill-rule: nonzero; opacity: 1;" vector-effect="non-scaling-stroke"  transform=" translate(0, 0)" d="M -0.99734 -0.99734 L 0.99734 -0.99734 L 0.99734 0.99734 L -0.99734 0.99734 z" stroke-linecap="round" />
</g>
<g transform="matrix(0.04 0 0 0.25 58.31 59.7)" id="y4m86PxI4YAESFiPQ2kvB"  >
<path style="stroke: rgb(156,47,53); stroke-width: 0; stroke-dasharray: none; stroke-linecap: butt; stroke-dashoffset: 0; stroke-linejoin: miter; stroke-miterlimit: 4; fill: rgb(36,38,38); fill-rule: nonzero; opacity: 1;" vector-effect="non-scaling-stroke"  transform=" translate(0, 0)" d="M -0.99734 -0.99734 L 0.99734 -0.99734 L 0.99734 0.99734 L -0.99734 0.99734 z" stroke-linecap="round" />
</g>
<g transform="matrix(0.04 0 0 0.25 69.35 66.53)" id="ZwpK66MkgCP9DPnlY4oJq"  >
<path style="stroke: rgb(156,47,53); stroke-width: 0; stroke-dasharray: none; stroke-linecap: butt; stroke-dashoffset: 0; stroke-linejoin: miter; stroke-miterlimit: 4; fill: rgb(36,38,38); fill-rule: nonzero; opacity: 1;" vector-effect="non-scaling-stroke"  transform=" translate(0, 0)" d="M -0.99734 -0.99734 L 0.99734 -0.99734 L 0.99734 0.99734 L -0.99734 0.99734 z" stroke-linecap="round" />
</g>
<g transform="matrix(3.06 0 0 3.06 3.49 11.97)" id="DkjZSs4vNCwJzZ7jpVPcY"  >
<path style="stroke: rgb(74,214,4); stroke-width: 0; stroke-dasharray: none; stroke-linecap: butt; stroke-dashoffset: 0; stroke-linejoin: miter; stroke-miterlimit: 4; fill: rgb(36,38,38); fill-rule: nonzero; opacity: 1;" vector-effect="non-scaling-stroke"  transform=" translate(0, 0)" d="M -0.0399 -0.24935 L 0.0399 -0.24935 L 0.0399 0.24935 L -0.0399 0.24935 z" stroke-linecap="round" />
</g>
<g transform="matrix(0.04 0 0 0.25 76.07 81.08)" id="K_95bLdkRaxNsO1M-OxEe"  >
<path style="stroke: rgb(156,47,53); stroke-width: 0; stroke-dasharray: none; stroke-linecap: butt; stroke-dashoffset: 0; stroke-linejoin: miter; stroke-miterlimit: 4; fill: rgb(36,38,38); fill-rule: nonzero; opacity: 1;" vector-effect="non-scaling-stroke"  transform=" translate(0, 0)" d="M -0.99734 -0.99734 L 0.99734 -0.99734 L 0.99734 0.99734 L -0.99734 0.99734 z" stroke-linecap="round" />
</g>
<g transform="matrix(3.06 0 0 3.06 4.71 11.95)" id="u1QgJ9D9CVJHcO_bZk3Y2"  >
<path style="stroke: rgb(193,236,188); stroke-width: 0; stroke-dasharray: none; stroke-linecap: butt; stroke-dashoffset: 0; stroke-linejoin: miter; stroke-miterlimit: 4; fill: rgb(36,38,38); fill-rule: nonzero; opacity: 1;" vector-effect="non-scaling-stroke"  transform=" translate(0, 0)" d="M -0.0399 -0.24935 L 0.0399 -0.24935 L 0.0399 0.24935 L -0.0399 0.24935 z" stroke-linecap="round" />
</g>
<g transform="matrix(4.09 0 0 3.06 5.93 11.95)" id="CkZNMRonBeKPOSR1eMBHt"  >
<path style="stroke: rgb(29,216,60); stroke-width: 0; stroke-dasharray: none; stroke-linecap: butt; stroke-dashoffset: 0; stroke-linejoin: miter; stroke-miterlimit: 4; fill: rgb(36,38,38); fill-rule: nonzero; opacity: 1;" vector-effect="non-scaling-stroke"  transform=" translate(0, 0)" d="M -0.0299 -0.24935 L 0.0299 -0.24935 L 0.0299 0.24935 L -0.0299 0.24935 z" stroke-linecap="round" />
</g>
<g transform="matrix(3.06 0 0 3.06 7.18 11.95)" id="bk7ZteOOIm6346vShKL-Y"  >
<path style="stroke: rgb(84,155,57); stroke-width: 0; stroke-dasharray: none; stroke-linecap: butt; stroke-dashoffset: 0; stroke-linejoin: miter; stroke-miterlimit: 4; fill: rgb(36,38,38); fill-rule: nonzero; opacity: 1;" vector-effect="non-scaling-stroke"  transform=" translate(0, 0)" d="M -0.0399 -0.24935 L 0.0399 -0.24935 L 0.0399 0.24935 L -0.0399 0.24935 z" stroke-linecap="round" />
</g>
<g transform="matrix(3.06 0 0 3.06 8.4 11.97)" id="uahqfrL6f8PuknGr4heY3"  >
<path style="stroke: rgb(248,11,34); stroke-width: 0; stroke-dasharray: none; stroke-linecap: butt; stroke-dashoffset: 0; stroke-linejoin: miter; stroke-miterlimit: 4; fill: rgb(36,38,38); fill-rule: nonzero; opacity: 1;" vector-effect="non-scaling-stroke"  transform=" translate(0, 0)" d="M -0.0399 -0.24935 L 0.0399 -0.24935 L 0.0399 0.24935 L -0.0399 0.24935 z" stroke-linecap="round" />
</g>
<g transform="matrix(0.03 0 0 0.03 6.67 9.05)" id="AJA6xN5-9yhYx3JNRZ9bd"  >
<path style="stroke: none; stroke-width: 1; stroke-dasharray: none; stroke-linecap: butt; stroke-dashoffset: 0; stroke-linejoin: miter; stroke-miterlimit: 4; fill: rgb(36,38,38); fill-rule: nonzero; opacity: 1;" vector-effect="non-scaling-stroke"  transform=" translate(-40, -40)" d="M 60 40 L 80 80 L 40 80 L 0 80 L 20 40 L 40 0 L 60 40 z" stroke-linecap="round" />
</g>
</svg>