<?xml version="1.0" encoding="UTF-8" standalone="no" ?>
<!DOCTYPE svg PUBLIC "-//W3C//DTD SVG 1.1//EN" "http://www.w3.org/Graphics/SVG/1.1/DTD/svg11.dtd">
<svg xmlns="http://www.w3.org/2000/svg" xmlns:xlink="http://www.w3.org/1999/xlink" version="1.1" width="20" height="20" viewBox="0 0 20 20" xml:space="preserve">
<desc>Created with Fabric.js 4.6.0</desc>
<defs>
</defs>
<g transform="matrix(2.85 0 0 2.85 492.25 671.05)" id="mrw2fx5Z8D-QxbXGCeblK"  >
<path style="stroke: rgb(0,0,0); stroke-width: 1; stroke-dasharray: none; stroke-linecap: butt; stroke-dashoffset: 0; stroke-linejoin: miter; stroke-miterlimit: 4; fill: rgb(255,255,255); fill-opacity: 0; fill-rule: nonzero; opacity: 1;" vector-effect="non-scaling-stroke"  transform=" translate(0, 0)" d="M 0 0 z" stroke-linecap="round" />
</g>
<g transform="matrix(0.22 0 0 0.21 10 10)" id="OhpPglG6LHPYRdZ4WJfEr"  >
<path style="stroke: rgb(216,240,246); stroke-width: 0; stroke-dasharray: none; stroke-linecap: butt; stroke-dashoffset: 0; stroke-linejoin: miter; stroke-miterlimit: 4; fill: rgb(26,26,27); fill-rule: nonzero; opacity: 1;" vector-effect="non-scaling-stroke"  transform=" translate(0, 0)" d="M 0 -42.55319 C 23.48936 -42.55319 42.55319 -23.48936 42.55319 0 C 42.55319 23.48936 23.48936 42.55319 0 42.55319 C -23.48936 42.55319 -42.55319 23.48936 -42.55319 0 C -42.55319 -23.48936 -23.48936 -42.55319 0 -42.55319 z" stroke-linecap="round" />
</g>
<g transform="matrix(0.21 0 0 0.21 10 10)" id="kZlAsxGYqd_KSe1TYwNiM"  >
<path style="stroke: rgb(39,15,29); stroke-width: 0; stroke-dasharray: none; stroke-linecap: butt; stroke-dashoffset: 0; stroke-linejoin: miter; stroke-miterlimit: 4; fill: rgb(135,66,12); fill-rule: nonzero; opacity: 1;" vector-effect="non-scaling-stroke"  transform=" translate(0, 0)" d="M 0 -42.55319 C 23.48936 -42.55319 42.55319 -23.48936 42.55319 0 C 42.55319 23.48936 23.48936 42.55319 0 42.55319 C -23.48936 42.55319 -42.55319 23.48936 -42.55319 0 C -42.55319 -23.48936 -23.48936 -42.55319 0 -42.55319 z" stroke-linecap="round" />
</g>
<g transform="matrix(1 0 0 1 9.95 5.62)" id="vr8d24m2MjeKytHXVLVBq"  >
<path style="stroke: rgb(0,0,0); stroke-width: 1; stroke-dasharray: none; stroke-linecap: round; stroke-dashoffset: 0; stroke-linejoin: round; stroke-miterlimit: 10; fill: none; fill-rule: nonzero; opacity: 1;" vector-effect="non-scaling-stroke"  transform=" translate(-9.95, -5.62)" d="M 9.947826086956534 4.712043478260871 Q 9.947826086956534 4.713043478260872 9.947826086956534 4.730434782608698 Q 9.947826086956534 4.747826086956524 9.947826086956534 4.76521739130435 Q 9.947826086956534 4.782608695652176 9.947826086956534 4.800000000000002 Q 9.947826086956534 4.817391304347828 9.947826086956534 4.834782608695654 Q 9.947826086956534 4.85217391304348 9.947826086956534 4.8695652173913055 Q 9.947826086956534 4.8869565217391315 9.947826086956534 4.9043478260869575 Q 9.947826086956534 4.9217391304347835 9.947826086956534 4.9391304347826095 Q 9.947826086956534 4.9565217391304355 9.947826086956534 4.973913043478262 Q 9.947826086956534 4.991304347826089 9.947826086956534 5.008695652173915 Q 9.947826086956534 5.026086956521741 9.947826086956534 5.043478260869567 Q 9.947826086956534 5.060869565217393 9.947826086956534 5.078260869565219 Q 9.947826086956534 5.095652173913045 9.947826086956534 5.113043478260871 Q 9.947826086956534 5.130434782608697 9.947826086956534 5.147826086956523 Q 9.947826086956534 5.165217391304349 9.947826086956534 5.182608695652175 Q 9.947826086956534 5.200000000000001 9.947826086956534 5.217391304347827 Q 9.947826086956534 5.234782608695653 9.947826086956534 5.252173913043479 Q 9.947826086956534 5.269565217391305 9.947826086956534 5.286956521739132 Q 9.947826086956534 5.304347826086959 9.947826086956534 5.321739130434785 Q 9.947826086956534 5.339130434782611 9.947826086956534 5.356521739130437 Q 9.947826086956534 5.373913043478263 9.947826086956534 5.391304347826089 Q 9.947826086956534 5.408695652173915 9.947826086956534 5.426086956521741 Q 9.947826086956534 5.443478260869567 9.947826086956534 5.460869565217393 Q 9.947826086956534 5.478260869565219 9.947826086956534 5.495652173913045 Q 9.947826086956534 5.513043478260871 9.947826086956534 5.530434782608697 Q 9.947826086956534 5.547826086956523 9.947826086956534 5.565217391304349 Q 9.947826086956534 5.5826086956521745 9.947826086956534 5.600000000000001 Q 9.947826086956534 5.617391304347828 9.947826086956534 5.634782608695654 Q 9.947826086956534 5.65217391304348 9.947826086956534 5.669565217391306 Q 9.947826086956534 5.686956521739132 9.947826086956534 5.704347826086958 Q 9.947826086956534 5.721739130434784 9.947826086956534 5.73913043478261 Q 9.947826086956534 5.756521739130436 9.947826086956534 5.791304347826088 Q 9.947826086956534 5.82608695652174 9.947826086956534 5.843478260869566 Q 9.947826086956534 5.860869565217392 9.947826086956534 5.878260869565218 Q 9.947826086956534 5.895652173913044 9.947826086956534 5.913043478260871 Q 9.947826086956534 5.930434782608698 9.947826086956534 5.947826086956524 Q 9.947826086956534 5.96521739130435 9.947826086956534 5.982608695652176 Q 9.947826086956534 6.000000000000002 9.947826086956534 6.017391304347828 Q 9.947826086956534 6.034782608695654 9.947826086956534 6.05217391304348 Q 9.947826086956534 6.069565217391306 9.947826086956534 6.086956521739132 Q 9.947826086956534 6.104347826086958 9.947826086956534 6.121739130434784 Q 9.947826086956534 6.13913043478261 9.947826086956534 6.156521739130436 Q 9.947826086956534 6.173913043478262 9.947826086956534 6.191304347826088 Q 9.947826086956534 6.208695652173914 9.947826086956534 6.2260869565217405 Q 9.947826086956534 6.243478260869567 9.947826086956534 6.260869565217393 Q 9.947826086956534 6.278260869565219 9.947826086956534 6.295652173913045 Q 9.947826086956534 6.313043478260871 9.947826086956534 6.330434782608697 Q 9.947826086956534 6.347826086956523 9.947826086956534 6.365217391304349 Q 9.947826086956534 6.382608695652175 9.947826086956534 6.400000000000001 Q 9.947826086956534 6.417391304347827 9.947826086956534 6.434782608695653 Q 9.947826086956534 6.452173913043479 9.947826086956534 6.486956521739131 L 9.947826086956534 6.5227391304347835" stroke-linecap="round" />
</g>
<g transform="matrix(1 0 0 1 11.23 7.36)" id="sfwTD2rk1VccwXV-48qtq"  >
<path style="stroke: rgb(0,0,0); stroke-width: 1; stroke-dasharray: none; stroke-linecap: round; stroke-dashoffset: 0; stroke-linejoin: round; stroke-miterlimit: 10; fill: none; fill-rule: nonzero; opacity: 1;" vector-effect="non-scaling-stroke"  transform=" translate(-11.23, -7.36)" d="M 12.521739130434794 8.157521739130436 Q 12.521739130434794 8.156521739130437 12.521739130434794 8.13913043478261 Q 12.521739130434794 8.121739130434783 12.521739130434794 8.104347826086958 Q 12.521739130434794 8.08695652173913 12.504347826086969 8.08695652173913 Q 12.486956521739144 8.08695652173913 12.486956521739144 8.069565217391304 Q 12.486956521739144 8.052173913043479 12.469565217391317 8.034782608695654 Q 12.45217391304349 8.017391304347827 12.45217391304349 8 Q 12.45217391304349 7.982608695652175 12.434782608695665 7.965217391304349 Q 12.41739130434784 7.947826086956523 12.41739130434784 7.930434782608697 Q 12.41739130434784 7.913043478260871 12.400000000000013 7.895652173913045 Q 12.382608695652186 7.878260869565219 12.382608695652186 7.860869565217393 Q 12.382608695652186 7.843478260869567 12.36521739130436 7.82608695652174 Q 12.347826086956536 7.808695652173913 12.347826086956536 7.791304347826087 Q 12.347826086956536 7.773913043478261 12.330434782608709 7.756521739130435 Q 12.313043478260882 7.739130434782609 12.313043478260882 7.721739130434783 Q 12.313043478260882 7.704347826086957 12.295652173913057 7.704347826086957 Q 12.278260869565232 7.704347826086957 12.278260869565232 7.686956521739131 Q 12.278260869565232 7.669565217391305 12.278260869565232 7.652173913043479 Q 12.278260869565232 7.634782608695653 12.260869565217405 7.634782608695653 Q 12.243478260869578 7.634782608695653 12.243478260869578 7.617391304347827 Q 12.243478260869578 7.600000000000001 12.226086956521751 7.582608695652175 Q 12.208695652173924 7.5652173913043494 12.208695652173924 7.5478260869565235 Q 12.208695652173924 7.5304347826086975 12.1913043478261 7.5304347826086975 Q 12.173913043478274 7.5304347826086975 12.173913043478274 7.513043478260871 Q 12.173913043478274 7.495652173913044 12.173913043478274 7.478260869565218 Q 12.173913043478274 7.460869565217392 12.156521739130447 7.460869565217392 Q 12.13913043478262 7.460869565217392 12.13913043478262 7.443478260869566 Q 12.13913043478262 7.42608695652174 12.121739130434795 7.42608695652174 Q 12.10434782608697 7.42608695652174 12.10434782608697 7.408695652173914 Q 12.10434782608697 7.391304347826088 12.086956521739143 7.373913043478262 Q 12.069565217391316 7.356521739130436 12.052173913043491 7.356521739130436 Q 12.034782608695666 7.356521739130436 12.034782608695666 7.33913043478261 Q 12.034782608695666 7.321739130434784 12.01739130434784 7.304347826086958 Q 12.000000000000012 7.286956521739132 11.982608695652187 7.286956521739132 Q 11.965217391304362 7.286956521739132 11.965217391304362 7.269565217391306 Q 11.965217391304362 7.25217391304348 11.947826086956535 7.234782608695654 Q 11.930434782608708 7.217391304347828 11.913043478260882 7.217391304347828 Q 11.895652173913055 7.217391304347828 11.895652173913055 7.200000000000001 Q 11.895652173913055 7.182608695652174 11.87826086956523 7.182608695652174 Q 11.860869565217405 7.182608695652174 11.860869565217405 7.165217391304348 Q 11.860869565217405 7.147826086956522 11.843478260869578 7.147826086956522 Q 11.82608695652175 7.147826086956522 11.808695652173926 7.130434782608696 Q 11.7913043478261 7.11304347826087 11.773913043478274 7.11304347826087 Q 11.756521739130447 7.11304347826087 11.739130434782622 7.11304347826087 Q 11.721739130434797 7.11304347826087 11.70434782608697 7.11304347826087 Q 11.686956521739143 7.11304347826087 11.686956521739143 7.095652173913044 Q 11.686956521739143 7.078260869565218 11.669565217391318 7.078260869565218 Q 11.652173913043493 7.078260869565218 11.634782608695666 7.078260869565218 Q 11.617391304347839 7.078260869565218 11.600000000000012 7.078260869565218 Q 11.582608695652185 7.078260869565218 11.582608695652185 7.060869565217392 Q 11.582608695652185 7.043478260869566 11.56521739130436 7.043478260869566 Q 11.547826086956535 7.043478260869566 11.547826086956535 7.02608695652174 Q 11.547826086956535 7.008695652173914 11.530434782608708 7.008695652173914 Q 11.513043478260881 7.008695652173914 11.513043478260881 6.991304347826088 Q 11.513043478260881 6.973913043478262 11.495652173913056 6.973913043478262 Q 11.478260869565231 6.973913043478262 11.478260869565231 6.956521739130436 Q 11.478260869565231 6.93913043478261 11.460869565217404 6.93913043478261 Q 11.443478260869577 6.93913043478261 11.426086956521752 6.93913043478261 Q 11.408695652173927 6.93913043478261 11.408695652173927 6.921739130434784 Q 11.408695652173927 6.904347826086958 11.3913043478261 6.904347826086958 Q 11.373913043478273 6.904347826086958 11.356521739130448 6.904347826086958 Q 11.339130434782623 6.904347826086958 11.321739130434796 6.8869565217391315 Q 11.30434782608697 6.869565217391305 11.286956521739143 6.869565217391305 Q 11.269565217391316 6.869565217391305 11.25217391304349 6.852173913043479 Q 11.234782608695665 6.834782608695653 11.217391304347839 6.834782608695653 Q 11.200000000000012 6.834782608695653 11.182608695652187 6.817391304347827 Q 11.165217391304362 6.800000000000001 11.147826086956535 6.800000000000001 Q 11.130434782608708 6.800000000000001 11.130434782608708 6.782608695652175 Q 11.130434782608708 6.765217391304349 11.113043478260883 6.765217391304349 Q 11.095652173913058 6.765217391304349 11.07826086956523 6.747826086956523 Q 11.060869565217404 6.730434782608697 11.043478260869579 6.730434782608697 Q 11.026086956521754 6.730434782608697 11.008695652173927 6.713043478260871 Q 10.9913043478261 6.695652173913045 10.973913043478273 6.695652173913045 Q 10.956521739130446 6.695652173913045 10.939130434782621 6.695652173913045 Q 10.921739130434796 6.695652173913045 10.904347826086969 6.695652173913045 Q 10.886956521739142 6.695652173913045 10.869565217391317 6.695652173913045 Q 10.852173913043492 6.695652173913045 10.834782608695665 6.695652173913045 Q 10.817391304347838 6.695652173913045 10.800000000000013 6.695652173913045 Q 10.782608695652188 6.695652173913045 10.765217391304361 6.695652173913045 Q 10.747826086956534 6.695652173913045 10.73043478260871 6.695652173913045 Q 10.713043478260884 6.695652173913045 10.713043478260884 6.678260869565219 Q 10.713043478260884 6.660869565217393 10.695652173913057 6.660869565217393 Q 10.67826086956523 6.660869565217393 10.660869565217403 6.660869565217393 Q 10.643478260869577 6.660869565217393 10.626086956521752 6.660869565217393 Q 10.608695652173926 6.660869565217393 10.608695652173926 6.643478260869567 Q 10.608695652173926 6.626086956521741 10.5913043478261 6.626086956521741 Q 10.573913043478273 6.626086956521741 10.556521739130448 6.626086956521741 Q 10.539130434782622 6.626086956521741 10.521739130434796 6.608695652173915 Q 10.504347826086969 6.591304347826089 10.486956521739144 6.591304347826089 Q 10.469565217391319 6.591304347826089 10.452173913043492 6.591304347826089 Q 10.434782608695665 6.591304347826089 10.41739130434784 6.573913043478262 Q 10.400000000000015 6.556521739130435 10.382608695652188 6.556521739130435 Q 10.36521739130436 6.556521739130435 10.347826086956534 6.556521739130435 Q 10.330434782608707 6.556521739130435 10.313043478260882 6.556521739130435 Q 10.295652173913057 6.556521739130435 10.27826086956523 6.556521739130435 Q 10.260869565217403 6.556521739130435 10.243478260869578 6.556521739130435 Q 10.226086956521753 6.556521739130435 10.208695652173926 6.556521739130435 Q 10.1913043478261 6.556521739130435 10.173913043478274 6.556521739130435 Q 10.156521739130449 6.556521739130435 10.139130434782622 6.556521739130435 Q 10.121739130434795 6.556521739130435 10.10434782608697 6.556521739130435 Q 10.086956521739145 6.556521739130435 10.069565217391318 6.556521739130435 Q 10.052173913043491 6.556521739130435 10.034782608695664 6.556521739130435 Q 10.017391304347838 6.556521739130435 9.982608695652186 6.556521739130435 L 9.946826086956534 6.556521739130435" stroke-linecap="round" />
</g>
<g transform="matrix(1 0 0 1 11.23 12.75)" id="ltjeUgAhKAQuepLDqgvLR"  >
<path style="stroke: rgb(0,0,0); stroke-width: 1; stroke-dasharray: none; stroke-linecap: round; stroke-dashoffset: 0; stroke-linejoin: round; stroke-miterlimit: 10; fill: none; fill-rule: nonzero; opacity: 1;" vector-effect="non-scaling-stroke"  transform=" translate(-11.23, -12.75)" d="M 12.521739130434794 11.91204347826087 Q 12.521739130434794 11.91304347826087 12.521739130434794 11.930434782608696 Q 12.521739130434794 11.947826086956521 12.521739130434794 11.965217391304348 Q 12.521739130434794 11.982608695652175 12.504347826086969 11.982608695652175 Q 12.486956521739144 11.982608695652175 12.486956521739144 12 Q 12.486956521739144 12.017391304347827 12.486956521739144 12.034782608695654 Q 12.486956521739144 12.052173913043479 12.469565217391317 12.052173913043479 Q 12.45217391304349 12.052173913043479 12.45217391304349 12.069565217391304 Q 12.45217391304349 12.08695652173913 12.45217391304349 12.104347826086958 Q 12.45217391304349 12.121739130434783 12.434782608695665 12.121739130434783 Q 12.41739130434784 12.121739130434783 12.41739130434784 12.139130434782608 Q 12.41739130434784 12.156521739130435 12.41739130434784 12.173913043478262 Q 12.41739130434784 12.191304347826087 12.400000000000013 12.191304347826087 Q 12.382608695652186 12.191304347826087 12.382608695652186 12.208695652173912 Q 12.382608695652186 12.226086956521739 12.36521739130436 12.226086956521739 Q 12.347826086956536 12.226086956521739 12.347826086956536 12.243478260869566 Q 12.347826086956536 12.260869565217392 12.330434782608709 12.260869565217392 Q 12.313043478260882 12.260869565217392 12.313043478260882 12.278260869565218 Q 12.313043478260882 12.295652173913043 12.313043478260882 12.31304347826087 Q 12.313043478260882 12.330434782608696 12.295652173913057 12.330434782608696 Q 12.278260869565232 12.330434782608696 12.278260869565232 12.347826086956522 Q 12.278260869565232 12.365217391304347 12.278260869565232 12.382608695652173 Q 12.278260869565232 12.4 12.278260869565232 12.417391304347825 Q 12.278260869565232 12.43478260869565 12.260869565217405 12.43478260869565 Q 12.243478260869578 12.43478260869565 12.243478260869578 12.452173913043477 Q 12.243478260869578 12.469565217391304 12.243478260869578 12.486956521739131 Q 12.243478260869578 12.504347826086958 12.226086956521751 12.521739130434783 Q 12.208695652173924 12.539130434782608 12.208695652173924 12.556521739130435 Q 12.208695652173924 12.573913043478262 12.1913043478261 12.573913043478262 Q 12.173913043478274 12.573913043478262 12.173913043478274 12.591304347826087 Q 12.173913043478274 12.608695652173912 12.156521739130447 12.626086956521739 Q 12.13913043478262 12.643478260869566 12.13913043478262 12.660869565217391 Q 12.13913043478262 12.678260869565216 12.121739130434795 12.678260869565216 Q 12.10434782608697 12.678260869565216 12.10434782608697 12.695652173913043 Q 12.10434782608697 12.71304347826087 12.086956521739143 12.71304347826087 Q 12.069565217391316 12.71304347826087 12.069565217391316 12.730434782608695 Q 12.069565217391316 12.74782608695652 12.052173913043491 12.765217391304347 Q 12.034782608695666 12.782608695652174 12.01739130434784 12.8 Q 12.000000000000012 12.817391304347828 11.982608695652187 12.834782608695653 Q 11.965217391304362 12.852173913043478 11.947826086956535 12.852173913043478 Q 11.930434782608708 12.852173913043478 11.930434782608708 12.869565217391305 Q 11.930434782608708 12.886956521739132 11.913043478260882 12.886956521739132 Q 11.895652173913055 12.886956521739132 11.895652173913055 12.904347826086957 Q 11.895652173913055 12.921739130434782 11.87826086956523 12.921739130434782 Q 11.860869565217405 12.921739130434782 11.843478260869578 12.939130434782609 Q 11.82608695652175 12.956521739130435 11.808695652173926 12.956521739130435 Q 11.7913043478261 12.956521739130435 11.773913043478274 12.97391304347826 Q 11.756521739130447 12.991304347826086 11.739130434782622 12.991304347826086 Q 11.721739130434797 12.991304347826086 11.70434782608697 13.008695652173913 Q 11.686956521739143 13.02608695652174 11.686956521739143 13.043478260869565 Q 11.686956521739143 13.06086956521739 11.669565217391318 13.06086956521739 Q 11.652173913043493 13.06086956521739 11.634782608695666 13.078260869565216 Q 11.617391304347839 13.095652173913043 11.600000000000012 13.095652173913043 Q 11.582608695652185 13.095652173913043 11.582608695652185 13.11304347826087 Q 11.582608695652185 13.130434782608697 11.56521739130436 13.130434782608697 Q 11.547826086956535 13.130434782608697 11.547826086956535 13.147826086956522 Q 11.547826086956535 13.165217391304347 11.530434782608708 13.165217391304347 Q 11.513043478260881 13.165217391304347 11.495652173913056 13.165217391304347 Q 11.478260869565231 13.165217391304347 11.460869565217404 13.165217391304347 Q 11.443478260869577 13.165217391304347 11.426086956521752 13.165217391304347 Q 11.408695652173927 13.165217391304347 11.408695652173927 13.182608695652174 Q 11.408695652173927 13.200000000000001 11.3913043478261 13.200000000000001 Q 11.373913043478273 13.200000000000001 11.356521739130448 13.200000000000001 Q 11.339130434782623 13.200000000000001 11.321739130434796 13.200000000000001 Q 11.30434782608697 13.200000000000001 11.286956521739143 13.217391304347826 Q 11.269565217391316 13.234782608695651 11.25217391304349 13.234782608695651 Q 11.234782608695665 13.234782608695651 11.217391304347839 13.234782608695651 Q 11.200000000000012 13.234782608695651 11.200000000000012 13.252173913043478 Q 11.200000000000012 13.269565217391305 11.182608695652187 13.269565217391305 Q 11.165217391304362 13.269565217391305 11.147826086956535 13.269565217391305 Q 11.130434782608708 13.269565217391305 11.113043478260883 13.269565217391305 Q 11.095652173913058 13.269565217391305 11.095652173913058 13.28695652173913 Q 11.095652173913058 13.304347826086955 11.07826086956523 13.304347826086955 Q 11.060869565217404 13.304347826086955 11.043478260869579 13.304347826086955 Q 11.026086956521754 13.304347826086955 11.008695652173927 13.321739130434782 Q 10.9913043478261 13.339130434782609 10.973913043478273 13.339130434782609 Q 10.956521739130446 13.339130434782609 10.939130434782621 13.339130434782609 Q 10.921739130434796 13.339130434782609 10.904347826086969 13.356521739130434 Q 10.886956521739142 13.37391304347826 10.869565217391317 13.37391304347826 Q 10.852173913043492 13.37391304347826 10.834782608695665 13.37391304347826 Q 10.817391304347838 13.37391304347826 10.800000000000013 13.391304347826086 Q 10.782608695652188 13.408695652173913 10.765217391304361 13.408695652173913 Q 10.747826086956534 13.408695652173913 10.73043478260871 13.408695652173913 Q 10.713043478260884 13.408695652173913 10.695652173913057 13.408695652173913 Q 10.67826086956523 13.408695652173913 10.67826086956523 13.42608695652174 Q 10.67826086956523 13.443478260869567 10.660869565217403 13.443478260869567 Q 10.643478260869577 13.443478260869567 10.626086956521752 13.443478260869567 Q 10.608695652173926 13.443478260869567 10.5913043478261 13.443478260869567 Q 10.573913043478273 13.443478260869567 10.556521739130448 13.443478260869567 Q 10.539130434782622 13.443478260869567 10.539130434782622 13.460869565217392 Q 10.539130434782622 13.478260869565217 10.521739130434796 13.478260869565217 Q 10.504347826086969 13.478260869565217 10.486956521739144 13.478260869565217 Q 10.469565217391319 13.478260869565217 10.452173913043492 13.478260869565217 Q 10.434782608695665 13.478260869565217 10.41739130434784 13.478260869565217 Q 10.400000000000015 13.478260869565217 10.400000000000015 13.495652173913044 Q 10.400000000000015 13.51304347826087 10.382608695652188 13.51304347826087 Q 10.36521739130436 13.51304347826087 10.347826086956534 13.51304347826087 Q 10.330434782608707 13.51304347826087 10.313043478260882 13.51304347826087 Q 10.295652173913057 13.51304347826087 10.27826086956523 13.51304347826087 Q 10.260869565217403 13.51304347826087 10.260869565217403 13.530434782608696 Q 10.260869565217403 13.54782608695652 10.243478260869578 13.54782608695652 Q 10.226086956521753 13.54782608695652 10.208695652173926 13.54782608695652 Q 10.1913043478261 13.54782608695652 10.173913043478274 13.54782608695652 Q 10.156521739130449 13.54782608695652 10.139130434782622 13.54782608695652 Q 10.121739130434795 13.54782608695652 10.10434782608697 13.54782608695652 Q 10.086956521739145 13.54782608695652 10.086956521739145 13.565217391304348 Q 10.086956521739145 13.582608695652175 10.069565217391318 13.582608695652175 Q 10.052173913043491 13.582608695652175 10.034782608695664 13.582608695652175 Q 10.017391304347838 13.582608695652175 9.982608695652186 13.582608695652175 L 9.946826086956534 13.582608695652175" stroke-linecap="round" />
</g>
<g transform="matrix(1 0 0 1 9.98 14.5)" id="fYtVd_t5Sq-TS42x_em-w"  >
<path style="stroke: rgb(0,0,0); stroke-width: 1; stroke-dasharray: none; stroke-linecap: round; stroke-dashoffset: 0; stroke-linejoin: round; stroke-miterlimit: 10; fill: none; fill-rule: nonzero; opacity: 1;" vector-effect="non-scaling-stroke"  transform=" translate(-9.98, -14.5)" d="M 9.982608695652187 15.427086956521737 Q 9.982608695652187 15.426086956521738 9.982608695652187 15.391304347826086 Q 9.982608695652187 15.356521739130434 9.982608695652187 15.339130434782609 Q 9.982608695652187 15.321739130434784 9.982608695652187 15.304347826086957 Q 9.982608695652187 15.28695652173913 9.982608695652187 15.269565217391303 Q 9.982608695652187 15.252173913043476 9.982608695652187 15.234782608695651 Q 9.982608695652187 15.217391304347826 9.982608695652187 15.2 Q 9.982608695652187 15.182608695652172 9.982608695652187 15.165217391304347 Q 9.982608695652187 15.147826086956522 9.982608695652187 15.130434782608695 Q 9.982608695652187 15.113043478260868 9.982608695652187 15.095652173913043 Q 9.982608695652187 15.078260869565218 9.982608695652187 15.060869565217391 Q 9.982608695652187 15.043478260869565 9.982608695652187 15.02608695652174 Q 9.982608695652187 15.008695652173914 9.982608695652187 14.991304347826087 Q 9.982608695652187 14.97391304347826 9.982608695652187 14.956521739130434 Q 9.982608695652187 14.939130434782607 9.982608695652187 14.921739130434782 Q 9.982608695652187 14.904347826086957 9.982608695652187 14.88695652173913 Q 9.982608695652187 14.869565217391303 9.982608695652187 14.852173913043478 Q 9.982608695652187 14.834782608695653 9.982608695652187 14.817391304347826 Q 9.982608695652187 14.799999999999999 9.982608695652187 14.782608695652174 Q 9.982608695652187 14.765217391304349 9.982608695652187 14.747826086956522 Q 9.982608695652187 14.730434782608695 9.982608695652187 14.71304347826087 Q 9.982608695652187 14.695652173913045 9.982608695652187 14.678260869565218 Q 9.982608695652187 14.660869565217391 9.982608695652187 14.643478260869564 Q 9.982608695652187 14.626086956521737 9.982608695652187 14.608695652173912 Q 9.982608695652187 14.591304347826087 9.982608695652187 14.57391304347826 Q 9.982608695652187 14.556521739130433 9.982608695652187 14.539130434782608 Q 9.982608695652187 14.521739130434783 9.982608695652187 14.504347826086956 Q 9.982608695652187 14.48695652173913 9.982608695652187 14.469565217391304 Q 9.982608695652187 14.45217391304348 9.982608695652187 14.434782608695652 Q 9.982608695652187 14.417391304347825 9.982608695652187 14.4 Q 9.982608695652187 14.382608695652175 9.982608695652187 14.365217391304348 Q 9.982608695652187 14.347826086956522 9.982608695652187 14.330434782608695 Q 9.982608695652187 14.313043478260868 9.982608695652187 14.295652173913043 Q 9.982608695652187 14.278260869565218 9.982608695652187 14.26086956521739 Q 9.982608695652187 14.243478260869564 9.982608695652187 14.226086956521739 Q 9.982608695652187 14.208695652173914 9.982608695652187 14.191304347826087 Q 9.982608695652187 14.17391304347826 9.982608695652187 14.156521739130435 Q 9.982608695652187 14.13913043478261 9.982608695652187 14.121739130434783 Q 9.982608695652187 14.104347826086956 9.982608695652187 14.08695652173913 Q 9.982608695652187 14.069565217391306 9.982608695652187 14.052173913043479 Q 9.982608695652187 14.034782608695652 9.982608695652187 14.017391304347825 Q 9.982608695652187 13.999999999999998 9.982608695652187 13.982608695652173 Q 9.982608695652187 13.965217391304348 9.982608695652187 13.947826086956521 Q 9.982608695652187 13.930434782608694 9.982608695652187 13.91304347826087 Q 9.982608695652187 13.895652173913044 9.982608695652187 13.878260869565217 Q 9.982608695652187 13.86086956521739 9.982608695652187 13.843478260869565 Q 9.982608695652187 13.82608695652174 9.982608695652187 13.808695652173913 Q 9.982608695652187 13.791304347826086 9.982608695652187 13.773913043478261 Q 9.982608695652187 13.756521739130436 9.982608695652187 13.73913043478261 Q 9.982608695652187 13.721739130434782 9.982608695652187 13.704347826086956 Q 9.982608695652187 13.686956521739129 9.982608695652187 13.669565217391304 Q 9.982608695652187 13.652173913043478 9.982608695652187 13.617391304347827 L 9.982608695652187 13.581608695652175" stroke-linecap="round" />
</g>
<g transform="matrix(1 0 0 1 8.49 11.93)" id="ir8p7eKpIAUrL9oJ51Gif"  >
<path style="stroke: rgb(0,0,0); stroke-width: 1; stroke-dasharray: none; stroke-linecap: round; stroke-dashoffset: 0; stroke-linejoin: round; stroke-miterlimit: 10; fill: none; fill-rule: nonzero; opacity: 1;" vector-effect="non-scaling-stroke"  transform=" translate(-8.49, -11.93)" d="M 9.914043478260883 13.54782608695652 Q 9.913043478260883 13.54782608695652 9.895652173913057 13.54782608695652 Q 9.87826086956523 13.54782608695652 9.860869565217405 13.54782608695652 Q 9.84347826086958 13.54782608695652 9.826086956521753 13.54782608695652 Q 9.808695652173926 13.54782608695652 9.7913043478261 13.530434782608696 Q 9.773913043478275 13.51304347826087 9.756521739130449 13.51304347826087 Q 9.739130434782622 13.51304347826087 9.721739130434795 13.51304347826087 Q 9.704347826086968 13.51304347826087 9.686956521739143 13.51304347826087 Q 9.669565217391318 13.51304347826087 9.652173913043491 13.51304347826087 Q 9.634782608695664 13.51304347826087 9.634782608695664 13.495652173913044 Q 9.634782608695664 13.478260869565217 9.617391304347839 13.478260869565217 Q 9.600000000000014 13.478260869565217 9.582608695652187 13.478260869565217 Q 9.56521739130436 13.478260869565217 9.547826086956535 13.478260869565217 Q 9.53043478260871 13.478260869565217 9.513043478260883 13.478260869565217 Q 9.495652173913056 13.478260869565217 9.495652173913056 13.460869565217392 Q 9.495652173913056 13.443478260869567 9.478260869565231 13.443478260869567 Q 9.460869565217406 13.443478260869567 9.443478260869579 13.443478260869567 Q 9.426086956521752 13.443478260869567 9.408695652173925 13.443478260869567 Q 9.391304347826098 13.443478260869567 9.391304347826098 13.42608695652174 Q 9.391304347826098 13.408695652173913 9.373913043478273 13.408695652173913 Q 9.356521739130448 13.408695652173913 9.339130434782621 13.408695652173913 Q 9.321739130434795 13.408695652173913 9.30434782608697 13.391304347826086 Q 9.286956521739144 13.37391304347826 9.269565217391317 13.37391304347826 Q 9.25217391304349 13.37391304347826 9.25217391304349 13.356521739130434 Q 9.25217391304349 13.339130434782609 9.234782608695665 13.339130434782609 Q 9.21739130434784 13.339130434782609 9.200000000000014 13.339130434782609 Q 9.182608695652187 13.339130434782609 9.165217391304362 13.339130434782609 Q 9.147826086956536 13.339130434782609 9.13043478260871 13.339130434782609 Q 9.113043478260883 13.339130434782609 9.095652173913056 13.339130434782609 Q 9.078260869565229 13.339130434782609 9.060869565217404 13.321739130434782 Q 9.043478260869579 13.304347826086955 9.026086956521752 13.304347826086955 Q 9.008695652173925 13.304347826086955 8.9913043478261 13.304347826086955 Q 8.973913043478275 13.304347826086955 8.956521739130448 13.304347826086955 Q 8.939130434782621 13.304347826086955 8.921739130434796 13.304347826086955 Q 8.90434782608697 13.304347826086955 8.886956521739144 13.304347826086955 Q 8.869565217391317 13.304347826086955 8.852173913043492 13.304347826086955 Q 8.834782608695667 13.304347826086955 8.834782608695667 13.28695652173913 Q 8.834782608695667 13.269565217391305 8.81739130434784 13.269565217391305 Q 8.800000000000013 13.269565217391305 8.782608695652188 13.269565217391305 Q 8.765217391304363 13.269565217391305 8.765217391304363 13.252173913043478 Q 8.765217391304363 13.234782608695651 8.747826086956536 13.234782608695651 Q 8.73043478260871 13.234782608695651 8.713043478260882 13.217391304347826 Q 8.695652173913055 13.200000000000001 8.67826086956523 13.200000000000001 Q 8.660869565217405 13.200000000000001 8.660869565217405 13.182608695652174 Q 8.660869565217405 13.165217391304347 8.643478260869578 13.165217391304347 Q 8.626086956521752 13.165217391304347 8.626086956521752 13.147826086956522 Q 8.626086956521752 13.130434782608697 8.608695652173926 13.130434782608697 Q 8.591304347826101 13.130434782608697 8.591304347826101 13.11304347826087 Q 8.591304347826101 13.095652173913043 8.573913043478274 13.095652173913043 Q 8.556521739130448 13.095652173913043 8.556521739130448 13.078260869565216 Q 8.556521739130448 13.06086956521739 8.539130434782622 13.06086956521739 Q 8.521739130434797 13.06086956521739 8.521739130434797 13.043478260869565 Q 8.521739130434797 13.02608695652174 8.50434782608697 13.02608695652174 Q 8.486956521739144 13.02608695652174 8.469565217391319 13.02608695652174 Q 8.452173913043493 13.02608695652174 8.452173913043493 13.008695652173913 Q 8.452173913043493 12.991304347826086 8.452173913043493 12.97391304347826 Q 8.452173913043493 12.956521739130435 8.434782608695667 12.956521739130435 Q 8.41739130434784 12.956521739130435 8.41739130434784 12.939130434782609 Q 8.41739130434784 12.921739130434782 8.400000000000013 12.921739130434782 Q 8.382608695652186 12.921739130434782 8.36521739130436 12.904347826086957 Q 8.347826086956536 12.886956521739132 8.330434782608709 12.869565217391305 Q 8.313043478260882 12.852173913043478 8.295652173913057 12.852173913043478 Q 8.278260869565232 12.852173913043478 8.260869565217405 12.852173913043478 Q 8.243478260869578 12.852173913043478 8.243478260869578 12.834782608695653 Q 8.243478260869578 12.817391304347828 8.226086956521753 12.817391304347828 Q 8.208695652173928 12.817391304347828 8.208695652173928 12.8 Q 8.208695652173928 12.782608695652174 8.191304347826101 12.782608695652174 Q 8.173913043478274 12.782608695652174 8.156521739130449 12.765217391304347 Q 8.139130434782624 12.74782608695652 8.121739130434797 12.74782608695652 Q 8.10434782608697 12.74782608695652 8.10434782608697 12.730434782608695 Q 8.10434782608697 12.71304347826087 8.086956521739143 12.71304347826087 Q 8.069565217391316 12.71304347826087 8.069565217391316 12.695652173913043 Q 8.069565217391316 12.678260869565216 8.052173913043491 12.678260869565216 Q 8.034782608695666 12.678260869565216 8.034782608695666 12.660869565217391 Q 8.034782608695666 12.643478260869566 8.01739130434784 12.643478260869566 Q 8.000000000000012 12.643478260869566 8.000000000000012 12.626086956521739 Q 8.000000000000012 12.608695652173912 7.982608695652187 12.608695652173912 Q 7.965217391304362 12.608695652173912 7.965217391304362 12.591304347826087 Q 7.965217391304362 12.573913043478262 7.947826086956535 12.573913043478262 Q 7.9304347826087085 12.573913043478262 7.9304347826087085 12.556521739130435 Q 7.9304347826087085 12.539130434782608 7.913043478260883 12.539130434782608 Q 7.895652173913058 12.539130434782608 7.895652173913058 12.521739130434783 Q 7.895652173913058 12.504347826086958 7.878260869565231 12.504347826086958 Q 7.8608695652174045 12.504347826086958 7.8608695652174045 12.486956521739131 Q 7.8608695652174045 12.469565217391304 7.843478260869579 12.452173913043477 Q 7.826086956521754 12.43478260869565 7.826086956521754 12.417391304347825 Q 7.826086956521754 12.4 7.8086956521739275 12.4 Q 7.791304347826101 12.4 7.791304347826101 12.382608695652173 Q 7.791304347826101 12.365217391304347 7.773913043478274 12.365217391304347 Q 7.756521739130447 12.365217391304347 7.756521739130447 12.347826086956522 Q 7.756521739130447 12.330434782608696 7.756521739130447 12.31304347826087 Q 7.756521739130447 12.295652173913043 7.739130434782622 12.295652173913043 Q 7.721739130434797 12.295652173913043 7.721739130434797 12.278260869565218 Q 7.721739130434797 12.260869565217392 7.70434782608697 12.243478260869566 Q 7.686956521739143 12.226086956521739 7.686956521739143 12.208695652173912 Q 7.686956521739143 12.191304347826087 7.669565217391318 12.191304347826087 Q 7.652173913043493 12.191304347826087 7.652173913043493 12.173913043478262 Q 7.652173913043493 12.156521739130435 7.634782608695666 12.156521739130435 Q 7.617391304347839 12.156521739130435 7.617391304347839 12.139130434782608 Q 7.617391304347839 12.121739130434783 7.600000000000014 12.121739130434783 Q 7.582608695652189 12.121739130434783 7.582608695652189 12.104347826086958 Q 7.582608695652189 12.08695652173913 7.565217391304362 12.069565217391304 Q 7.547826086956535 12.052173913043479 7.53043478260871 12.052173913043479 Q 7.513043478260885 12.052173913043479 7.513043478260885 12.034782608695654 Q 7.513043478260885 12.017391304347827 7.495652173913058 12.017391304347827 Q 7.478260869565231 12.017391304347827 7.478260869565231 12 Q 7.478260869565231 11.982608695652175 7.478260869565231 11.965217391304348 Q 7.478260869565231 11.947826086956521 7.460869565217404 11.947826086956521 Q 7.443478260869577 11.947826086956521 7.443478260869577 11.930434782608696 Q 7.443478260869577 11.91304347826087 7.443478260869577 11.895652173913042 Q 7.443478260869577 11.878260869565217 7.443478260869577 11.860869565217392 Q 7.443478260869577 11.843478260869565 7.443478260869577 11.826086956521738 Q 7.443478260869577 11.808695652173913 7.426086956521752 11.808695652173913 Q 7.408695652173927 11.808695652173913 7.408695652173927 11.791304347826088 Q 7.408695652173927 11.773913043478261 7.408695652173927 11.756521739130434 Q 7.408695652173927 11.73913043478261 7.408695652173927 11.721739130434784 Q 7.408695652173927 11.704347826086957 7.3913043478261 11.704347826086957 Q 7.373913043478273 11.704347826086957 7.373913043478273 11.68695652173913 Q 7.373913043478273 11.669565217391305 7.373913043478273 11.652173913043478 Q 7.373913043478273 11.634782608695652 7.356521739130448 11.634782608695652 Q 7.339130434782623 11.634782608695652 7.339130434782623 11.617391304347827 Q 7.339130434782623 11.6 7.339130434782623 11.582608695652173 Q 7.339130434782623 11.565217391304348 7.321739130434796 11.565217391304348 Q 7.304347826086969 11.565217391304348 7.304347826086969 11.547826086956523 Q 7.304347826086969 11.530434782608696 7.304347826086969 11.513043478260869 Q 7.304347826086969 11.495652173913044 7.304347826086969 11.478260869565219 Q 7.304347826086969 11.460869565217392 7.286956521739144 11.460869565217392 Q 7.269565217391319 11.460869565217392 7.269565217391319 11.443478260869565 Q 7.269565217391319 11.42608695652174 7.269565217391319 11.408695652173915 Q 7.269565217391319 11.391304347826088 7.269565217391319 11.373913043478261 Q 7.269565217391319 11.356521739130436 7.269565217391319 11.339130434782609 Q 7.269565217391319 11.321739130434782 7.269565217391319 11.304347826086957 Q 7.269565217391319 11.28695652173913 7.269565217391319 11.269565217391303 Q 7.269565217391319 11.252173913043478 7.252173913043492 11.252173913043478 Q 7.2347826086956655 11.252173913043478 7.2347826086956655 11.234782608695653 Q 7.2347826086956655 11.217391304347826 7.2347826086956655 11.2 Q 7.2347826086956655 11.182608695652174 7.2347826086956655 11.165217391304349 Q 7.2347826086956655 11.147826086956522 7.21739130434784 11.147826086956522 Q 7.200000000000015 11.147826086956522 7.200000000000015 11.130434782608695 Q 7.200000000000015 11.11304347826087 7.200000000000015 11.095652173913045 Q 7.200000000000015 11.078260869565218 7.200000000000015 11.060869565217391 Q 7.200000000000015 11.043478260869566 7.182608695652188 11.043478260869566 Q 7.1652173913043615 11.043478260869566 7.1652173913043615 11.02608695652174 Q 7.1652173913043615 11.008695652173913 7.1652173913043615 10.991304347826087 Q 7.1652173913043615 10.97391304347826 7.1652173913043615 10.956521739130434 Q 7.1652173913043615 10.939130434782609 7.1652173913043615 10.921739130434784 Q 7.1652173913043615 10.904347826086957 7.147826086956535 10.904347826086957 Q 7.130434782608708 10.904347826086957 7.130434782608708 10.88695652173913 Q 7.130434782608708 10.869565217391305 7.130434782608708 10.85217391304348 Q 7.130434782608708 10.834782608695653 7.130434782608708 10.817391304347826 Q 7.130434782608708 10.8 7.130434782608708 10.782608695652176 Q 7.130434782608708 10.765217391304349 7.130434782608708 10.747826086956522 Q 7.130434782608708 10.730434782608697 7.130434782608708 10.713043478260872 Q 7.130434782608708 10.695652173913045 7.130434782608708 10.678260869565218 Q 7.130434782608708 10.660869565217391 7.130434782608708 10.643478260869564 Q 7.130434782608708 10.626086956521739 7.130434782608708 10.608695652173914 Q 7.130434782608708 10.591304347826087 7.130434782608708 10.57391304347826 Q 7.130434782608708 10.556521739130435 7.130434782608708 10.53913043478261 Q 7.130434782608708 10.521739130434783 7.113043478260883 10.521739130434783 Q 7.095652173913058 10.521739130434783 7.095652173913058 10.504347826086956 Q 7.095652173913058 10.486956521739131 7.095652173913058 10.469565217391306 Q 7.095652173913058 10.45217391304348 7.095652173913058 10.434782608695652 Q 7.095652173913058 10.417391304347827 7.078260869565231 10.417391304347827 Q 7.060869565217404 10.417391304347827 7.060869565217404 10.400000000000002 Q 7.060869565217404 10.382608695652175 7.060869565217404 10.347826086956523 L 7.060869565217404 10.31204347826087" stroke-linecap="round" />
</g>
<g transform="matrix(1 0 0 1 8.5 8.57)" id="iR8TsYvo8vSPLxLKjqbQP"  >
<path style="stroke: rgb(0,0,0); stroke-width: 1; stroke-dasharray: none; stroke-linecap: round; stroke-dashoffset: 0; stroke-linejoin: round; stroke-miterlimit: 10; fill: none; fill-rule: nonzero; opacity: 1;" vector-effect="non-scaling-stroke"  transform=" translate(-8.5, -8.57)" d="M 9.914043478260883 6.591304347826089 Q 9.913043478260883 6.591304347826089 9.895652173913057 6.591304347826089 Q 9.87826086956523 6.591304347826089 9.860869565217405 6.591304347826089 Q 9.84347826086958 6.591304347826089 9.826086956521753 6.591304347826089 Q 9.808695652173926 6.591304347826089 9.7913043478261 6.591304347826089 Q 9.773913043478275 6.591304347826089 9.773913043478275 6.573913043478262 Q 9.773913043478275 6.556521739130435 9.756521739130449 6.556521739130435 Q 9.739130434782622 6.556521739130435 9.721739130434795 6.556521739130435 Q 9.704347826086968 6.556521739130435 9.686956521739143 6.556521739130435 Q 9.669565217391318 6.556521739130435 9.652173913043491 6.556521739130435 Q 9.634782608695664 6.556521739130435 9.617391304347839 6.556521739130435 Q 9.600000000000014 6.556521739130435 9.582608695652187 6.556521739130435 Q 9.56521739130436 6.556521739130435 9.547826086956535 6.556521739130435 Q 9.53043478260871 6.556521739130435 9.513043478260883 6.556521739130435 Q 9.495652173913056 6.556521739130435 9.478260869565231 6.556521739130435 Q 9.460869565217406 6.556521739130435 9.443478260869579 6.556521739130435 Q 9.426086956521752 6.556521739130435 9.408695652173925 6.556521739130435 Q 9.391304347826098 6.556521739130435 9.391304347826098 6.573913043478262 Q 9.391304347826098 6.591304347826089 9.373913043478273 6.591304347826089 Q 9.356521739130448 6.591304347826089 9.339130434782621 6.591304347826089 Q 9.321739130434795 6.591304347826089 9.30434782608697 6.591304347826089 Q 9.286956521739144 6.591304347826089 9.286956521739144 6.608695652173915 Q 9.286956521739144 6.626086956521741 9.269565217391317 6.626086956521741 Q 9.25217391304349 6.626086956521741 9.234782608695665 6.626086956521741 Q 9.21739130434784 6.626086956521741 9.200000000000014 6.626086956521741 Q 9.182608695652187 6.626086956521741 9.165217391304362 6.626086956521741 Q 9.147826086956536 6.626086956521741 9.13043478260871 6.626086956521741 Q 9.113043478260883 6.626086956521741 9.113043478260883 6.643478260869567 Q 9.113043478260883 6.660869565217393 9.095652173913056 6.660869565217393 Q 9.078260869565229 6.660869565217393 9.060869565217404 6.660869565217393 Q 9.043478260869579 6.660869565217393 9.026086956521752 6.660869565217393 Q 9.008695652173925 6.660869565217393 8.9913043478261 6.660869565217393 Q 8.973913043478275 6.660869565217393 8.956521739130448 6.660869565217393 Q 8.939130434782621 6.660869565217393 8.939130434782621 6.678260869565219 Q 8.939130434782621 6.695652173913045 8.921739130434796 6.695652173913045 Q 8.90434782608697 6.695652173913045 8.886956521739144 6.695652173913045 Q 8.869565217391317 6.695652173913045 8.869565217391317 6.713043478260871 Q 8.869565217391317 6.730434782608697 8.852173913043492 6.730434782608697 Q 8.834782608695667 6.730434782608697 8.81739130434784 6.730434782608697 Q 8.800000000000013 6.730434782608697 8.800000000000013 6.747826086956523 Q 8.800000000000013 6.765217391304349 8.782608695652188 6.765217391304349 Q 8.765217391304363 6.765217391304349 8.747826086956536 6.765217391304349 Q 8.73043478260871 6.765217391304349 8.73043478260871 6.782608695652175 Q 8.73043478260871 6.800000000000001 8.713043478260882 6.800000000000001 Q 8.695652173913055 6.800000000000001 8.67826086956523 6.800000000000001 Q 8.660869565217405 6.800000000000001 8.660869565217405 6.817391304347827 Q 8.660869565217405 6.834782608695653 8.643478260869578 6.834782608695653 Q 8.626086956521752 6.834782608695653 8.608695652173926 6.834782608695653 Q 8.591304347826101 6.834782608695653 8.591304347826101 6.852173913043479 Q 8.591304347826101 6.869565217391305 8.573913043478274 6.869565217391305 Q 8.556521739130448 6.869565217391305 8.539130434782622 6.869565217391305 Q 8.521739130434797 6.869565217391305 8.521739130434797 6.8869565217391315 Q 8.521739130434797 6.904347826086958 8.50434782608697 6.904347826086958 Q 8.486956521739144 6.904347826086958 8.469565217391319 6.904347826086958 Q 8.452173913043493 6.904347826086958 8.452173913043493 6.921739130434784 Q 8.452173913043493 6.93913043478261 8.434782608695667 6.93913043478261 Q 8.41739130434784 6.93913043478261 8.400000000000013 6.956521739130436 Q 8.382608695652186 6.973913043478262 8.36521739130436 6.973913043478262 Q 8.347826086956536 6.973913043478262 8.347826086956536 6.991304347826088 Q 8.347826086956536 7.008695652173914 8.330434782608709 7.008695652173914 Q 8.313043478260882 7.008695652173914 8.295652173913057 7.008695652173914 Q 8.278260869565232 7.008695652173914 8.278260869565232 7.02608695652174 Q 8.278260869565232 7.043478260869566 8.260869565217405 7.043478260869566 Q 8.243478260869578 7.043478260869566 8.243478260869578 7.060869565217392 Q 8.243478260869578 7.078260869565218 8.226086956521753 7.078260869565218 Q 8.208695652173928 7.078260869565218 8.208695652173928 7.095652173913044 Q 8.208695652173928 7.11304347826087 8.191304347826101 7.11304347826087 Q 8.173913043478274 7.11304347826087 8.173913043478274 7.130434782608696 Q 8.173913043478274 7.147826086956522 8.156521739130449 7.147826086956522 Q 8.139130434782624 7.147826086956522 8.139130434782624 7.165217391304348 Q 8.139130434782624 7.182608695652174 8.121739130434797 7.200000000000001 Q 8.10434782608697 7.217391304347828 8.086956521739143 7.217391304347828 Q 8.069565217391316 7.217391304347828 8.069565217391316 7.234782608695654 Q 8.069565217391316 7.25217391304348 8.052173913043491 7.25217391304348 Q 8.034782608695666 7.25217391304348 8.034782608695666 7.269565217391306 Q 8.034782608695666 7.286956521739132 8.01739130434784 7.286956521739132 Q 8.000000000000012 7.286956521739132 8.000000000000012 7.304347826086958 Q 8.000000000000012 7.321739130434784 7.982608695652187 7.321739130434784 Q 7.965217391304362 7.321739130434784 7.947826086956535 7.33913043478261 Q 7.9304347826087085 7.356521739130436 7.913043478260883 7.356521739130436 Q 7.895652173913058 7.356521739130436 7.895652173913058 7.373913043478262 Q 7.895652173913058 7.391304347826088 7.878260869565231 7.391304347826088 Q 7.8608695652174045 7.391304347826088 7.8608695652174045 7.408695652173914 Q 7.8608695652174045 7.42608695652174 7.843478260869579 7.443478260869566 Q 7.826086956521754 7.460869565217392 7.8086956521739275 7.460869565217392 Q 7.791304347826101 7.460869565217392 7.791304347826101 7.478260869565218 Q 7.791304347826101 7.495652173913044 7.791304347826101 7.513043478260871 Q 7.791304347826101 7.5304347826086975 7.773913043478274 7.5304347826086975 Q 7.756521739130447 7.5304347826086975 7.756521739130447 7.5478260869565235 Q 7.756521739130447 7.5652173913043494 7.739130434782622 7.5652173913043494 Q 7.721739130434797 7.5652173913043494 7.721739130434797 7.582608695652175 Q 7.721739130434797 7.600000000000001 7.70434782608697 7.617391304347827 Q 7.686956521739143 7.634782608695653 7.686956521739143 7.652173913043479 Q 7.686956521739143 7.669565217391305 7.669565217391318 7.669565217391305 Q 7.652173913043493 7.669565217391305 7.652173913043493 7.686956521739131 Q 7.652173913043493 7.704347826086957 7.634782608695666 7.704347826086957 Q 7.617391304347839 7.704347826086957 7.617391304347839 7.721739130434783 Q 7.617391304347839 7.739130434782609 7.600000000000014 7.739130434782609 Q 7.582608695652189 7.739130434782609 7.582608695652189 7.756521739130435 Q 7.582608695652189 7.773913043478261 7.582608695652189 7.791304347826087 Q 7.582608695652189 7.808695652173913 7.565217391304362 7.808695652173913 Q 7.547826086956535 7.808695652173913 7.547826086956535 7.82608695652174 Q 7.547826086956535 7.843478260869567 7.53043478260871 7.843478260869567 Q 7.513043478260885 7.843478260869567 7.513043478260885 7.860869565217393 Q 7.513043478260885 7.878260869565219 7.513043478260885 7.895652173913045 Q 7.513043478260885 7.913043478260871 7.495652173913058 7.913043478260871 Q 7.478260869565231 7.913043478260871 7.478260869565231 7.930434782608697 Q 7.478260869565231 7.947826086956523 7.478260869565231 7.965217391304349 Q 7.478260869565231 7.982608695652175 7.478260869565231 8 Q 7.478260869565231 8.017391304347827 7.478260869565231 8.034782608695654 Q 7.478260869565231 8.052173913043479 7.478260869565231 8.069565217391304 Q 7.478260869565231 8.08695652173913 7.478260869565231 8.104347826086958 Q 7.478260869565231 8.121739130434783 7.460869565217404 8.121739130434783 Q 7.443478260869577 8.121739130434783 7.443478260869577 8.13913043478261 Q 7.443478260869577 8.156521739130437 7.443478260869577 8.173913043478262 Q 7.443478260869577 8.191304347826089 7.443478260869577 8.208695652173915 Q 7.443478260869577 8.22608695652174 7.426086956521752 8.22608695652174 Q 7.408695652173927 8.22608695652174 7.408695652173927 8.243478260869566 Q 7.408695652173927 8.260869565217392 7.408695652173927 8.27826086956522 Q 7.408695652173927 8.295652173913044 7.408695652173927 8.31304347826087 Q 7.408695652173927 8.330434782608696 7.408695652173927 8.347826086956523 Q 7.408695652173927 8.365217391304348 7.3913043478261 8.365217391304348 Q 7.373913043478273 8.365217391304348 7.373913043478273 8.382608695652173 Q 7.373913043478273 8.4 7.373913043478273 8.417391304347827 Q 7.373913043478273 8.434782608695652 7.373913043478273 8.452173913043477 Q 7.373913043478273 8.469565217391304 7.356521739130448 8.469565217391304 Q 7.339130434782623 8.469565217391304 7.339130434782623 8.486956521739131 Q 7.339130434782623 8.504347826086958 7.339130434782623 8.521739130434785 Q 7.339130434782623 8.53913043478261 7.321739130434796 8.53913043478261 Q 7.304347826086969 8.53913043478261 7.304347826086969 8.556521739130435 Q 7.304347826086969 8.573913043478262 7.304347826086969 8.591304347826089 Q 7.304347826086969 8.608695652173914 7.304347826086969 8.626086956521739 Q 7.304347826086969 8.643478260869566 7.286956521739144 8.643478260869566 Q 7.269565217391319 8.643478260869566 7.269565217391319 8.660869565217393 Q 7.269565217391319 8.678260869565218 7.269565217391319 8.695652173913043 Q 7.269565217391319 8.71304347826087 7.269565217391319 8.730434782608697 Q 7.269565217391319 8.747826086956522 7.252173913043492 8.747826086956522 Q 7.2347826086956655 8.747826086956522 7.2347826086956655 8.765217391304347 Q 7.2347826086956655 8.782608695652174 7.2347826086956655 8.8 Q 7.2347826086956655 8.817391304347828 7.2347826086956655 8.834782608695654 Q 7.2347826086956655 8.85217391304348 7.2347826086956655 8.869565217391305 Q 7.2347826086956655 8.886956521739132 7.21739130434784 8.904347826086958 Q 7.200000000000015 8.921739130434784 7.200000000000015 8.939130434782609 Q 7.200000000000015 8.956521739130435 7.200000000000015 8.973913043478262 Q 7.200000000000015 8.991304347826087 7.200000000000015 9.008695652173913 Q 7.200000000000015 9.02608695652174 7.182608695652188 9.02608695652174 Q 7.1652173913043615 9.02608695652174 7.1652173913043615 9.043478260869566 Q 7.1652173913043615 9.060869565217391 7.1652173913043615 9.078260869565216 Q 7.1652173913043615 9.095652173913043 7.147826086956535 9.095652173913043 Q 7.130434782608708 9.095652173913043 7.130434782608708 9.11304347826087 Q 7.130434782608708 9.130434782608697 7.130434782608708 9.147826086956524 Q 7.130434782608708 9.165217391304349 7.130434782608708 9.182608695652174 Q 7.130434782608708 9.200000000000001 7.130434782608708 9.217391304347828 Q 7.130434782608708 9.234782608695653 7.130434782608708 9.252173913043478 Q 7.130434782608708 9.269565217391305 7.130434782608708 9.286956521739132 Q 7.130434782608708 9.304347826086957 7.130434782608708 9.321739130434782 Q 7.130434782608708 9.339130434782609 7.113043478260883 9.339130434782609 Q 7.095652173913058 9.339130434782609 7.095652173913058 9.356521739130436 Q 7.095652173913058 9.373913043478261 7.095652173913058 9.391304347826086 Q 7.095652173913058 9.408695652173913 7.095652173913058 9.42608695652174 Q 7.095652173913058 9.443478260869567 7.095652173913058 9.460869565217394 Q 7.095652173913058 9.478260869565219 7.095652173913058 9.495652173913044 Q 7.095652173913058 9.51304347826087 7.095652173913058 9.530434782608697 Q 7.095652173913058 9.547826086956523 7.095652173913058 9.565217391304348 Q 7.095652173913058 9.582608695652175 7.095652173913058 9.600000000000001 Q 7.095652173913058 9.617391304347827 7.095652173913058 9.634782608695652 Q 7.095652173913058 9.652173913043478 7.095652173913058 9.669565217391305 Q 7.095652173913058 9.68695652173913 7.095652173913058 9.704347826086956 Q 7.095652173913058 9.721739130434782 7.095652173913058 9.73913043478261 Q 7.095652173913058 9.756521739130436 7.095652173913058 9.773913043478263 Q 7.095652173913058 9.791304347826088 7.095652173913058 9.808695652173913 Q 7.095652173913058 9.82608695652174 7.095652173913058 9.843478260869567 Q 7.095652173913058 9.860869565217392 7.095652173913058 9.878260869565217 Q 7.095652173913058 9.895652173913044 7.095652173913058 9.913043478260871 Q 7.095652173913058 9.930434782608696 7.095652173913058 9.947826086956521 Q 7.095652173913058 9.965217391304348 7.095652173913058 9.982608695652175 Q 7.095652173913058 10 7.095652173913058 10.017391304347825 Q 7.095652173913058 10.034782608695652 7.095652173913058 10.052173913043479 Q 7.095652173913058 10.069565217391306 7.095652173913058 10.086956521739133 Q 7.095652173913058 10.104347826086958 7.095652173913058 10.121739130434783 Q 7.095652173913058 10.13913043478261 7.113043478260883 10.13913043478261 Q 7.130434782608708 10.13913043478261 7.130434782608708 10.156521739130437 Q 7.130434782608708 10.173913043478262 7.130434782608708 10.191304347826087 Q 7.130434782608708 10.208695652173914 7.130434782608708 10.22608695652174 Q 7.130434782608708 10.243478260869566 7.130434782608708 10.26086956521739 Q 7.130434782608708 10.278260869565218 7.130434782608708 10.295652173913044 Q 7.130434782608708 10.31304347826087 7.130434782608708 10.330434782608695 Q 7.130434782608708 10.347826086956522 7.130434782608708 10.365217391304348 Q 7.130434782608708 10.382608695652175 7.147826086956535 10.382608695652175 Q 7.1652173913043615 10.382608695652175 7.1652173913043615 10.400000000000002 Q 7.1652173913043615 10.417391304347827 7.1652173913043615 10.434782608695652 Q 7.1652173913043615 10.45217391304348 7.1652173913043615 10.469565217391306 Q 7.1652173913043615 10.486956521739131 7.1652173913043615 10.504347826086956 Q 7.1652173913043615 10.521739130434783 7.1652173913043615 10.53913043478261 Q 7.1652173913043615 10.556521739130435 7.147826086956535 10.556521739130435 Q 7.130434782608708 10.556521739130435 7.113043478260883 10.57391304347826 L 7.094652173913057 10.592304347826087" stroke-linecap="round" />
</g>
</svg>