<?xml version="1.0" encoding="UTF-8" standalone="no" ?>
<!DOCTYPE svg PUBLIC "-//W3C//DTD SVG 1.1//EN" "http://www.w3.org/Graphics/SVG/1.1/DTD/svg11.dtd">
<svg xmlns="http://www.w3.org/2000/svg" xmlns:xlink="http://www.w3.org/1999/xlink" version="1.1" width="640" height="640" viewBox="0 0 640 640" xml:space="preserve">
<desc>Created with Fabric.js 4.6.0</desc>
<defs>
</defs>
<g transform="matrix(7.51 0 0 7.51 320.4 319.96)" id="wj0FLv8LT5Kk_ZHKWXIsZ"  >
<path style="stroke: rgb(199,207,238); stroke-width: 0; stroke-dasharray: none; stroke-linecap: butt; stroke-dashoffset: 0; stroke-linejoin: miter; stroke-miterlimit: 4; fill: rgb(200,143,25); fill-rule: nonzero; opacity: 1;" vector-effect="non-scaling-stroke"  transform=" translate(0, 0)" d="M -42.55319 -42.55319 L 42.55319 -42.55319 L 42.55319 42.55319 L -42.55319 42.55319 z" stroke-linecap="round" />
</g>
<g transform="matrix(1.29 0 0 0.64 162.73 35.09)" id="GnM1NipyWXiQz05r_7NPr"  >
<path style="stroke: rgb(194,100,17); stroke-opacity: 0; stroke-width: 0; stroke-dasharray: none; stroke-linecap: butt; stroke-dashoffset: 0; stroke-linejoin: miter; stroke-miterlimit: 4; fill: rgb(214,171,47); fill-rule: nonzero; opacity: 1;" vector-effect="non-scaling-stroke"  transform=" translate(0, 0)" d="M -42.55319 -42.55319 L 42.55319 -42.55319 L 42.55319 42.55319 L -42.55319 42.55319 z" stroke-linecap="round" />
</g>
<g transform="matrix(1.29 0 0 0.64 292.19 35.09)" id="bGgdPsw6_899O2OJRa9Nf"  >
<path style="stroke: rgb(194,100,17); stroke-opacity: 0; stroke-width: 0; stroke-dasharray: none; stroke-linecap: butt; stroke-dashoffset: 0; stroke-linejoin: miter; stroke-miterlimit: 4; fill: rgb(214,171,47); fill-rule: nonzero; opacity: 1;" vector-effect="non-scaling-stroke"  transform=" translate(0, 0)" d="M -42.55319 -42.55319 L 42.55319 -42.55319 L 42.55319 42.55319 L -42.55319 42.55319 z" stroke-linecap="round" />
</g>
<g transform="matrix(1.29 0 0 0.64 32.45 35.09)" id="rcTxzPqFo-dIvPDYpnI47"  >
<path style="stroke: rgb(194,100,17); stroke-opacity: 0; stroke-width: 0; stroke-dasharray: none; stroke-linecap: butt; stroke-dashoffset: 0; stroke-linejoin: miter; stroke-miterlimit: 4; fill: rgb(214,171,47); fill-rule: nonzero; opacity: 1;" vector-effect="non-scaling-stroke"  transform=" translate(0, 0)" d="M -42.55319 -42.55319 L 42.55319 -42.55319 L 42.55319 42.55319 L -42.55319 42.55319 z" stroke-linecap="round" />
</g>
<g transform="matrix(1.29 0 0 0.64 -33.93 106.51)" id="6bHZfxLDvNScvCrVuWkA1"  >
<path style="stroke: rgb(194,100,17); stroke-opacity: 0; stroke-width: 0; stroke-dasharray: none; stroke-linecap: butt; stroke-dashoffset: 0; stroke-linejoin: miter; stroke-miterlimit: 4; fill: rgb(214,171,47); fill-rule: nonzero; opacity: 1;" vector-effect="non-scaling-stroke"  transform=" translate(0, 0)" d="M -42.55319 -42.55319 L 42.55319 -42.55319 L 42.55319 42.55319 L -42.55319 42.55319 z" stroke-linecap="round" />
</g>
<g transform="matrix(1.29 0 0 0.64 94.69 106.51)" id="1etC9M_NbGjhQb5xEhyqI"  >
<path style="stroke: rgb(194,100,17); stroke-opacity: 0; stroke-width: 0; stroke-dasharray: none; stroke-linecap: butt; stroke-dashoffset: 0; stroke-linejoin: miter; stroke-miterlimit: 4; fill: rgb(214,171,47); fill-rule: nonzero; opacity: 1;" vector-effect="non-scaling-stroke"  transform=" translate(0, 0)" d="M -42.55319 -42.55319 L 42.55319 -42.55319 L 42.55319 42.55319 L -42.55319 42.55319 z" stroke-linecap="round" />
</g>
<g transform="matrix(1.29 0 0 0.64 223.32 106.51)" id="YNXnfO_PgvqgnyZA3qItZ"  >
<path style="stroke: rgb(194,100,17); stroke-opacity: 0; stroke-width: 0; stroke-dasharray: none; stroke-linecap: butt; stroke-dashoffset: 0; stroke-linejoin: miter; stroke-miterlimit: 4; fill: rgb(214,171,47); fill-rule: nonzero; opacity: 1;" vector-effect="non-scaling-stroke"  transform=" translate(0, 0)" d="M -42.55319 -42.55319 L 42.55319 -42.55319 L 42.55319 42.55319 L -42.55319 42.55319 z" stroke-linecap="round" />
</g>
<g transform="matrix(1.29 0 0 0.64 162.72 176.28)" id="-QW5FCPFmGf2usp6Gi0He"  >
<path style="stroke: rgb(194,100,17); stroke-opacity: 0; stroke-width: 0; stroke-dasharray: none; stroke-linecap: butt; stroke-dashoffset: 0; stroke-linejoin: miter; stroke-miterlimit: 4; fill: rgb(214,171,47); fill-rule: nonzero; opacity: 1;" vector-effect="non-scaling-stroke"  transform=" translate(0, 0)" d="M -42.55319 -42.55319 L 42.55319 -42.55319 L 42.55319 42.55319 L -42.55319 42.55319 z" stroke-linecap="round" />
</g>
<g transform="matrix(1.29 0 0 0.64 292.19 176.28)" id="8UHRaiz-qCPa-bn9S9-O7"  >
<path style="stroke: rgb(194,100,17); stroke-opacity: 0; stroke-width: 0; stroke-dasharray: none; stroke-linecap: butt; stroke-dashoffset: 0; stroke-linejoin: miter; stroke-miterlimit: 4; fill: rgb(214,171,47); fill-rule: nonzero; opacity: 1;" vector-effect="non-scaling-stroke"  transform=" translate(0, 0)" d="M -42.55319 -42.55319 L 42.55319 -42.55319 L 42.55319 42.55319 L -42.55319 42.55319 z" stroke-linecap="round" />
</g>
<g transform="matrix(1.29 0 0 0.64 32.45 176.28)" id="0zbChqqZXkJYJUNs_V4Ld"  >
<path style="stroke: rgb(194,100,17); stroke-opacity: 0; stroke-width: 0; stroke-dasharray: none; stroke-linecap: butt; stroke-dashoffset: 0; stroke-linejoin: miter; stroke-miterlimit: 4; fill: rgb(214,171,47); fill-rule: nonzero; opacity: 1;" vector-effect="non-scaling-stroke"  transform=" translate(0, 0)" d="M -42.55319 -42.55319 L 42.55319 -42.55319 L 42.55319 42.55319 L -42.55319 42.55319 z" stroke-linecap="round" />
</g>
<g transform="matrix(1.29 0 0 0.65 548.75 35.21)" id="NrRCUPiW0om3MCjLVsD25"  >
<path style="stroke: rgb(194,100,17); stroke-opacity: 0; stroke-width: 0; stroke-dasharray: none; stroke-linecap: butt; stroke-dashoffset: 0; stroke-linejoin: miter; stroke-miterlimit: 4; fill: rgb(214,171,47); fill-rule: nonzero; opacity: 1;" vector-effect="non-scaling-stroke"  transform=" translate(0, 0)" d="M -42.55319 -42.55319 L 42.55319 -42.55319 L 42.55319 42.55319 L -42.55319 42.55319 z" stroke-linecap="round" />
</g>
<g transform="matrix(1.29 0 0 0.65 678.22 35.21)" id="0TYWqCAOSaTPNlvBolNVd"  >
<path style="stroke: rgb(194,100,17); stroke-opacity: 0; stroke-width: 0; stroke-dasharray: none; stroke-linecap: butt; stroke-dashoffset: 0; stroke-linejoin: miter; stroke-miterlimit: 4; fill: rgb(214,171,47); fill-rule: nonzero; opacity: 1;" vector-effect="non-scaling-stroke"  transform=" translate(0, 0)" d="M -42.55319 -42.55319 L 42.55319 -42.55319 L 42.55319 42.55319 L -42.55319 42.55319 z" stroke-linecap="round" />
</g>
<g transform="matrix(1.29 0 0 0.65 418.48 35.21)" id="zngnR9E76i5DWex9O3mqc"  >
<path style="stroke: rgb(194,100,17); stroke-opacity: 0; stroke-width: 0; stroke-dasharray: none; stroke-linecap: butt; stroke-dashoffset: 0; stroke-linejoin: miter; stroke-miterlimit: 4; fill: rgb(214,171,47); fill-rule: nonzero; opacity: 1;" vector-effect="non-scaling-stroke"  transform=" translate(0, 0)" d="M -42.55319 -42.55319 L 42.55319 -42.55319 L 42.55319 42.55319 L -42.55319 42.55319 z" stroke-linecap="round" />
</g>
<g transform="matrix(1.29 0 0 0.65 352.11 106.63)" id="Y3rRxsJYrJnBe9B1MmHIZ"  >
<path style="stroke: rgb(194,100,17); stroke-opacity: 0; stroke-width: 0; stroke-dasharray: none; stroke-linecap: butt; stroke-dashoffset: 0; stroke-linejoin: miter; stroke-miterlimit: 4; fill: rgb(214,171,47); fill-rule: nonzero; opacity: 1;" vector-effect="non-scaling-stroke"  transform=" translate(0, 0)" d="M -42.55319 -42.55319 L 42.55319 -42.55319 L 42.55319 42.55319 L -42.55319 42.55319 z" stroke-linecap="round" />
</g>
<g transform="matrix(1.29 0 0 0.65 480.72 106.63)" id="bBBoFUFutKCONyei4Muyl"  >
<path style="stroke: rgb(194,100,17); stroke-opacity: 0; stroke-width: 0; stroke-dasharray: none; stroke-linecap: butt; stroke-dashoffset: 0; stroke-linejoin: miter; stroke-miterlimit: 4; fill: rgb(214,171,47); fill-rule: nonzero; opacity: 1;" vector-effect="non-scaling-stroke"  transform=" translate(0, 0)" d="M -42.55319 -42.55319 L 42.55319 -42.55319 L 42.55319 42.55319 L -42.55319 42.55319 z" stroke-linecap="round" />
</g>
<g transform="matrix(1.29 0 0 0.65 609.35 106.63)" id="Kz0zaEuGGoZhpZPuo0P4P"  >
<path style="stroke: rgb(194,100,17); stroke-opacity: 0; stroke-width: 0; stroke-dasharray: none; stroke-linecap: butt; stroke-dashoffset: 0; stroke-linejoin: miter; stroke-miterlimit: 4; fill: rgb(214,171,47); fill-rule: nonzero; opacity: 1;" vector-effect="non-scaling-stroke"  transform=" translate(0, 0)" d="M -42.55319 -42.55319 L 42.55319 -42.55319 L 42.55319 42.55319 L -42.55319 42.55319 z" stroke-linecap="round" />
</g>
<g transform="matrix(1.29 0 0 0.65 548.75 176.4)" id="yNXCJTrfH2h02pniz9BIM"  >
<path style="stroke: rgb(194,100,17); stroke-opacity: 0; stroke-width: 0; stroke-dasharray: none; stroke-linecap: butt; stroke-dashoffset: 0; stroke-linejoin: miter; stroke-miterlimit: 4; fill: rgb(214,171,47); fill-rule: nonzero; opacity: 1;" vector-effect="non-scaling-stroke"  transform=" translate(0, 0)" d="M -42.55319 -42.55319 L 42.55319 -42.55319 L 42.55319 42.55319 L -42.55319 42.55319 z" stroke-linecap="round" />
</g>
<g transform="matrix(1.29 0 0 0.65 678.22 176.4)" id="rMqURYbnJ2lpNN1SBaM0O"  >
<path style="stroke: rgb(194,100,17); stroke-opacity: 0; stroke-width: 0; stroke-dasharray: none; stroke-linecap: butt; stroke-dashoffset: 0; stroke-linejoin: miter; stroke-miterlimit: 4; fill: rgb(214,171,47); fill-rule: nonzero; opacity: 1;" vector-effect="non-scaling-stroke"  transform=" translate(0, 0)" d="M -42.55319 -42.55319 L 42.55319 -42.55319 L 42.55319 42.55319 L -42.55319 42.55319 z" stroke-linecap="round" />
</g>
<g transform="matrix(1.29 0 0 0.65 418.48 176.4)" id="Yc0oNKNruSuPCGNezACzH"  >
<path style="stroke: rgb(194,100,17); stroke-opacity: 0; stroke-width: 0; stroke-dasharray: none; stroke-linecap: butt; stroke-dashoffset: 0; stroke-linejoin: miter; stroke-miterlimit: 4; fill: rgb(214,171,47); fill-rule: nonzero; opacity: 1;" vector-effect="non-scaling-stroke"  transform=" translate(0, 0)" d="M -42.55319 -42.55319 L 42.55319 -42.55319 L 42.55319 42.55319 L -42.55319 42.55319 z" stroke-linecap="round" />
</g>
<g transform="matrix(1.29 0 0 0.65 -33.93 250.18)" id="R3sDLF9e8zVcHf50OdlGV"  >
<path style="stroke: rgb(194,100,17); stroke-opacity: 0; stroke-width: 0; stroke-dasharray: none; stroke-linecap: butt; stroke-dashoffset: 0; stroke-linejoin: miter; stroke-miterlimit: 4; fill: rgb(214,171,47); fill-rule: nonzero; opacity: 1;" vector-effect="non-scaling-stroke"  transform=" translate(0, 0)" d="M -42.55319 -42.55319 L 42.55319 -42.55319 L 42.55319 42.55319 L -42.55319 42.55319 z" stroke-linecap="round" />
</g>
<g transform="matrix(1.29 0 0 0.65 94.69 250.18)" id="Fxi2Tp6aLeh1CN0osGe9n"  >
<path style="stroke: rgb(194,100,17); stroke-opacity: 0; stroke-width: 0; stroke-dasharray: none; stroke-linecap: butt; stroke-dashoffset: 0; stroke-linejoin: miter; stroke-miterlimit: 4; fill: rgb(214,171,47); fill-rule: nonzero; opacity: 1;" vector-effect="non-scaling-stroke"  transform=" translate(0, 0)" d="M -42.55319 -42.55319 L 42.55319 -42.55319 L 42.55319 42.55319 L -42.55319 42.55319 z" stroke-linecap="round" />
</g>
<g transform="matrix(1.29 0 0 0.65 223.33 250.18)" id="Osdh0egfpoxmSDFmqQ2nP"  >
<path style="stroke: rgb(194,100,17); stroke-opacity: 0; stroke-width: 0; stroke-dasharray: none; stroke-linecap: butt; stroke-dashoffset: 0; stroke-linejoin: miter; stroke-miterlimit: 4; fill: rgb(214,171,47); fill-rule: nonzero; opacity: 1;" vector-effect="non-scaling-stroke"  transform=" translate(0, 0)" d="M -42.55319 -42.55319 L 42.55319 -42.55319 L 42.55319 42.55319 L -42.55319 42.55319 z" stroke-linecap="round" />
</g>
<g transform="matrix(1.29 0 0 0.65 162.73 319.96)" id="h7NnaEeS6luz7PlZFCwIN"  >
<path style="stroke: rgb(194,100,17); stroke-opacity: 0; stroke-width: 0; stroke-dasharray: none; stroke-linecap: butt; stroke-dashoffset: 0; stroke-linejoin: miter; stroke-miterlimit: 4; fill: rgb(214,171,47); fill-rule: nonzero; opacity: 1;" vector-effect="non-scaling-stroke"  transform=" translate(0, 0)" d="M -42.55319 -42.55319 L 42.55319 -42.55319 L 42.55319 42.55319 L -42.55319 42.55319 z" stroke-linecap="round" />
</g>
<g transform="matrix(1.29 0 0 0.65 292.19 319.96)" id="mqB0NrYyjOZ87Q0jPehMJ"  >
<path style="stroke: rgb(194,100,17); stroke-opacity: 0; stroke-width: 0; stroke-dasharray: none; stroke-linecap: butt; stroke-dashoffset: 0; stroke-linejoin: miter; stroke-miterlimit: 4; fill: rgb(214,171,47); fill-rule: nonzero; opacity: 1;" vector-effect="non-scaling-stroke"  transform=" translate(0, 0)" d="M -42.55319 -42.55319 L 42.55319 -42.55319 L 42.55319 42.55319 L -42.55319 42.55319 z" stroke-linecap="round" />
</g>
<g transform="matrix(1.29 0 0 0.65 32.45 319.96)" id="ytBOOPjq1Z4-BoRK4Rfl7"  >
<path style="stroke: rgb(194,100,17); stroke-opacity: 0; stroke-width: 0; stroke-dasharray: none; stroke-linecap: butt; stroke-dashoffset: 0; stroke-linejoin: miter; stroke-miterlimit: 4; fill: rgb(214,171,47); fill-rule: nonzero; opacity: 1;" vector-effect="non-scaling-stroke"  transform=" translate(0, 0)" d="M -42.55319 -42.55319 L 42.55319 -42.55319 L 42.55319 42.55319 L -42.55319 42.55319 z" stroke-linecap="round" />
</g>
<g transform="matrix(1.29 0 0 0.65 -33.93 391.38)" id="lvSniqPodOBNMGSMdzU5p"  >
<path style="stroke: rgb(194,100,17); stroke-opacity: 0; stroke-width: 0; stroke-dasharray: none; stroke-linecap: butt; stroke-dashoffset: 0; stroke-linejoin: miter; stroke-miterlimit: 4; fill: rgb(214,171,47); fill-rule: nonzero; opacity: 1;" vector-effect="non-scaling-stroke"  transform=" translate(0, 0)" d="M -42.55319 -42.55319 L 42.55319 -42.55319 L 42.55319 42.55319 L -42.55319 42.55319 z" stroke-linecap="round" />
</g>
<g transform="matrix(1.29 0 0 0.65 94.69 391.38)" id="1iMFT9OWbEVlTcx7BAp-x"  >
<path style="stroke: rgb(194,100,17); stroke-opacity: 0; stroke-width: 0; stroke-dasharray: none; stroke-linecap: butt; stroke-dashoffset: 0; stroke-linejoin: miter; stroke-miterlimit: 4; fill: rgb(214,171,47); fill-rule: nonzero; opacity: 1;" vector-effect="non-scaling-stroke"  transform=" translate(0, 0)" d="M -42.55319 -42.55319 L 42.55319 -42.55319 L 42.55319 42.55319 L -42.55319 42.55319 z" stroke-linecap="round" />
</g>
<g transform="matrix(1.29 0 0 0.65 223.32 391.38)" id="NoGz3XoD_G19yJbUpDiLJ"  >
<path style="stroke: rgb(194,100,17); stroke-opacity: 0; stroke-width: 0; stroke-dasharray: none; stroke-linecap: butt; stroke-dashoffset: 0; stroke-linejoin: miter; stroke-miterlimit: 4; fill: rgb(214,171,47); fill-rule: nonzero; opacity: 1;" vector-effect="non-scaling-stroke"  transform=" translate(0, 0)" d="M -42.55319 -42.55319 L 42.55319 -42.55319 L 42.55319 42.55319 L -42.55319 42.55319 z" stroke-linecap="round" />
</g>
<g transform="matrix(1.29 0 0 0.65 162.72 461.15)" id="-kf2KExMI5EK16xzMFZ77"  >
<path style="stroke: rgb(194,100,17); stroke-opacity: 0; stroke-width: 0; stroke-dasharray: none; stroke-linecap: butt; stroke-dashoffset: 0; stroke-linejoin: miter; stroke-miterlimit: 4; fill: rgb(214,171,47); fill-rule: nonzero; opacity: 1;" vector-effect="non-scaling-stroke"  transform=" translate(0, 0)" d="M -42.55319 -42.55319 L 42.55319 -42.55319 L 42.55319 42.55319 L -42.55319 42.55319 z" stroke-linecap="round" />
</g>
<g transform="matrix(1.29 0 0 0.65 292.19 461.15)" id="FyBUAa0NlR1QJjUFrtP2W"  >
<path style="stroke: rgb(194,100,17); stroke-opacity: 0; stroke-width: 0; stroke-dasharray: none; stroke-linecap: butt; stroke-dashoffset: 0; stroke-linejoin: miter; stroke-miterlimit: 4; fill: rgb(214,171,47); fill-rule: nonzero; opacity: 1;" vector-effect="non-scaling-stroke"  transform=" translate(0, 0)" d="M -42.55319 -42.55319 L 42.55319 -42.55319 L 42.55319 42.55319 L -42.55319 42.55319 z" stroke-linecap="round" />
</g>
<g transform="matrix(1.29 0 0 0.65 32.45 461.15)" id="Unit6Edha_edDUPuHXZCy"  >
<path style="stroke: rgb(194,100,17); stroke-opacity: 0; stroke-width: 0; stroke-dasharray: none; stroke-linecap: butt; stroke-dashoffset: 0; stroke-linejoin: miter; stroke-miterlimit: 4; fill: rgb(214,171,47); fill-rule: nonzero; opacity: 1;" vector-effect="non-scaling-stroke"  transform=" translate(0, 0)" d="M -42.55319 -42.55319 L 42.55319 -42.55319 L 42.55319 42.55319 L -42.55319 42.55319 z" stroke-linecap="round" />
</g>
<g transform="matrix(1.29 0 0 0.65 352.1 250.31)" id="9LjJ3Ej-S2EksPfTQmzT2"  >
<path style="stroke: rgb(194,100,17); stroke-opacity: 0; stroke-width: 0; stroke-dasharray: none; stroke-linecap: butt; stroke-dashoffset: 0; stroke-linejoin: miter; stroke-miterlimit: 4; fill: rgb(214,171,47); fill-rule: nonzero; opacity: 1;" vector-effect="non-scaling-stroke"  transform=" translate(0, 0)" d="M -42.55319 -42.55319 L 42.55319 -42.55319 L 42.55319 42.55319 L -42.55319 42.55319 z" stroke-linecap="round" />
</g>
<g transform="matrix(1.29 0 0 0.65 480.71 250.31)" id="OlE4O8JhinAlHZKzFUhsn"  >
<path style="stroke: rgb(194,100,17); stroke-opacity: 0; stroke-width: 0; stroke-dasharray: none; stroke-linecap: butt; stroke-dashoffset: 0; stroke-linejoin: miter; stroke-miterlimit: 4; fill: rgb(214,171,47); fill-rule: nonzero; opacity: 1;" vector-effect="non-scaling-stroke"  transform=" translate(0, 0)" d="M -42.55319 -42.55319 L 42.55319 -42.55319 L 42.55319 42.55319 L -42.55319 42.55319 z" stroke-linecap="round" />
</g>
<g transform="matrix(1.29 0 0 0.65 609.34 250.31)" id="uKoBSGLc3uR7q98yzHmYq"  >
<path style="stroke: rgb(194,100,17); stroke-opacity: 0; stroke-width: 0; stroke-dasharray: none; stroke-linecap: butt; stroke-dashoffset: 0; stroke-linejoin: miter; stroke-miterlimit: 4; fill: rgb(214,171,47); fill-rule: nonzero; opacity: 1;" vector-effect="non-scaling-stroke"  transform=" translate(0, 0)" d="M -42.55319 -42.55319 L 42.55319 -42.55319 L 42.55319 42.55319 L -42.55319 42.55319 z" stroke-linecap="round" />
</g>
<g transform="matrix(1.29 0 0 0.65 548.74 320.07)" id="mRpTfEmnT2m0rdwK7X8hs"  >
<path style="stroke: rgb(194,100,17); stroke-opacity: 0; stroke-width: 0; stroke-dasharray: none; stroke-linecap: butt; stroke-dashoffset: 0; stroke-linejoin: miter; stroke-miterlimit: 4; fill: rgb(214,171,47); fill-rule: nonzero; opacity: 1;" vector-effect="non-scaling-stroke"  transform=" translate(0, 0)" d="M -42.55319 -42.55319 L 42.55319 -42.55319 L 42.55319 42.55319 L -42.55319 42.55319 z" stroke-linecap="round" />
</g>
<g transform="matrix(1.29 0 0 0.65 678.21 320.07)" id="Erqm9IIN-IVLzuUiqRDiT"  >
<path style="stroke: rgb(194,100,17); stroke-opacity: 0; stroke-width: 0; stroke-dasharray: none; stroke-linecap: butt; stroke-dashoffset: 0; stroke-linejoin: miter; stroke-miterlimit: 4; fill: rgb(214,171,47); fill-rule: nonzero; opacity: 1;" vector-effect="non-scaling-stroke"  transform=" translate(0, 0)" d="M -42.55319 -42.55319 L 42.55319 -42.55319 L 42.55319 42.55319 L -42.55319 42.55319 z" stroke-linecap="round" />
</g>
<g transform="matrix(1.29 0 0 0.65 418.47 320.07)" id="eLHts8anw_oi5yYeELw4N"  >
<path style="stroke: rgb(194,100,17); stroke-opacity: 0; stroke-width: 0; stroke-dasharray: none; stroke-linecap: butt; stroke-dashoffset: 0; stroke-linejoin: miter; stroke-miterlimit: 4; fill: rgb(214,171,47); fill-rule: nonzero; opacity: 1;" vector-effect="non-scaling-stroke"  transform=" translate(0, 0)" d="M -42.55319 -42.55319 L 42.55319 -42.55319 L 42.55319 42.55319 L -42.55319 42.55319 z" stroke-linecap="round" />
</g>
<g transform="matrix(1.29 0 0 0.65 352.1 391.49)" id="r9bOQQA4v9a-TjJzrD-ME"  >
<path style="stroke: rgb(194,100,17); stroke-opacity: 0; stroke-width: 0; stroke-dasharray: none; stroke-linecap: butt; stroke-dashoffset: 0; stroke-linejoin: miter; stroke-miterlimit: 4; fill: rgb(214,171,47); fill-rule: nonzero; opacity: 1;" vector-effect="non-scaling-stroke"  transform=" translate(0, 0)" d="M -42.55319 -42.55319 L 42.55319 -42.55319 L 42.55319 42.55319 L -42.55319 42.55319 z" stroke-linecap="round" />
</g>
<g transform="matrix(1.29 0 0 0.65 480.71 391.49)" id="U1kUimqKCE_KVjPqbIL1e"  >
<path style="stroke: rgb(194,100,17); stroke-opacity: 0; stroke-width: 0; stroke-dasharray: none; stroke-linecap: butt; stroke-dashoffset: 0; stroke-linejoin: miter; stroke-miterlimit: 4; fill: rgb(214,171,47); fill-rule: nonzero; opacity: 1;" vector-effect="non-scaling-stroke"  transform=" translate(0, 0)" d="M -42.55319 -42.55319 L 42.55319 -42.55319 L 42.55319 42.55319 L -42.55319 42.55319 z" stroke-linecap="round" />
</g>
<g transform="matrix(1.29 0 0 0.65 609.34 391.49)" id="5AMQJUCqaof5JQqxmCJZ5"  >
<path style="stroke: rgb(194,100,17); stroke-opacity: 0; stroke-width: 0; stroke-dasharray: none; stroke-linecap: butt; stroke-dashoffset: 0; stroke-linejoin: miter; stroke-miterlimit: 4; fill: rgb(214,171,47); fill-rule: nonzero; opacity: 1;" vector-effect="non-scaling-stroke"  transform=" translate(0, 0)" d="M -42.55319 -42.55319 L 42.55319 -42.55319 L 42.55319 42.55319 L -42.55319 42.55319 z" stroke-linecap="round" />
</g>
<g transform="matrix(1.29 0 0 0.65 548.74 461.27)" id="9wuVjyqCVDDwKfXUSbovE"  >
<path style="stroke: rgb(194,100,17); stroke-opacity: 0; stroke-width: 0; stroke-dasharray: none; stroke-linecap: butt; stroke-dashoffset: 0; stroke-linejoin: miter; stroke-miterlimit: 4; fill: rgb(214,171,47); fill-rule: nonzero; opacity: 1;" vector-effect="non-scaling-stroke"  transform=" translate(0, 0)" d="M -42.55319 -42.55319 L 42.55319 -42.55319 L 42.55319 42.55319 L -42.55319 42.55319 z" stroke-linecap="round" />
</g>
<g transform="matrix(1.29 0 0 0.65 678.21 461.27)" id="6l5te8ap_kAzkfVWWDjFt"  >
<path style="stroke: rgb(194,100,17); stroke-opacity: 0; stroke-width: 0; stroke-dasharray: none; stroke-linecap: butt; stroke-dashoffset: 0; stroke-linejoin: miter; stroke-miterlimit: 4; fill: rgb(214,171,47); fill-rule: nonzero; opacity: 1;" vector-effect="non-scaling-stroke"  transform=" translate(0, 0)" d="M -42.55319 -42.55319 L 42.55319 -42.55319 L 42.55319 42.55319 L -42.55319 42.55319 z" stroke-linecap="round" />
</g>
<g transform="matrix(1.29 0 0 0.65 418.47 461.27)" id="8g-nJIS-Utxes4MUEzoIk"  >
<path style="stroke: rgb(194,100,17); stroke-opacity: 0; stroke-width: 0; stroke-dasharray: none; stroke-linecap: butt; stroke-dashoffset: 0; stroke-linejoin: miter; stroke-miterlimit: 4; fill: rgb(214,171,47); fill-rule: nonzero; opacity: 1;" vector-effect="non-scaling-stroke"  transform=" translate(0, 0)" d="M -42.55319 -42.55319 L 42.55319 -42.55319 L 42.55319 42.55319 L -42.55319 42.55319 z" stroke-linecap="round" />
</g>
<g transform="matrix(1.3 0 0 0.65 -33.87 533.53)" id="f5aPKcn-CL9w0lQhJr0Fz"  >
<path style="stroke: rgb(194,100,17); stroke-opacity: 0; stroke-width: 0; stroke-dasharray: none; stroke-linecap: butt; stroke-dashoffset: 0; stroke-linejoin: miter; stroke-miterlimit: 4; fill: rgb(214,171,47); fill-rule: nonzero; opacity: 1;" vector-effect="non-scaling-stroke"  transform=" translate(0, 0)" d="M -42.55319 -42.55319 L 42.55319 -42.55319 L 42.55319 42.55319 L -42.55319 42.55319 z" stroke-linecap="round" />
</g>
<g transform="matrix(1.3 0 0 0.65 94.74 533.53)" id="4g9ieCQxL5mScTtgorLZN"  >
<path style="stroke: rgb(194,100,17); stroke-opacity: 0; stroke-width: 0; stroke-dasharray: none; stroke-linecap: butt; stroke-dashoffset: 0; stroke-linejoin: miter; stroke-miterlimit: 4; fill: rgb(214,171,47); fill-rule: nonzero; opacity: 1;" vector-effect="non-scaling-stroke"  transform=" translate(0, 0)" d="M -42.55319 -42.55319 L 42.55319 -42.55319 L 42.55319 42.55319 L -42.55319 42.55319 z" stroke-linecap="round" />
</g>
<g transform="matrix(1.3 0 0 0.65 223.37 533.53)" id="UmLfxZxn6RwEmoNs7UDt_"  >
<path style="stroke: rgb(194,100,17); stroke-opacity: 0; stroke-width: 0; stroke-dasharray: none; stroke-linecap: butt; stroke-dashoffset: 0; stroke-linejoin: miter; stroke-miterlimit: 4; fill: rgb(214,171,47); fill-rule: nonzero; opacity: 1;" vector-effect="non-scaling-stroke"  transform=" translate(0, 0)" d="M -42.55319 -42.55319 L 42.55319 -42.55319 L 42.55319 42.55319 L -42.55319 42.55319 z" stroke-linecap="round" />
</g>
<g transform="matrix(1.3 0 0 0.65 162.77 603.3)" id="-JGs9spdBy0LsCoIVgHGR"  >
<path style="stroke: rgb(194,100,17); stroke-opacity: 0; stroke-width: 0; stroke-dasharray: none; stroke-linecap: butt; stroke-dashoffset: 0; stroke-linejoin: miter; stroke-miterlimit: 4; fill: rgb(214,171,47); fill-rule: nonzero; opacity: 1;" vector-effect="non-scaling-stroke"  transform=" translate(0, 0)" d="M -42.55319 -42.55319 L 42.55319 -42.55319 L 42.55319 42.55319 L -42.55319 42.55319 z" stroke-linecap="round" />
</g>
<g transform="matrix(1.3 0 0 0.65 292.23 603.3)" id="CFE90nsKCjBUtHpV_-_Rj"  >
<path style="stroke: rgb(194,100,17); stroke-opacity: 0; stroke-width: 0; stroke-dasharray: none; stroke-linecap: butt; stroke-dashoffset: 0; stroke-linejoin: miter; stroke-miterlimit: 4; fill: rgb(214,171,47); fill-rule: nonzero; opacity: 1;" vector-effect="non-scaling-stroke"  transform=" translate(0, 0)" d="M -42.55319 -42.55319 L 42.55319 -42.55319 L 42.55319 42.55319 L -42.55319 42.55319 z" stroke-linecap="round" />
</g>
<g transform="matrix(1.3 0 0 0.65 32.5 603.3)" id="PKWfHvhpsBAqmAfEWfIr3"  >
<path style="stroke: rgb(194,100,17); stroke-opacity: 0; stroke-width: 0; stroke-dasharray: none; stroke-linecap: butt; stroke-dashoffset: 0; stroke-linejoin: miter; stroke-miterlimit: 4; fill: rgb(214,171,47); fill-rule: nonzero; opacity: 1;" vector-effect="non-scaling-stroke"  transform=" translate(0, 0)" d="M -42.55319 -42.55319 L 42.55319 -42.55319 L 42.55319 42.55319 L -42.55319 42.55319 z" stroke-linecap="round" />
</g>
<g transform="matrix(1.3 0 0 0.65 352.16 533.65)" id="p3XU_obnGF_Hocs3HY1tB"  >
<path style="stroke: rgb(194,100,17); stroke-opacity: 0; stroke-width: 0; stroke-dasharray: none; stroke-linecap: butt; stroke-dashoffset: 0; stroke-linejoin: miter; stroke-miterlimit: 4; fill: rgb(214,171,47); fill-rule: nonzero; opacity: 1;" vector-effect="non-scaling-stroke"  transform=" translate(0, 0)" d="M -42.55319 -42.55319 L 42.55319 -42.55319 L 42.55319 42.55319 L -42.55319 42.55319 z" stroke-linecap="round" />
</g>
<g transform="matrix(1.3 0 0 0.65 480.77 533.65)" id="l5b7SxTyoaFzIKFCZl3Jl"  >
<path style="stroke: rgb(194,100,17); stroke-opacity: 0; stroke-width: 0; stroke-dasharray: none; stroke-linecap: butt; stroke-dashoffset: 0; stroke-linejoin: miter; stroke-miterlimit: 4; fill: rgb(214,171,47); fill-rule: nonzero; opacity: 1;" vector-effect="non-scaling-stroke"  transform=" translate(0, 0)" d="M -42.55319 -42.55319 L 42.55319 -42.55319 L 42.55319 42.55319 L -42.55319 42.55319 z" stroke-linecap="round" />
</g>
<g transform="matrix(1.3 0 0 0.65 609.4 533.65)" id="3Tp5Vo6TC1Kmdstbzta9x"  >
<path style="stroke: rgb(194,100,17); stroke-opacity: 0; stroke-width: 0; stroke-dasharray: none; stroke-linecap: butt; stroke-dashoffset: 0; stroke-linejoin: miter; stroke-miterlimit: 4; fill: rgb(214,171,47); fill-rule: nonzero; opacity: 1;" vector-effect="non-scaling-stroke"  transform=" translate(0, 0)" d="M -42.55319 -42.55319 L 42.55319 -42.55319 L 42.55319 42.55319 L -42.55319 42.55319 z" stroke-linecap="round" />
</g>
<g transform="matrix(1.3 0 0 0.65 548.8 603.42)" id="VxiLkrwQKyj1I000-MGnC"  >
<path style="stroke: rgb(194,100,17); stroke-opacity: 0; stroke-width: 0; stroke-dasharray: none; stroke-linecap: butt; stroke-dashoffset: 0; stroke-linejoin: miter; stroke-miterlimit: 4; fill: rgb(214,171,47); fill-rule: nonzero; opacity: 1;" vector-effect="non-scaling-stroke"  transform=" translate(0, 0)" d="M -42.55319 -42.55319 L 42.55319 -42.55319 L 42.55319 42.55319 L -42.55319 42.55319 z" stroke-linecap="round" />
</g>
<g transform="matrix(1.3 0 0 0.65 678.26 603.42)" id="jO7jpe36BwN60xsoSwUle"  >
<path style="stroke: rgb(194,100,17); stroke-opacity: 0; stroke-width: 0; stroke-dasharray: none; stroke-linecap: butt; stroke-dashoffset: 0; stroke-linejoin: miter; stroke-miterlimit: 4; fill: rgb(214,171,47); fill-rule: nonzero; opacity: 1;" vector-effect="non-scaling-stroke"  transform=" translate(0, 0)" d="M -42.55319 -42.55319 L 42.55319 -42.55319 L 42.55319 42.55319 L -42.55319 42.55319 z" stroke-linecap="round" />
</g>
<g transform="matrix(1.3 0 0 0.65 418.53 603.42)" id="RttF_yQIGwIejkSaumDbR"  >
<path style="stroke: rgb(194,100,17); stroke-opacity: 0; stroke-width: 0; stroke-dasharray: none; stroke-linecap: butt; stroke-dashoffset: 0; stroke-linejoin: miter; stroke-miterlimit: 4; fill: rgb(214,171,47); fill-rule: nonzero; opacity: 1;" vector-effect="non-scaling-stroke"  transform=" translate(0, 0)" d="M -42.55319 -42.55319 L 42.55319 -42.55319 L 42.55319 42.55319 L -42.55319 42.55319 z" stroke-linecap="round" />
</g>
</svg>