<?xml version="1.0" encoding="UTF-8" standalone="no" ?>
<!DOCTYPE svg PUBLIC "-//W3C//DTD SVG 1.1//EN" "http://www.w3.org/Graphics/SVG/1.1/DTD/svg11.dtd">
<svg xmlns="http://www.w3.org/2000/svg" xmlns:xlink="http://www.w3.org/1999/xlink" version="1.1" width="640" height="640" viewBox="0 0 640 640" xml:space="preserve">
<desc>Created with Fabric.js 4.6.0</desc>
<defs>
</defs>
<g transform="matrix(0 7.52 -7.52 0 320.38 318.2)" id="wj0FLv8LT5Kk_ZHKWXIsZ"  >
<path style="stroke: rgb(199,207,238); stroke-width: 0; stroke-dasharray: none; stroke-linecap: butt; stroke-dashoffset: 0; stroke-linejoin: miter; stroke-miterlimit: 4; fill: rgb(200,143,25); fill-rule: nonzero; opacity: 1;" vector-effect="non-scaling-stroke"  transform=" translate(0, 0)" d="M -42.55319 -42.55319 L 42.55319 -42.55319 L 42.55319 42.55319 L -42.55319 42.55319 z" stroke-linecap="round" />
</g>
<g transform="matrix(0 1.29 -0.64 0 605.59 160.34)" id="GnM1NipyWXiQz05r_7NPr"  >
<path style="stroke: rgb(194,100,17); stroke-opacity: 0; stroke-width: 0; stroke-dasharray: none; stroke-linecap: butt; stroke-dashoffset: 0; stroke-linejoin: miter; stroke-miterlimit: 4; fill: rgb(214,171,47); fill-rule: nonzero; opacity: 1;" vector-effect="non-scaling-stroke"  transform=" translate(0, 0)" d="M -42.55319 -42.55319 L 42.55319 -42.55319 L 42.55319 42.55319 L -42.55319 42.55319 z" stroke-linecap="round" />
</g>
<g transform="matrix(0 1.29 -0.64 0 605.59 289.96)" id="bGgdPsw6_899O2OJRa9Nf"  >
<path style="stroke: rgb(194,100,17); stroke-opacity: 0; stroke-width: 0; stroke-dasharray: none; stroke-linecap: butt; stroke-dashoffset: 0; stroke-linejoin: miter; stroke-miterlimit: 4; fill: rgb(214,171,47); fill-rule: nonzero; opacity: 1;" vector-effect="non-scaling-stroke"  transform=" translate(0, 0)" d="M -42.55319 -42.55319 L 42.55319 -42.55319 L 42.55319 42.55319 L -42.55319 42.55319 z" stroke-linecap="round" />
</g>
<g transform="matrix(0 1.29 -0.64 0 605.59 29.91)" id="rcTxzPqFo-dIvPDYpnI47"  >
<path style="stroke: rgb(194,100,17); stroke-opacity: 0; stroke-width: 0; stroke-dasharray: none; stroke-linecap: butt; stroke-dashoffset: 0; stroke-linejoin: miter; stroke-miterlimit: 4; fill: rgb(214,171,47); fill-rule: nonzero; opacity: 1;" vector-effect="non-scaling-stroke"  transform=" translate(0, 0)" d="M -42.55319 -42.55319 L 42.55319 -42.55319 L 42.55319 42.55319 L -42.55319 42.55319 z" stroke-linecap="round" />
</g>
<g transform="matrix(0 1.29 -0.64 0 534.09 -36.55)" id="6bHZfxLDvNScvCrVuWkA1"  >
<path style="stroke: rgb(194,100,17); stroke-opacity: 0; stroke-width: 0; stroke-dasharray: none; stroke-linecap: butt; stroke-dashoffset: 0; stroke-linejoin: miter; stroke-miterlimit: 4; fill: rgb(214,171,47); fill-rule: nonzero; opacity: 1;" vector-effect="non-scaling-stroke"  transform=" translate(0, 0)" d="M -42.55319 -42.55319 L 42.55319 -42.55319 L 42.55319 42.55319 L -42.55319 42.55319 z" stroke-linecap="round" />
</g>
<g transform="matrix(0 1.29 -0.64 0 534.09 92.22)" id="1etC9M_NbGjhQb5xEhyqI"  >
<path style="stroke: rgb(194,100,17); stroke-opacity: 0; stroke-width: 0; stroke-dasharray: none; stroke-linecap: butt; stroke-dashoffset: 0; stroke-linejoin: miter; stroke-miterlimit: 4; fill: rgb(214,171,47); fill-rule: nonzero; opacity: 1;" vector-effect="non-scaling-stroke"  transform=" translate(0, 0)" d="M -42.55319 -42.55319 L 42.55319 -42.55319 L 42.55319 42.55319 L -42.55319 42.55319 z" stroke-linecap="round" />
</g>
<g transform="matrix(0 1.29 -0.64 0 534.09 221.01)" id="YNXnfO_PgvqgnyZA3qItZ"  >
<path style="stroke: rgb(194,100,17); stroke-opacity: 0; stroke-width: 0; stroke-dasharray: none; stroke-linecap: butt; stroke-dashoffset: 0; stroke-linejoin: miter; stroke-miterlimit: 4; fill: rgb(214,171,47); fill-rule: nonzero; opacity: 1;" vector-effect="non-scaling-stroke"  transform=" translate(0, 0)" d="M -42.55319 -42.55319 L 42.55319 -42.55319 L 42.55319 42.55319 L -42.55319 42.55319 z" stroke-linecap="round" />
</g>
<g transform="matrix(0 1.29 -0.64 0 464.24 160.33)" id="-QW5FCPFmGf2usp6Gi0He"  >
<path style="stroke: rgb(194,100,17); stroke-opacity: 0; stroke-width: 0; stroke-dasharray: none; stroke-linecap: butt; stroke-dashoffset: 0; stroke-linejoin: miter; stroke-miterlimit: 4; fill: rgb(214,171,47); fill-rule: nonzero; opacity: 1;" vector-effect="non-scaling-stroke"  transform=" translate(0, 0)" d="M -42.55319 -42.55319 L 42.55319 -42.55319 L 42.55319 42.55319 L -42.55319 42.55319 z" stroke-linecap="round" />
</g>
<g transform="matrix(0 1.29 -0.64 0 464.24 289.96)" id="8UHRaiz-qCPa-bn9S9-O7"  >
<path style="stroke: rgb(194,100,17); stroke-opacity: 0; stroke-width: 0; stroke-dasharray: none; stroke-linecap: butt; stroke-dashoffset: 0; stroke-linejoin: miter; stroke-miterlimit: 4; fill: rgb(214,171,47); fill-rule: nonzero; opacity: 1;" vector-effect="non-scaling-stroke"  transform=" translate(0, 0)" d="M -42.55319 -42.55319 L 42.55319 -42.55319 L 42.55319 42.55319 L -42.55319 42.55319 z" stroke-linecap="round" />
</g>
<g transform="matrix(0 1.29 -0.64 0 464.24 29.91)" id="0zbChqqZXkJYJUNs_V4Ld"  >
<path style="stroke: rgb(194,100,17); stroke-opacity: 0; stroke-width: 0; stroke-dasharray: none; stroke-linecap: butt; stroke-dashoffset: 0; stroke-linejoin: miter; stroke-miterlimit: 4; fill: rgb(214,171,47); fill-rule: nonzero; opacity: 1;" vector-effect="non-scaling-stroke"  transform=" translate(0, 0)" d="M -42.55319 -42.55319 L 42.55319 -42.55319 L 42.55319 42.55319 L -42.55319 42.55319 z" stroke-linecap="round" />
</g>
<g transform="matrix(0 1.29 -0.65 0 605.47 546.83)" id="NrRCUPiW0om3MCjLVsD25"  >
<path style="stroke: rgb(194,100,17); stroke-opacity: 0; stroke-width: 0; stroke-dasharray: none; stroke-linecap: butt; stroke-dashoffset: 0; stroke-linejoin: miter; stroke-miterlimit: 4; fill: rgb(214,171,47); fill-rule: nonzero; opacity: 1;" vector-effect="non-scaling-stroke"  transform=" translate(0, 0)" d="M -42.55319 -42.55319 L 42.55319 -42.55319 L 42.55319 42.55319 L -42.55319 42.55319 z" stroke-linecap="round" />
</g>
<g transform="matrix(0 1.29 -0.65 0 605.47 676.45)" id="0TYWqCAOSaTPNlvBolNVd"  >
<path style="stroke: rgb(194,100,17); stroke-opacity: 0; stroke-width: 0; stroke-dasharray: none; stroke-linecap: butt; stroke-dashoffset: 0; stroke-linejoin: miter; stroke-miterlimit: 4; fill: rgb(214,171,47); fill-rule: nonzero; opacity: 1;" vector-effect="non-scaling-stroke"  transform=" translate(0, 0)" d="M -42.55319 -42.55319 L 42.55319 -42.55319 L 42.55319 42.55319 L -42.55319 42.55319 z" stroke-linecap="round" />
</g>
<g transform="matrix(0 1.29 -0.65 0 605.47 416.4)" id="zngnR9E76i5DWex9O3mqc"  >
<path style="stroke: rgb(194,100,17); stroke-opacity: 0; stroke-width: 0; stroke-dasharray: none; stroke-linecap: butt; stroke-dashoffset: 0; stroke-linejoin: miter; stroke-miterlimit: 4; fill: rgb(214,171,47); fill-rule: nonzero; opacity: 1;" vector-effect="non-scaling-stroke"  transform=" translate(0, 0)" d="M -42.55319 -42.55319 L 42.55319 -42.55319 L 42.55319 42.55319 L -42.55319 42.55319 z" stroke-linecap="round" />
</g>
<g transform="matrix(0 1.29 -0.65 0 533.97 349.95)" id="Y3rRxsJYrJnBe9B1MmHIZ"  >
<path style="stroke: rgb(194,100,17); stroke-opacity: 0; stroke-width: 0; stroke-dasharray: none; stroke-linecap: butt; stroke-dashoffset: 0; stroke-linejoin: miter; stroke-miterlimit: 4; fill: rgb(214,171,47); fill-rule: nonzero; opacity: 1;" vector-effect="non-scaling-stroke"  transform=" translate(0, 0)" d="M -42.55319 -42.55319 L 42.55319 -42.55319 L 42.55319 42.55319 L -42.55319 42.55319 z" stroke-linecap="round" />
</g>
<g transform="matrix(0 1.29 -0.65 0 533.97 478.71)" id="bBBoFUFutKCONyei4Muyl"  >
<path style="stroke: rgb(194,100,17); stroke-opacity: 0; stroke-width: 0; stroke-dasharray: none; stroke-linecap: butt; stroke-dashoffset: 0; stroke-linejoin: miter; stroke-miterlimit: 4; fill: rgb(214,171,47); fill-rule: nonzero; opacity: 1;" vector-effect="non-scaling-stroke"  transform=" translate(0, 0)" d="M -42.55319 -42.55319 L 42.55319 -42.55319 L 42.55319 42.55319 L -42.55319 42.55319 z" stroke-linecap="round" />
</g>
<g transform="matrix(0 1.29 -0.65 0 533.97 607.5)" id="Kz0zaEuGGoZhpZPuo0P4P"  >
<path style="stroke: rgb(194,100,17); stroke-opacity: 0; stroke-width: 0; stroke-dasharray: none; stroke-linecap: butt; stroke-dashoffset: 0; stroke-linejoin: miter; stroke-miterlimit: 4; fill: rgb(214,171,47); fill-rule: nonzero; opacity: 1;" vector-effect="non-scaling-stroke"  transform=" translate(0, 0)" d="M -42.55319 -42.55319 L 42.55319 -42.55319 L 42.55319 42.55319 L -42.55319 42.55319 z" stroke-linecap="round" />
</g>
<g transform="matrix(0 1.29 -0.65 0 464.11 546.83)" id="yNXCJTrfH2h02pniz9BIM"  >
<path style="stroke: rgb(194,100,17); stroke-opacity: 0; stroke-width: 0; stroke-dasharray: none; stroke-linecap: butt; stroke-dashoffset: 0; stroke-linejoin: miter; stroke-miterlimit: 4; fill: rgb(214,171,47); fill-rule: nonzero; opacity: 1;" vector-effect="non-scaling-stroke"  transform=" translate(0, 0)" d="M -42.55319 -42.55319 L 42.55319 -42.55319 L 42.55319 42.55319 L -42.55319 42.55319 z" stroke-linecap="round" />
</g>
<g transform="matrix(0 1.29 -0.65 0 464.11 676.45)" id="rMqURYbnJ2lpNN1SBaM0O"  >
<path style="stroke: rgb(194,100,17); stroke-opacity: 0; stroke-width: 0; stroke-dasharray: none; stroke-linecap: butt; stroke-dashoffset: 0; stroke-linejoin: miter; stroke-miterlimit: 4; fill: rgb(214,171,47); fill-rule: nonzero; opacity: 1;" vector-effect="non-scaling-stroke"  transform=" translate(0, 0)" d="M -42.55319 -42.55319 L 42.55319 -42.55319 L 42.55319 42.55319 L -42.55319 42.55319 z" stroke-linecap="round" />
</g>
<g transform="matrix(0 1.29 -0.65 0 464.11 416.4)" id="Yc0oNKNruSuPCGNezACzH"  >
<path style="stroke: rgb(194,100,17); stroke-opacity: 0; stroke-width: 0; stroke-dasharray: none; stroke-linecap: butt; stroke-dashoffset: 0; stroke-linejoin: miter; stroke-miterlimit: 4; fill: rgb(214,171,47); fill-rule: nonzero; opacity: 1;" vector-effect="non-scaling-stroke"  transform=" translate(0, 0)" d="M -42.55319 -42.55319 L 42.55319 -42.55319 L 42.55319 42.55319 L -42.55319 42.55319 z" stroke-linecap="round" />
</g>
<g transform="matrix(0 1.29 -0.65 0 390.25 -36.55)" id="R3sDLF9e8zVcHf50OdlGV"  >
<path style="stroke: rgb(194,100,17); stroke-opacity: 0; stroke-width: 0; stroke-dasharray: none; stroke-linecap: butt; stroke-dashoffset: 0; stroke-linejoin: miter; stroke-miterlimit: 4; fill: rgb(214,171,47); fill-rule: nonzero; opacity: 1;" vector-effect="non-scaling-stroke"  transform=" translate(0, 0)" d="M -42.55319 -42.55319 L 42.55319 -42.55319 L 42.55319 42.55319 L -42.55319 42.55319 z" stroke-linecap="round" />
</g>
<g transform="matrix(0 1.29 -0.65 0 390.25 92.22)" id="Fxi2Tp6aLeh1CN0osGe9n"  >
<path style="stroke: rgb(194,100,17); stroke-opacity: 0; stroke-width: 0; stroke-dasharray: none; stroke-linecap: butt; stroke-dashoffset: 0; stroke-linejoin: miter; stroke-miterlimit: 4; fill: rgb(214,171,47); fill-rule: nonzero; opacity: 1;" vector-effect="non-scaling-stroke"  transform=" translate(0, 0)" d="M -42.55319 -42.55319 L 42.55319 -42.55319 L 42.55319 42.55319 L -42.55319 42.55319 z" stroke-linecap="round" />
</g>
<g transform="matrix(0 1.29 -0.65 0 390.25 221.02)" id="Osdh0egfpoxmSDFmqQ2nP"  >
<path style="stroke: rgb(194,100,17); stroke-opacity: 0; stroke-width: 0; stroke-dasharray: none; stroke-linecap: butt; stroke-dashoffset: 0; stroke-linejoin: miter; stroke-miterlimit: 4; fill: rgb(214,171,47); fill-rule: nonzero; opacity: 1;" vector-effect="non-scaling-stroke"  transform=" translate(0, 0)" d="M -42.55319 -42.55319 L 42.55319 -42.55319 L 42.55319 42.55319 L -42.55319 42.55319 z" stroke-linecap="round" />
</g>
<g transform="matrix(0 1.29 -0.65 0 320.38 160.34)" id="h7NnaEeS6luz7PlZFCwIN"  >
<path style="stroke: rgb(194,100,17); stroke-opacity: 0; stroke-width: 0; stroke-dasharray: none; stroke-linecap: butt; stroke-dashoffset: 0; stroke-linejoin: miter; stroke-miterlimit: 4; fill: rgb(214,171,47); fill-rule: nonzero; opacity: 1;" vector-effect="non-scaling-stroke"  transform=" translate(0, 0)" d="M -42.55319 -42.55319 L 42.55319 -42.55319 L 42.55319 42.55319 L -42.55319 42.55319 z" stroke-linecap="round" />
</g>
<g transform="matrix(0 1.29 -0.65 0 320.38 289.96)" id="mqB0NrYyjOZ87Q0jPehMJ"  >
<path style="stroke: rgb(194,100,17); stroke-opacity: 0; stroke-width: 0; stroke-dasharray: none; stroke-linecap: butt; stroke-dashoffset: 0; stroke-linejoin: miter; stroke-miterlimit: 4; fill: rgb(214,171,47); fill-rule: nonzero; opacity: 1;" vector-effect="non-scaling-stroke"  transform=" translate(0, 0)" d="M -42.55319 -42.55319 L 42.55319 -42.55319 L 42.55319 42.55319 L -42.55319 42.55319 z" stroke-linecap="round" />
</g>
<g transform="matrix(0 1.29 -0.65 0 320.38 29.91)" id="ytBOOPjq1Z4-BoRK4Rfl7"  >
<path style="stroke: rgb(194,100,17); stroke-opacity: 0; stroke-width: 0; stroke-dasharray: none; stroke-linecap: butt; stroke-dashoffset: 0; stroke-linejoin: miter; stroke-miterlimit: 4; fill: rgb(214,171,47); fill-rule: nonzero; opacity: 1;" vector-effect="non-scaling-stroke"  transform=" translate(0, 0)" d="M -42.55319 -42.55319 L 42.55319 -42.55319 L 42.55319 42.55319 L -42.55319 42.55319 z" stroke-linecap="round" />
</g>
<g transform="matrix(0 1.29 -0.65 0 248.88 -36.55)" id="lvSniqPodOBNMGSMdzU5p"  >
<path style="stroke: rgb(194,100,17); stroke-opacity: 0; stroke-width: 0; stroke-dasharray: none; stroke-linecap: butt; stroke-dashoffset: 0; stroke-linejoin: miter; stroke-miterlimit: 4; fill: rgb(214,171,47); fill-rule: nonzero; opacity: 1;" vector-effect="non-scaling-stroke"  transform=" translate(0, 0)" d="M -42.55319 -42.55319 L 42.55319 -42.55319 L 42.55319 42.55319 L -42.55319 42.55319 z" stroke-linecap="round" />
</g>
<g transform="matrix(0 1.29 -0.65 0 248.88 92.22)" id="1iMFT9OWbEVlTcx7BAp-x"  >
<path style="stroke: rgb(194,100,17); stroke-opacity: 0; stroke-width: 0; stroke-dasharray: none; stroke-linecap: butt; stroke-dashoffset: 0; stroke-linejoin: miter; stroke-miterlimit: 4; fill: rgb(214,171,47); fill-rule: nonzero; opacity: 1;" vector-effect="non-scaling-stroke"  transform=" translate(0, 0)" d="M -42.55319 -42.55319 L 42.55319 -42.55319 L 42.55319 42.55319 L -42.55319 42.55319 z" stroke-linecap="round" />
</g>
<g transform="matrix(0 1.29 -0.65 0 248.88 221.01)" id="NoGz3XoD_G19yJbUpDiLJ"  >
<path style="stroke: rgb(194,100,17); stroke-opacity: 0; stroke-width: 0; stroke-dasharray: none; stroke-linecap: butt; stroke-dashoffset: 0; stroke-linejoin: miter; stroke-miterlimit: 4; fill: rgb(214,171,47); fill-rule: nonzero; opacity: 1;" vector-effect="non-scaling-stroke"  transform=" translate(0, 0)" d="M -42.55319 -42.55319 L 42.55319 -42.55319 L 42.55319 42.55319 L -42.55319 42.55319 z" stroke-linecap="round" />
</g>
<g transform="matrix(0 1.29 -0.65 0 179.02 160.33)" id="-kf2KExMI5EK16xzMFZ77"  >
<path style="stroke: rgb(194,100,17); stroke-opacity: 0; stroke-width: 0; stroke-dasharray: none; stroke-linecap: butt; stroke-dashoffset: 0; stroke-linejoin: miter; stroke-miterlimit: 4; fill: rgb(214,171,47); fill-rule: nonzero; opacity: 1;" vector-effect="non-scaling-stroke"  transform=" translate(0, 0)" d="M -42.55319 -42.55319 L 42.55319 -42.55319 L 42.55319 42.55319 L -42.55319 42.55319 z" stroke-linecap="round" />
</g>
<g transform="matrix(0 1.29 -0.65 0 179.02 289.96)" id="FyBUAa0NlR1QJjUFrtP2W"  >
<path style="stroke: rgb(194,100,17); stroke-opacity: 0; stroke-width: 0; stroke-dasharray: none; stroke-linecap: butt; stroke-dashoffset: 0; stroke-linejoin: miter; stroke-miterlimit: 4; fill: rgb(214,171,47); fill-rule: nonzero; opacity: 1;" vector-effect="non-scaling-stroke"  transform=" translate(0, 0)" d="M -42.55319 -42.55319 L 42.55319 -42.55319 L 42.55319 42.55319 L -42.55319 42.55319 z" stroke-linecap="round" />
</g>
<g transform="matrix(0 1.29 -0.65 0 179.02 29.91)" id="Unit6Edha_edDUPuHXZCy"  >
<path style="stroke: rgb(194,100,17); stroke-opacity: 0; stroke-width: 0; stroke-dasharray: none; stroke-linecap: butt; stroke-dashoffset: 0; stroke-linejoin: miter; stroke-miterlimit: 4; fill: rgb(214,171,47); fill-rule: nonzero; opacity: 1;" vector-effect="non-scaling-stroke"  transform=" translate(0, 0)" d="M -42.55319 -42.55319 L 42.55319 -42.55319 L 42.55319 42.55319 L -42.55319 42.55319 z" stroke-linecap="round" />
</g>
<g transform="matrix(0 1.29 -0.65 0 390.12 349.94)" id="9LjJ3Ej-S2EksPfTQmzT2"  >
<path style="stroke: rgb(194,100,17); stroke-opacity: 0; stroke-width: 0; stroke-dasharray: none; stroke-linecap: butt; stroke-dashoffset: 0; stroke-linejoin: miter; stroke-miterlimit: 4; fill: rgb(214,171,47); fill-rule: nonzero; opacity: 1;" vector-effect="non-scaling-stroke"  transform=" translate(0, 0)" d="M -42.55319 -42.55319 L 42.55319 -42.55319 L 42.55319 42.55319 L -42.55319 42.55319 z" stroke-linecap="round" />
</g>
<g transform="matrix(0 1.29 -0.65 0 390.12 478.7)" id="OlE4O8JhinAlHZKzFUhsn"  >
<path style="stroke: rgb(194,100,17); stroke-opacity: 0; stroke-width: 0; stroke-dasharray: none; stroke-linecap: butt; stroke-dashoffset: 0; stroke-linejoin: miter; stroke-miterlimit: 4; fill: rgb(214,171,47); fill-rule: nonzero; opacity: 1;" vector-effect="non-scaling-stroke"  transform=" translate(0, 0)" d="M -42.55319 -42.55319 L 42.55319 -42.55319 L 42.55319 42.55319 L -42.55319 42.55319 z" stroke-linecap="round" />
</g>
<g transform="matrix(0 1.29 -0.65 0 390.12 607.49)" id="uKoBSGLc3uR7q98yzHmYq"  >
<path style="stroke: rgb(194,100,17); stroke-opacity: 0; stroke-width: 0; stroke-dasharray: none; stroke-linecap: butt; stroke-dashoffset: 0; stroke-linejoin: miter; stroke-miterlimit: 4; fill: rgb(214,171,47); fill-rule: nonzero; opacity: 1;" vector-effect="non-scaling-stroke"  transform=" translate(0, 0)" d="M -42.55319 -42.55319 L 42.55319 -42.55319 L 42.55319 42.55319 L -42.55319 42.55319 z" stroke-linecap="round" />
</g>
<g transform="matrix(0 1.29 -0.65 0 320.27 546.82)" id="mRpTfEmnT2m0rdwK7X8hs"  >
<path style="stroke: rgb(194,100,17); stroke-opacity: 0; stroke-width: 0; stroke-dasharray: none; stroke-linecap: butt; stroke-dashoffset: 0; stroke-linejoin: miter; stroke-miterlimit: 4; fill: rgb(214,171,47); fill-rule: nonzero; opacity: 1;" vector-effect="non-scaling-stroke"  transform=" translate(0, 0)" d="M -42.55319 -42.55319 L 42.55319 -42.55319 L 42.55319 42.55319 L -42.55319 42.55319 z" stroke-linecap="round" />
</g>
<g transform="matrix(0 1.29 -0.65 0 320.27 676.44)" id="Erqm9IIN-IVLzuUiqRDiT"  >
<path style="stroke: rgb(194,100,17); stroke-opacity: 0; stroke-width: 0; stroke-dasharray: none; stroke-linecap: butt; stroke-dashoffset: 0; stroke-linejoin: miter; stroke-miterlimit: 4; fill: rgb(214,171,47); fill-rule: nonzero; opacity: 1;" vector-effect="non-scaling-stroke"  transform=" translate(0, 0)" d="M -42.55319 -42.55319 L 42.55319 -42.55319 L 42.55319 42.55319 L -42.55319 42.55319 z" stroke-linecap="round" />
</g>
<g transform="matrix(0 1.29 -0.65 0 320.27 416.39)" id="eLHts8anw_oi5yYeELw4N"  >
<path style="stroke: rgb(194,100,17); stroke-opacity: 0; stroke-width: 0; stroke-dasharray: none; stroke-linecap: butt; stroke-dashoffset: 0; stroke-linejoin: miter; stroke-miterlimit: 4; fill: rgb(214,171,47); fill-rule: nonzero; opacity: 1;" vector-effect="non-scaling-stroke"  transform=" translate(0, 0)" d="M -42.55319 -42.55319 L 42.55319 -42.55319 L 42.55319 42.55319 L -42.55319 42.55319 z" stroke-linecap="round" />
</g>
<g transform="matrix(0 1.29 -0.65 0 248.77 349.94)" id="r9bOQQA4v9a-TjJzrD-ME"  >
<path style="stroke: rgb(194,100,17); stroke-opacity: 0; stroke-width: 0; stroke-dasharray: none; stroke-linecap: butt; stroke-dashoffset: 0; stroke-linejoin: miter; stroke-miterlimit: 4; fill: rgb(214,171,47); fill-rule: nonzero; opacity: 1;" vector-effect="non-scaling-stroke"  transform=" translate(0, 0)" d="M -42.55319 -42.55319 L 42.55319 -42.55319 L 42.55319 42.55319 L -42.55319 42.55319 z" stroke-linecap="round" />
</g>
<g transform="matrix(0 1.29 -0.65 0 248.77 478.7)" id="U1kUimqKCE_KVjPqbIL1e"  >
<path style="stroke: rgb(194,100,17); stroke-opacity: 0; stroke-width: 0; stroke-dasharray: none; stroke-linecap: butt; stroke-dashoffset: 0; stroke-linejoin: miter; stroke-miterlimit: 4; fill: rgb(214,171,47); fill-rule: nonzero; opacity: 1;" vector-effect="non-scaling-stroke"  transform=" translate(0, 0)" d="M -42.55319 -42.55319 L 42.55319 -42.55319 L 42.55319 42.55319 L -42.55319 42.55319 z" stroke-linecap="round" />
</g>
<g transform="matrix(0 1.29 -0.65 0 248.77 607.49)" id="5AMQJUCqaof5JQqxmCJZ5"  >
<path style="stroke: rgb(194,100,17); stroke-opacity: 0; stroke-width: 0; stroke-dasharray: none; stroke-linecap: butt; stroke-dashoffset: 0; stroke-linejoin: miter; stroke-miterlimit: 4; fill: rgb(214,171,47); fill-rule: nonzero; opacity: 1;" vector-effect="non-scaling-stroke"  transform=" translate(0, 0)" d="M -42.55319 -42.55319 L 42.55319 -42.55319 L 42.55319 42.55319 L -42.55319 42.55319 z" stroke-linecap="round" />
</g>
<g transform="matrix(0 1.29 -0.65 0 178.9 546.82)" id="9wuVjyqCVDDwKfXUSbovE"  >
<path style="stroke: rgb(194,100,17); stroke-opacity: 0; stroke-width: 0; stroke-dasharray: none; stroke-linecap: butt; stroke-dashoffset: 0; stroke-linejoin: miter; stroke-miterlimit: 4; fill: rgb(214,171,47); fill-rule: nonzero; opacity: 1;" vector-effect="non-scaling-stroke"  transform=" translate(0, 0)" d="M -42.55319 -42.55319 L 42.55319 -42.55319 L 42.55319 42.55319 L -42.55319 42.55319 z" stroke-linecap="round" />
</g>
<g transform="matrix(0 1.29 -0.65 0 178.9 676.44)" id="6l5te8ap_kAzkfVWWDjFt"  >
<path style="stroke: rgb(194,100,17); stroke-opacity: 0; stroke-width: 0; stroke-dasharray: none; stroke-linecap: butt; stroke-dashoffset: 0; stroke-linejoin: miter; stroke-miterlimit: 4; fill: rgb(214,171,47); fill-rule: nonzero; opacity: 1;" vector-effect="non-scaling-stroke"  transform=" translate(0, 0)" d="M -42.55319 -42.55319 L 42.55319 -42.55319 L 42.55319 42.55319 L -42.55319 42.55319 z" stroke-linecap="round" />
</g>
<g transform="matrix(0 1.29 -0.65 0 178.9 416.39)" id="8g-nJIS-Utxes4MUEzoIk"  >
<path style="stroke: rgb(194,100,17); stroke-opacity: 0; stroke-width: 0; stroke-dasharray: none; stroke-linecap: butt; stroke-dashoffset: 0; stroke-linejoin: miter; stroke-miterlimit: 4; fill: rgb(214,171,47); fill-rule: nonzero; opacity: 1;" vector-effect="non-scaling-stroke"  transform=" translate(0, 0)" d="M -42.55319 -42.55319 L 42.55319 -42.55319 L 42.55319 42.55319 L -42.55319 42.55319 z" stroke-linecap="round" />
</g>
<g transform="matrix(0 1.3 -0.65 0 106.56 -36.49)" id="f5aPKcn-CL9w0lQhJr0Fz"  >
<path style="stroke: rgb(194,100,17); stroke-opacity: 0; stroke-width: 0; stroke-dasharray: none; stroke-linecap: butt; stroke-dashoffset: 0; stroke-linejoin: miter; stroke-miterlimit: 4; fill: rgb(214,171,47); fill-rule: nonzero; opacity: 1;" vector-effect="non-scaling-stroke"  transform=" translate(0, 0)" d="M -42.55319 -42.55319 L 42.55319 -42.55319 L 42.55319 42.55319 L -42.55319 42.55319 z" stroke-linecap="round" />
</g>
<g transform="matrix(0 1.3 -0.65 0 106.56 92.27)" id="4g9ieCQxL5mScTtgorLZN"  >
<path style="stroke: rgb(194,100,17); stroke-opacity: 0; stroke-width: 0; stroke-dasharray: none; stroke-linecap: butt; stroke-dashoffset: 0; stroke-linejoin: miter; stroke-miterlimit: 4; fill: rgb(214,171,47); fill-rule: nonzero; opacity: 1;" vector-effect="non-scaling-stroke"  transform=" translate(0, 0)" d="M -42.55319 -42.55319 L 42.55319 -42.55319 L 42.55319 42.55319 L -42.55319 42.55319 z" stroke-linecap="round" />
</g>
<g transform="matrix(0 1.3 -0.65 0 106.56 221.06)" id="UmLfxZxn6RwEmoNs7UDt_"  >
<path style="stroke: rgb(194,100,17); stroke-opacity: 0; stroke-width: 0; stroke-dasharray: none; stroke-linecap: butt; stroke-dashoffset: 0; stroke-linejoin: miter; stroke-miterlimit: 4; fill: rgb(214,171,47); fill-rule: nonzero; opacity: 1;" vector-effect="non-scaling-stroke"  transform=" translate(0, 0)" d="M -42.55319 -42.55319 L 42.55319 -42.55319 L 42.55319 42.55319 L -42.55319 42.55319 z" stroke-linecap="round" />
</g>
<g transform="matrix(0 1.3 -0.65 0 36.7 160.38)" id="-JGs9spdBy0LsCoIVgHGR"  >
<path style="stroke: rgb(194,100,17); stroke-opacity: 0; stroke-width: 0; stroke-dasharray: none; stroke-linecap: butt; stroke-dashoffset: 0; stroke-linejoin: miter; stroke-miterlimit: 4; fill: rgb(214,171,47); fill-rule: nonzero; opacity: 1;" vector-effect="non-scaling-stroke"  transform=" translate(0, 0)" d="M -42.55319 -42.55319 L 42.55319 -42.55319 L 42.55319 42.55319 L -42.55319 42.55319 z" stroke-linecap="round" />
</g>
<g transform="matrix(0 1.3 -0.65 0 36.7 290)" id="CFE90nsKCjBUtHpV_-_Rj"  >
<path style="stroke: rgb(194,100,17); stroke-opacity: 0; stroke-width: 0; stroke-dasharray: none; stroke-linecap: butt; stroke-dashoffset: 0; stroke-linejoin: miter; stroke-miterlimit: 4; fill: rgb(214,171,47); fill-rule: nonzero; opacity: 1;" vector-effect="non-scaling-stroke"  transform=" translate(0, 0)" d="M -42.55319 -42.55319 L 42.55319 -42.55319 L 42.55319 42.55319 L -42.55319 42.55319 z" stroke-linecap="round" />
</g>
<g transform="matrix(0 1.3 -0.65 0 36.7 29.96)" id="PKWfHvhpsBAqmAfEWfIr3"  >
<path style="stroke: rgb(194,100,17); stroke-opacity: 0; stroke-width: 0; stroke-dasharray: none; stroke-linecap: butt; stroke-dashoffset: 0; stroke-linejoin: miter; stroke-miterlimit: 4; fill: rgb(214,171,47); fill-rule: nonzero; opacity: 1;" vector-effect="non-scaling-stroke"  transform=" translate(0, 0)" d="M -42.55319 -42.55319 L 42.55319 -42.55319 L 42.55319 42.55319 L -42.55319 42.55319 z" stroke-linecap="round" />
</g>
<g transform="matrix(0 1.3 -0.65 0 106.44 350)" id="p3XU_obnGF_Hocs3HY1tB"  >
<path style="stroke: rgb(194,100,17); stroke-opacity: 0; stroke-width: 0; stroke-dasharray: none; stroke-linecap: butt; stroke-dashoffset: 0; stroke-linejoin: miter; stroke-miterlimit: 4; fill: rgb(214,171,47); fill-rule: nonzero; opacity: 1;" vector-effect="non-scaling-stroke"  transform=" translate(0, 0)" d="M -42.55319 -42.55319 L 42.55319 -42.55319 L 42.55319 42.55319 L -42.55319 42.55319 z" stroke-linecap="round" />
</g>
<g transform="matrix(0 1.3 -0.65 0 106.44 478.77)" id="l5b7SxTyoaFzIKFCZl3Jl"  >
<path style="stroke: rgb(194,100,17); stroke-opacity: 0; stroke-width: 0; stroke-dasharray: none; stroke-linecap: butt; stroke-dashoffset: 0; stroke-linejoin: miter; stroke-miterlimit: 4; fill: rgb(214,171,47); fill-rule: nonzero; opacity: 1;" vector-effect="non-scaling-stroke"  transform=" translate(0, 0)" d="M -42.55319 -42.55319 L 42.55319 -42.55319 L 42.55319 42.55319 L -42.55319 42.55319 z" stroke-linecap="round" />
</g>
<g transform="matrix(0 1.3 -0.65 0 106.44 607.55)" id="3Tp5Vo6TC1Kmdstbzta9x"  >
<path style="stroke: rgb(194,100,17); stroke-opacity: 0; stroke-width: 0; stroke-dasharray: none; stroke-linecap: butt; stroke-dashoffset: 0; stroke-linejoin: miter; stroke-miterlimit: 4; fill: rgb(214,171,47); fill-rule: nonzero; opacity: 1;" vector-effect="non-scaling-stroke"  transform=" translate(0, 0)" d="M -42.55319 -42.55319 L 42.55319 -42.55319 L 42.55319 42.55319 L -42.55319 42.55319 z" stroke-linecap="round" />
</g>
<g transform="matrix(0 1.3 -0.65 0 36.58 546.88)" id="VxiLkrwQKyj1I000-MGnC"  >
<path style="stroke: rgb(194,100,17); stroke-opacity: 0; stroke-width: 0; stroke-dasharray: none; stroke-linecap: butt; stroke-dashoffset: 0; stroke-linejoin: miter; stroke-miterlimit: 4; fill: rgb(214,171,47); fill-rule: nonzero; opacity: 1;" vector-effect="non-scaling-stroke"  transform=" translate(0, 0)" d="M -42.55319 -42.55319 L 42.55319 -42.55319 L 42.55319 42.55319 L -42.55319 42.55319 z" stroke-linecap="round" />
</g>
<g transform="matrix(0 1.3 -0.65 0 36.58 676.49)" id="jO7jpe36BwN60xsoSwUle"  >
<path style="stroke: rgb(194,100,17); stroke-opacity: 0; stroke-width: 0; stroke-dasharray: none; stroke-linecap: butt; stroke-dashoffset: 0; stroke-linejoin: miter; stroke-miterlimit: 4; fill: rgb(214,171,47); fill-rule: nonzero; opacity: 1;" vector-effect="non-scaling-stroke"  transform=" translate(0, 0)" d="M -42.55319 -42.55319 L 42.55319 -42.55319 L 42.55319 42.55319 L -42.55319 42.55319 z" stroke-linecap="round" />
</g>
<g transform="matrix(0 1.3 -0.65 0 36.58 416.45)" id="RttF_yQIGwIejkSaumDbR"  >
<path style="stroke: rgb(194,100,17); stroke-opacity: 0; stroke-width: 0; stroke-dasharray: none; stroke-linecap: butt; stroke-dashoffset: 0; stroke-linejoin: miter; stroke-miterlimit: 4; fill: rgb(214,171,47); fill-rule: nonzero; opacity: 1;" vector-effect="non-scaling-stroke"  transform=" translate(0, 0)" d="M -42.55319 -42.55319 L 42.55319 -42.55319 L 42.55319 42.55319 L -42.55319 42.55319 z" stroke-linecap="round" />
</g>
</svg>