<?xml version="1.0" encoding="UTF-8" standalone="no" ?>
<!DOCTYPE svg PUBLIC "-//W3C//DTD SVG 1.1//EN" "http://www.w3.org/Graphics/SVG/1.1/DTD/svg11.dtd">
<svg xmlns="http://www.w3.org/2000/svg" xmlns:xlink="http://www.w3.org/1999/xlink" version="1.1" width="640" height="640" viewBox="0 0 640 640" xml:space="preserve">
<desc>Created with Fabric.js 4.6.0</desc>
<defs>
</defs>
<g transform="matrix(1.06 0 0 1.06 168.1 232.43)" id="EMqAtv7Ty-JMA6wpEisWE"  >
<path style="stroke: rgb(199,235,73); stroke-width: 0; stroke-dasharray: none; stroke-linecap: butt; stroke-dashoffset: 0; stroke-linejoin: miter; stroke-miterlimit: 4; fill: rgb(205,216,218); fill-rule: nonzero; opacity: 1;" vector-effect="non-scaling-stroke"  transform=" translate(0, 0)" d="M -42.55319 -32.35987 C -42.55319 -37.98949 -37.98948 -42.55319 -32.35987 -42.55319 L 31.65065 -42.55319 L 31.65065 -42.55319 C 37.67196 -42.55319 42.55319 -37.67196 42.55319 -31.65065 L 42.55319 32.35987 L 42.55319 32.35987 C 42.55319 37.98949 37.98948 42.55319 32.35987 42.55319 L -30.941429999999997 42.55319 L -30.941429999999997 42.55319 C -37.354429999999994 42.55319 -42.55319 37.35443 -42.55319 30.94143 z" stroke-linecap="round" />
</g>
<g transform="matrix(1.06 0 0 1.06 72.09 328.43)" id="RWwwIBx7Ar0JgJKxfhE77"  >
<path style="stroke: rgb(199,235,73); stroke-width: 0; stroke-dasharray: none; stroke-linecap: butt; stroke-dashoffset: 0; stroke-linejoin: miter; stroke-miterlimit: 4; fill: rgb(205,216,218); fill-rule: nonzero; opacity: 1;" vector-effect="non-scaling-stroke"  transform=" translate(0, 0)" d="M -42.55319 -32.35987 C -42.55319 -37.98949 -37.98948 -42.55319 -32.35987 -42.55319 L 31.65065 -42.55319 L 31.65065 -42.55319 C 37.67196 -42.55319 42.55319 -37.67196 42.55319 -31.65065 L 42.55319 32.35987 L 42.55319 32.35987 C 42.55319 37.98949 37.98948 42.55319 32.35987 42.55319 L -30.941429999999997 42.55319 L -30.941429999999997 42.55319 C -37.354429999999994 42.55319 -42.55319 37.35443 -42.55319 30.94143 z" stroke-linecap="round" />
</g>
<g transform="matrix(1.06 0 0 1.06 168.1 328.43)" id="BQGE7hObMm3IFSVndu2ZA"  >
<path style="stroke: rgb(199,235,73); stroke-width: 0; stroke-dasharray: none; stroke-linecap: butt; stroke-dashoffset: 0; stroke-linejoin: miter; stroke-miterlimit: 4; fill: rgb(205,216,218); fill-rule: nonzero; opacity: 1;" vector-effect="non-scaling-stroke"  transform=" translate(0, 0)" d="M -42.55319 -32.35987 C -42.55319 -37.98949 -37.98948 -42.55319 -32.35987 -42.55319 L 31.65065 -42.55319 L 31.65065 -42.55319 C 37.67196 -42.55319 42.55319 -37.67196 42.55319 -31.65065 L 42.55319 32.35987 L 42.55319 32.35987 C 42.55319 37.98949 37.98948 42.55319 32.35987 42.55319 L -30.941429999999997 42.55319 L -30.941429999999997 42.55319 C -37.354429999999994 42.55319 -42.55319 37.35443 -42.55319 30.94143 z" stroke-linecap="round" />
</g>
<g transform="matrix(1.06 0 0 1.06 263.2 328.43)" id="s5gnCkI6b2kTsDHLlTKaP"  >
<path style="stroke: rgb(199,235,73); stroke-width: 0; stroke-dasharray: none; stroke-linecap: butt; stroke-dashoffset: 0; stroke-linejoin: miter; stroke-miterlimit: 4; fill: rgb(205,216,218); fill-rule: nonzero; opacity: 1;" vector-effect="non-scaling-stroke"  transform=" translate(0, 0)" d="M -42.55319 -32.35987 C -42.55319 -37.98949 -37.98948 -42.55319 -32.35987 -42.55319 L 31.65065 -42.55319 L 31.65065 -42.55319 C 37.67196 -42.55319 42.55319 -37.67196 42.55319 -31.65065 L 42.55319 32.35987 L 42.55319 32.35987 C 42.55319 37.98949 37.98948 42.55319 32.35987 42.55319 L -30.941429999999997 42.55319 L -30.941429999999997 42.55319 C -37.354429999999994 42.55319 -42.55319 37.35443 -42.55319 30.94143 z" stroke-linecap="round" />
</g>
<g transform="matrix(0.82 0 0 0.82 462.82 172.75)" id="cXY-1l_79e7VnoSSyh1z8"  >
<path style="stroke: rgb(63,195,145); stroke-width: 0; stroke-dasharray: none; stroke-linecap: butt; stroke-dashoffset: 0; stroke-linejoin: miter; stroke-miterlimit: 4; fill: rgb(98,145,202); fill-rule: nonzero; opacity: 1;" vector-effect="non-scaling-stroke"  transform=" translate(0, 0)" d="M 0 -42.55319 C 23.48936 -42.55319 42.55319 -23.48936 42.55319 0 C 42.55319 23.48936 23.48936 42.55319 0 42.55319 C -23.48936 42.55319 -42.55319 23.48936 -42.55319 0 C -42.55319 -23.48936 -23.48936 -42.55319 0 -42.55319 z" stroke-linecap="round" />
</g>
<g transform="matrix(0 -1.09 0.47 0 462.64 83.37)" id="BmZYUjM3RZCAdw9p4kO34"  >
<path style="stroke: none; stroke-width: 1; stroke-dasharray: none; stroke-linecap: butt; stroke-dashoffset: 0; stroke-linejoin: miter; stroke-miterlimit: 4; fill: rgb(205,216,218); fill-rule: nonzero; opacity: 1;" vector-effect="non-scaling-stroke"  transform=" translate(-40, -40)" d="M 41.17 72.5 L 80 40 L 41.17 7.5 L 41.17 28.105 L 0 28.105 L 0 51.952 L 41.17 51.952 L 41.17 72.5 z" stroke-linecap="round" />
</g>
<g transform="matrix(-1.09 0 0 -0.47 370.92 172.75)" id="vo5vlbiU-5L56lIFkxbVn"  >
<path style="stroke: none; stroke-width: 1; stroke-dasharray: none; stroke-linecap: butt; stroke-dashoffset: 0; stroke-linejoin: miter; stroke-miterlimit: 4; fill: rgb(205,216,218); fill-rule: nonzero; opacity: 1;" vector-effect="non-scaling-stroke"  transform=" translate(-40, -40)" d="M 41.17 72.5 L 80 40 L 41.17 7.5 L 41.17 28.105 L 0 28.105 L 0 51.952 L 41.17 51.952 L 41.17 72.5 z" stroke-linecap="round" />
</g>
<g transform="matrix(1.04 0 0 0.47 552.25 172.75)" id="hSFhGFmiQ4y7oRdkK3Mp5"  >
<path style="stroke: none; stroke-width: 1; stroke-dasharray: none; stroke-linecap: butt; stroke-dashoffset: 0; stroke-linejoin: miter; stroke-miterlimit: 4; fill: rgb(205,216,218); fill-rule: nonzero; opacity: 1;" vector-effect="non-scaling-stroke"  transform=" translate(-40, -40)" d="M 41.17 72.5 L 80 40 L 41.17 7.5 L 41.17 28.105 L 0 28.105 L 0 51.952 L 41.17 51.952 L 41.17 72.5 z" stroke-linecap="round" />
</g>
<g transform="matrix(0 1 -0.49 0 462.22 260.86)" id="G9ia7aVmerkz66BiPN9Is"  >
<path style="stroke: none; stroke-width: 1; stroke-dasharray: none; stroke-linecap: butt; stroke-dashoffset: 0; stroke-linejoin: miter; stroke-miterlimit: 4; fill: rgb(205,216,218); fill-rule: nonzero; opacity: 1;" vector-effect="non-scaling-stroke"  transform=" translate(-40, -40)" d="M 41.17 72.5 L 80 40 L 41.17 7.5 L 41.17 28.105 L 0 28.105 L 0 51.952 L 41.17 51.952 L 41.17 72.5 z" stroke-linecap="round" />
</g>
<g transform="matrix(1 0 0 1 229.25 308.13)" id="JgNXGxZRWt1dchHtaZB3B"  >
<path style="stroke: rgb(0,0,0); stroke-width: 1; stroke-dasharray: none; stroke-linecap: round; stroke-dashoffset: 0; stroke-linejoin: round; stroke-miterlimit: 10; fill: none; fill-rule: nonzero; opacity: 1;" vector-effect="non-scaling-stroke"  transform=" translate(-229.25, -308.13)" d="M 229.25305568130398 296.64001403349926 Q 229.25305568130398 296.64101403349923 229.25305568130398 297.06654594839284 Q 229.25305568130398 297.49207786328645 229.25305568130398 297.9176097781801 Q 229.25305568130398 298.34314169307373 229.25305568130398 298.76867360796734 Q 229.25305568130398 299.19420552286095 229.25305568130398 299.61973743775457 Q 229.25305568130398 300.0452693526482 229.25305568130398 300.4708012675418 Q 229.25305568130398 300.8963331824354 229.25305568130398 301.321865097329 Q 229.25305568130398 301.7473970122227 229.25305568130398 302.1729289271163 Q 229.25305568130398 302.5984608420099 229.25305568130398 303.0239927569035 Q 229.25305568130398 303.4495246717971 229.25305568130398 303.87505658669073 Q 229.25305568130398 304.30058850158434 229.25305568130398 304.72612041647795 Q 229.25305568130398 305.15165233137157 229.25305568130398 305.57718424626523 Q 229.25305568130398 306.00271616115884 229.25305568130398 306.42824807605245 Q 229.25305568130398 306.85377999094607 229.25305568130398 307.2793119058397 Q 229.25305568130398 307.7048438207333 229.25305568130398 308.1303757356269 Q 229.25305568130398 308.5559076505205 229.25305568130398 308.9814395654141 Q 229.25305568130398 309.40697148030773 229.25305568130398 309.83250339520134 Q 229.25305568130398 310.258035310095 229.25305568130398 310.6835672249886 Q 229.25305568130398 311.10909913988223 229.25305568130398 311.53463105477584 Q 229.25305568130398 311.96016296966945 229.25305568130398 312.38569488456307 Q 229.25305568130398 312.8112267994567 229.25305568130398 313.2367587143503 Q 229.25305568130398 313.6622906292439 229.25305568130398 314.08782254413757 Q 229.25305568130398 314.5133544590312 229.25305568130398 314.9388863739248 Q 229.25305568130398 315.3644182888184 229.25305568130398 315.789950203712 Q 229.25305568130398 316.2154821186056 229.25305568130398 316.64101403349923 Q 229.25305568130398 317.06654594839284 229.25305568130398 317.49207786328645 Q 229.25305568130398 317.9176097781801 229.25305568130398 318.76867360796734 L 229.25305568130398 319.62073743775454" stroke-linecap="round" />
</g>
<g transform="matrix(1 0 0 1 140.32 311.11)" id="z__vCzU-k1Pu789_nmEYG"  >
<path style="stroke: rgb(0,0,0); stroke-width: 1; stroke-dasharray: none; stroke-linecap: round; stroke-dashoffset: 0; stroke-linejoin: round; stroke-miterlimit: 10; fill: none; fill-rule: nonzero; opacity: 1;" vector-effect="non-scaling-stroke"  transform=" translate(-140.32, -311.11)" d="M 146.70086419194232 298.34314169307373 Q 146.6998641919423 298.34314169307373 146.2743322770487 298.34314169307373 Q 145.8488003621551 298.34314169307373 145.42326844726148 298.34314169307373 Q 144.99773653236787 298.34314169307373 144.57220461747426 298.34314169307373 Q 144.14667270258064 298.34314169307373 143.721140787687 298.34314169307373 Q 143.29560887279337 298.34314169307373 143.29560887279337 297.9176097781801 Q 143.29560887279337 297.49207786328645 142.87007695789976 297.49207786328645 Q 142.44454504300614 297.49207786328645 142.01901312811253 297.49207786328645 Q 141.59348121321892 297.49207786328645 141.1679492983253 297.49207786328645 Q 140.7424173834317 297.49207786328645 140.3168854685381 297.49207786328645 Q 139.89135355364448 297.49207786328645 139.46582163875084 297.49207786328645 Q 139.0402897238572 297.49207786328645 138.6147578089636 297.49207786328645 Q 138.18922589406998 297.49207786328645 137.76369397917637 297.49207786328645 Q 137.33816206428276 297.49207786328645 136.91263014938914 297.49207786328645 Q 136.48709823449553 297.49207786328645 136.06156631960192 297.49207786328645 Q 135.6360344047083 297.49207786328645 135.21050248981467 297.49207786328645 Q 134.78497057492103 297.49207786328645 134.35943866002742 297.49207786328645 Q 133.9339067451338 297.49207786328645 133.5083748302402 297.49207786328645 Q 133.0828429153466 297.49207786328645 133.0828429153466 297.9176097781801 Q 133.0828429153466 298.34314169307373 133.0828429153466 298.76867360796734 Q 133.0828429153466 299.19420552286095 133.0828429153466 299.61973743775457 Q 133.0828429153466 300.0452693526482 133.0828429153466 300.4708012675418 Q 133.0828429153466 300.8963331824354 133.0828429153466 301.321865097329 Q 133.0828429153466 301.7473970122227 133.0828429153466 302.1729289271163 Q 133.0828429153466 302.5984608420099 133.0828429153466 303.0239927569035 Q 133.0828429153466 303.4495246717971 133.0828429153466 303.87505658669073 Q 133.0828429153466 304.30058850158434 133.0828429153466 304.72612041647795 Q 133.0828429153466 305.15165233137157 133.5083748302402 305.15165233137157 Q 133.9339067451338 305.15165233137157 133.9339067451338 305.57718424626523 Q 133.9339067451338 306.00271616115884 134.35943866002742 306.00271616115884 Q 134.78497057492103 306.00271616115884 134.78497057492103 306.42824807605245 Q 134.78497057492103 306.85377999094607 135.21050248981467 307.2793119058397 Q 135.6360344047083 307.7048438207333 136.06156631960192 308.1303757356269 Q 136.48709823449553 308.5559076505205 136.48709823449553 308.9814395654141 Q 136.48709823449553 309.40697148030773 136.91263014938914 309.40697148030773 Q 137.33816206428276 309.40697148030773 137.76369397917637 309.40697148030773 Q 138.18922589406998 309.40697148030773 138.18922589406998 309.83250339520134 Q 138.18922589406998 310.258035310095 138.6147578089636 310.258035310095 Q 139.0402897238572 310.258035310095 139.46582163875084 310.258035310095 Q 139.89135355364448 310.258035310095 139.89135355364448 310.6835672249886 Q 139.89135355364448 311.10909913988223 140.3168854685381 311.10909913988223 Q 140.7424173834317 311.10909913988223 141.1679492983253 311.10909913988223 Q 141.59348121321892 311.10909913988223 141.59348121321892 311.53463105477584 Q 141.59348121321892 311.96016296966945 142.01901312811253 311.96016296966945 Q 142.44454504300614 311.96016296966945 142.44454504300614 312.38569488456307 Q 142.44454504300614 312.8112267994567 142.87007695789976 312.8112267994567 Q 143.29560887279337 312.8112267994567 143.721140787687 312.8112267994567 Q 144.14667270258064 312.8112267994567 144.57220461747426 313.2367587143503 Q 144.99773653236787 313.6622906292439 145.42326844726148 313.6622906292439 Q 145.8488003621551 313.6622906292439 145.8488003621551 314.08782254413757 Q 145.8488003621551 314.5133544590312 146.2743322770487 314.5133544590312 Q 146.6998641919423 314.5133544590312 146.6998641919423 314.9388863739248 Q 146.6998641919423 315.3644182888184 147.12539610683595 315.3644182888184 Q 147.5509280217296 315.3644182888184 147.5509280217296 315.789950203712 Q 147.5509280217296 316.2154821186056 147.5509280217296 316.64101403349923 Q 147.5509280217296 317.06654594839284 147.5509280217296 317.49207786328645 Q 147.5509280217296 317.9176097781801 147.9764599366232 317.9176097781801 Q 148.4019918515168 317.9176097781801 148.4019918515168 318.34314169307373 Q 148.4019918515168 318.76867360796734 148.4019918515168 319.19420552286095 Q 148.4019918515168 319.61973743775457 148.4019918515168 320.0452693526482 Q 148.4019918515168 320.4708012675418 148.4019918515168 320.8963331824354 Q 148.4019918515168 321.321865097329 147.9764599366232 321.321865097329 Q 147.5509280217296 321.321865097329 147.5509280217296 321.7473970122227 Q 147.5509280217296 322.1729289271163 147.12539610683595 322.1729289271163 Q 146.6998641919423 322.1729289271163 146.6998641919423 322.5984608420099 Q 146.6998641919423 323.0239927569035 146.2743322770487 323.0239927569035 Q 145.8488003621551 323.0239927569035 145.42326844726148 323.0239927569035 Q 144.99773653236787 323.0239927569035 144.57220461747426 323.0239927569035 Q 144.14667270258064 323.0239927569035 143.721140787687 323.0239927569035 Q 143.29560887279337 323.0239927569035 142.87007695789976 323.0239927569035 Q 142.44454504300614 323.0239927569035 142.44454504300614 323.4495246717971 Q 142.44454504300614 323.87505658669073 142.01901312811253 323.87505658669073 Q 141.59348121321892 323.87505658669073 141.1679492983253 323.87505658669073 Q 140.7424173834317 323.87505658669073 140.3168854685381 323.87505658669073 Q 139.89135355364448 323.87505658669073 139.89135355364448 324.30058850158434 Q 139.89135355364448 324.72612041647795 139.46582163875084 324.72612041647795 Q 139.0402897238572 324.72612041647795 138.6147578089636 324.72612041647795 Q 138.18922589406998 324.72612041647795 137.76369397917637 324.72612041647795 Q 137.33816206428276 324.72612041647795 136.91263014938914 324.72612041647795 Q 136.48709823449553 324.72612041647795 136.48709823449553 324.30058850158434 Q 136.48709823449553 323.87505658669073 136.06156631960192 323.87505658669073 Q 135.6360344047083 323.87505658669073 135.6360344047083 323.4495246717971 Q 135.6360344047083 323.0239927569035 135.21050248981467 323.0239927569035 Q 134.78497057492103 323.0239927569035 134.35943866002742 323.0239927569035 Q 133.9339067451338 323.0239927569035 133.5083748302402 323.0239927569035 Q 133.0828429153466 323.0239927569035 132.65731100045298 322.5984608420099 L 132.23077908555936 322.1719289271163" stroke-linecap="round" />
</g>
<g transform="matrix(1 0 0 1 52.66 310.68)" id="qt5MdigpRbdSoyzK_fzTN"  >
<path style="stroke: rgb(0,0,0); stroke-width: 1; stroke-dasharray: none; stroke-linecap: round; stroke-dashoffset: 0; stroke-linejoin: round; stroke-miterlimit: 10; fill: none; fill-rule: nonzero; opacity: 1;" vector-effect="non-scaling-stroke"  transform=" translate(-52.66, -310.68)" d="M 57.338162064282756 324.72712041647793 Q 57.338162064282756 324.72612041647795 57.338162064282756 324.30058850158434 Q 57.338162064282756 323.87505658669073 57.338162064282756 323.4495246717971 Q 57.338162064282756 323.0239927569035 56.912630149389145 323.0239927569035 Q 56.487098234495534 323.0239927569035 56.487098234495534 322.5984608420099 Q 56.487098234495534 322.1729289271163 56.487098234495534 321.7473970122227 Q 56.487098234495534 321.321865097329 56.487098234495534 320.8963331824354 Q 56.487098234495534 320.4708012675418 56.06156631960192 320.4708012675418 Q 55.63603440470831 320.4708012675418 55.63603440470831 320.0452693526482 Q 55.63603440470831 319.61973743775457 55.63603440470831 319.19420552286095 Q 55.63603440470831 318.76867360796734 55.2105024898147 318.76867360796734 Q 54.78497057492109 318.76867360796734 54.78497057492109 318.34314169307373 Q 54.78497057492109 317.9176097781801 54.78497057492109 317.49207786328645 Q 54.78497057492109 317.06654594839284 54.35943866002745 317.06654594839284 Q 53.93390674513381 317.06654594839284 53.93390674513381 316.64101403349923 Q 53.93390674513381 316.2154821186056 53.93390674513381 315.789950203712 Q 53.93390674513381 315.3644182888184 53.93390674513381 314.9388863739248 Q 53.93390674513381 314.5133544590312 53.5083748302402 314.5133544590312 Q 53.08284291534659 314.5133544590312 53.08284291534659 314.08782254413757 Q 53.08284291534659 313.6622906292439 53.08284291534659 313.2367587143503 Q 53.08284291534659 312.8112267994567 53.08284291534659 312.38569488456307 Q 53.08284291534659 311.96016296966945 53.08284291534659 311.53463105477584 Q 53.08284291534659 311.10909913988223 52.65731100045298 310.6835672249886 Q 52.23177908555937 310.258035310095 52.23177908555937 309.83250339520134 Q 52.23177908555937 309.40697148030773 52.23177908555937 308.9814395654141 Q 52.23177908555937 308.5559076505205 51.806247170665756 308.5559076505205 Q 51.380715255772145 308.5559076505205 51.380715255772145 308.1303757356269 Q 51.380715255772145 307.7048438207333 51.380715255772145 307.2793119058397 Q 51.380715255772145 306.85377999094607 50.955183340878506 306.85377999094607 Q 50.529651425984866 306.85377999094607 50.529651425984866 306.42824807605245 Q 50.529651425984866 306.00271616115884 50.529651425984866 305.57718424626523 Q 50.529651425984866 305.15165233137157 50.529651425984866 304.72612041647795 Q 50.529651425984866 304.30058850158434 50.529651425984866 303.87505658669073 Q 50.529651425984866 303.4495246717971 50.104119511091255 303.4495246717971 Q 49.678587596197644 303.4495246717971 49.678587596197644 303.0239927569035 Q 49.678587596197644 302.5984608420099 49.678587596197644 302.1729289271163 Q 49.678587596197644 301.7473970122227 49.678587596197644 301.321865097329 Q 49.678587596197644 300.8963331824354 49.25305568130403 300.4708012675418 Q 48.82752376641042 300.0452693526482 48.82752376641042 299.61973743775457 Q 48.82752376641042 299.19420552286095 48.82752376641042 298.76867360796734 Q 48.82752376641042 298.34314169307373 48.82752376641042 297.9176097781801 Q 48.82752376641042 297.49207786328645 48.40199185151681 297.06654594839284 L 47.9754599366232 296.64001403349926" stroke-linecap="round" />
</g>
<g transform="matrix(1 0 0 1 42.87 310.26)" id="L999J5tX9Y5N4BSUGK2bX"  >
<path style="stroke: rgb(0,0,0); stroke-width: 1; stroke-dasharray: none; stroke-linecap: round; stroke-dashoffset: 0; stroke-linejoin: round; stroke-miterlimit: 10; fill: none; fill-rule: nonzero; opacity: 1;" vector-effect="non-scaling-stroke"  transform=" translate(-42.87, -310.26)" d="M 47.9764599366232 296.64001403349926 Q 47.9764599366232 296.64101403349923 47.9764599366232 297.06654594839284 Q 47.9764599366232 297.49207786328645 47.9764599366232 297.9176097781801 Q 47.9764599366232 298.34314169307373 47.9764599366232 298.76867360796734 Q 47.9764599366232 299.19420552286095 47.9764599366232 299.61973743775457 Q 47.9764599366232 300.0452693526482 47.55092802172959 300.0452693526482 Q 47.12539610683598 300.0452693526482 47.12539610683598 300.4708012675418 Q 47.12539610683598 300.8963331824354 47.12539610683598 301.321865097329 Q 47.12539610683598 301.7473970122227 47.12539610683598 302.1729289271163 Q 47.12539610683598 302.5984608420099 47.12539610683598 303.0239927569035 Q 47.12539610683598 303.4495246717971 46.69986419194234 303.4495246717971 Q 46.2743322770487 303.4495246717971 46.2743322770487 303.87505658669073 Q 46.2743322770487 304.30058850158434 46.2743322770487 304.72612041647795 Q 46.2743322770487 305.15165233137157 45.84880036215509 305.15165233137157 Q 45.42326844726148 305.15165233137157 45.42326844726148 305.57718424626523 Q 45.42326844726148 306.00271616115884 45.42326844726148 306.42824807605245 Q 45.42326844726148 306.85377999094607 44.99773653236787 306.85377999094607 Q 44.572204617474256 306.85377999094607 44.572204617474256 307.2793119058397 Q 44.572204617474256 307.7048438207333 44.572204617474256 308.1303757356269 Q 44.572204617474256 308.5559076505205 44.572204617474256 308.9814395654141 Q 44.572204617474256 309.40697148030773 44.146672702580645 309.40697148030773 Q 43.721140787687034 309.40697148030773 43.721140787687034 309.83250339520134 Q 43.721140787687034 310.258035310095 43.29560887279342 310.258035310095 Q 42.87007695789981 310.258035310095 42.87007695789981 310.6835672249886 Q 42.87007695789981 311.10909913988223 42.87007695789981 311.53463105477584 Q 42.87007695789981 311.96016296966945 42.44454504300617 312.38569488456307 Q 42.01901312811253 312.8112267994567 42.01901312811253 313.2367587143503 Q 42.01901312811253 313.6622906292439 42.01901312811253 314.08782254413757 Q 42.01901312811253 314.5133544590312 42.01901312811253 314.9388863739248 Q 42.01901312811253 315.3644182888184 41.59348121321892 315.3644182888184 Q 41.16794929832531 315.3644182888184 41.16794929832531 315.789950203712 Q 41.16794929832531 316.2154821186056 41.16794929832531 316.64101403349923 Q 41.16794929832531 317.06654594839284 41.16794929832531 317.49207786328645 Q 41.16794929832531 317.9176097781801 40.7424173834317 317.9176097781801 Q 40.31688546853809 317.9176097781801 40.31688546853809 318.34314169307373 Q 40.31688546853809 318.76867360796734 40.31688546853809 319.19420552286095 Q 40.31688546853809 319.61973743775457 39.89135355364448 320.0452693526482 Q 39.46582163875087 320.4708012675418 39.46582163875087 320.8963331824354 Q 39.46582163875087 321.321865097329 39.46582163875087 321.7473970122227 Q 39.46582163875087 322.1729289271163 39.040289723857256 322.1729289271163 Q 38.614757808963645 322.1729289271163 38.614757808963645 322.5984608420099 Q 38.614757808963645 323.0239927569035 38.189225894070006 323.4495246717971 L 37.76269397917637 323.8760565866907" stroke-linecap="round" />
</g>
<g transform="matrix(1 0 0 1 47.13 316.22)" id="mPm4bPOgErpHi65-4Uw3f"  >
<path style="stroke: rgb(0,0,0); stroke-width: 1; stroke-dasharray: none; stroke-linecap: round; stroke-dashoffset: 0; stroke-linejoin: round; stroke-miterlimit: 10; fill: none; fill-rule: nonzero; opacity: 1;" vector-effect="non-scaling-stroke"  transform=" translate(-47.13, -316.22)" d="M 41.166949298325314 315.3644182888184 Q 41.16794929832531 315.3644182888184 41.59348121321892 315.3644182888184 Q 42.01901312811253 315.3644182888184 42.44454504300617 315.3644182888184 Q 42.87007695789981 315.3644182888184 43.29560887279342 315.3644182888184 Q 43.721140787687034 315.3644182888184 44.146672702580645 315.3644182888184 Q 44.572204617474256 315.3644182888184 44.99773653236787 315.3644182888184 Q 45.42326844726148 315.3644182888184 45.84880036215509 315.3644182888184 Q 46.2743322770487 315.3644182888184 46.2743322770487 315.789950203712 Q 46.2743322770487 316.2154821186056 46.69986419194234 316.2154821186056 Q 47.12539610683598 316.2154821186056 47.55092802172959 316.2154821186056 Q 47.9764599366232 316.2154821186056 47.9764599366232 316.64101403349923 Q 47.9764599366232 317.06654594839284 48.40199185151681 317.06654594839284 Q 48.82752376641042 317.06654594839284 49.25305568130403 317.06654594839284 Q 49.678587596197644 317.06654594839284 50.104119511091255 317.06654594839284 Q 50.529651425984866 317.06654594839284 50.955183340878506 317.06654594839284 Q 51.380715255772145 317.06654594839284 51.806247170665756 317.06654594839284 Q 52.23177908555937 317.06654594839284 52.65731100045298 316.64101403349923 L 53.08384291534659 316.21448211860564" stroke-linecap="round" />
</g>
<g transform="matrix(1 0 0 1 398.61 300.9)" id="CHCDyE-M8Qq34CyXlBC2F"  >
<path style="stroke: rgb(0,0,0); stroke-width: 1; stroke-dasharray: none; stroke-linecap: round; stroke-dashoffset: 0; stroke-linejoin: round; stroke-miterlimit: 10; fill: none; fill-rule: nonzero; opacity: 1;" vector-effect="non-scaling-stroke"  transform=" translate(-398.61, -300.9)" d="M 398.61375780896356 300.8963331824354 L 398.6157578089635 300.8963331824354" stroke-linecap="round" />
</g>
<g transform="matrix(1 0 0 1 238.19 308.13)" id="r3bKMbfkrFfyjrOQ-iBb3"  >
<path style="stroke: rgb(0,0,0); stroke-width: 1; stroke-dasharray: none; stroke-linecap: round; stroke-dashoffset: 0; stroke-linejoin: round; stroke-miterlimit: 10; fill: none; fill-rule: nonzero; opacity: 1;" vector-effect="non-scaling-stroke"  transform=" translate(-238.19, -308.13)" d="M 230.1031195110913 320.4708012675418 Q 230.1041195110913 320.4708012675418 230.52965142598492 320.4708012675418 Q 230.95518334087853 320.4708012675418 231.38071525577215 320.4708012675418 Q 231.80624717066576 320.4708012675418 232.23177908555937 320.4708012675418 Q 232.65731100045298 320.4708012675418 233.0828429153466 320.4708012675418 Q 233.5083748302402 320.4708012675418 233.9339067451338 320.4708012675418 Q 234.35943866002742 320.4708012675418 234.78497057492103 320.4708012675418 Q 235.21050248981464 320.4708012675418 235.63603440470825 320.4708012675418 Q 236.06156631960187 320.4708012675418 236.48709823449548 320.4708012675418 Q 236.9126301493891 320.4708012675418 237.3381620642827 320.4708012675418 Q 237.7636939791763 320.4708012675418 238.18922589406998 320.4708012675418 Q 238.61475780896365 320.4708012675418 239.04028972385726 320.4708012675418 Q 239.46582163875087 320.4708012675418 239.46582163875087 320.0452693526482 Q 239.46582163875087 319.61973743775457 239.89135355364448 319.61973743775457 Q 240.3168854685381 319.61973743775457 240.3168854685381 319.19420552286095 Q 240.3168854685381 318.76867360796734 240.7424173834317 318.76867360796734 Q 241.1679492983253 318.76867360796734 241.59348121321892 318.34314169307373 Q 242.01901312811253 317.9176097781801 242.44454504300614 317.9176097781801 Q 242.87007695789976 317.9176097781801 242.87007695789976 317.49207786328645 Q 242.87007695789976 317.06654594839284 243.29560887279337 317.06654594839284 Q 243.72114078768698 317.06654594839284 243.72114078768698 316.64101403349923 Q 243.72114078768698 316.2154821186056 244.1466727025806 316.2154821186056 Q 244.5722046174742 316.2154821186056 244.5722046174742 315.789950203712 Q 244.5722046174742 315.3644182888184 244.9977365323678 315.3644182888184 Q 245.42326844726142 315.3644182888184 245.42326844726142 314.9388863739248 Q 245.42326844726142 314.5133544590312 245.8488003621551 314.5133544590312 Q 246.27433227704876 314.5133544590312 246.27433227704876 314.08782254413757 Q 246.27433227704876 313.6622906292439 246.27433227704876 313.2367587143503 Q 246.27433227704876 312.8112267994567 246.27433227704876 312.38569488456307 Q 246.27433227704876 311.96016296966945 246.69986419194237 311.96016296966945 Q 247.12539610683598 311.96016296966945 247.12539610683598 311.53463105477584 Q 247.12539610683598 311.10909913988223 247.12539610683598 310.6835672249886 Q 247.12539610683598 310.258035310095 247.12539610683598 309.83250339520134 Q 247.12539610683598 309.40697148030773 247.12539610683598 308.9814395654141 Q 247.12539610683598 308.5559076505205 247.12539610683598 308.1303757356269 Q 247.12539610683598 307.7048438207333 247.12539610683598 307.2793119058397 Q 247.12539610683598 306.85377999094607 247.12539610683598 306.42824807605245 Q 247.12539610683598 306.00271616115884 247.12539610683598 305.57718424626523 Q 247.12539610683598 305.15165233137157 247.12539610683598 304.72612041647795 Q 247.12539610683598 304.30058850158434 247.12539610683598 303.87505658669073 Q 247.12539610683598 303.4495246717971 246.69986419194237 303.4495246717971 Q 246.27433227704876 303.4495246717971 246.27433227704876 303.0239927569035 Q 246.27433227704876 302.5984608420099 246.27433227704876 302.1729289271163 Q 246.27433227704876 301.7473970122227 245.8488003621551 301.7473970122227 Q 245.42326844726142 301.7473970122227 245.42326844726142 301.321865097329 Q 245.42326844726142 300.8963331824354 244.9977365323678 300.8963331824354 Q 244.5722046174742 300.8963331824354 244.5722046174742 300.4708012675418 Q 244.5722046174742 300.0452693526482 244.5722046174742 299.61973743775457 Q 244.5722046174742 299.19420552286095 244.1466727025806 299.19420552286095 Q 243.72114078768698 299.19420552286095 243.72114078768698 298.76867360796734 Q 243.72114078768698 298.34314169307373 243.29560887279337 298.34314169307373 Q 242.87007695789976 298.34314169307373 242.87007695789976 297.9176097781801 Q 242.87007695789976 297.49207786328645 242.44454504300614 297.49207786328645 Q 242.01901312811253 297.49207786328645 242.01901312811253 297.06654594839284 Q 242.01901312811253 296.64101403349923 241.59348121321892 296.64101403349923 Q 241.1679492983253 296.64101403349923 240.7424173834317 296.64101403349923 Q 240.3168854685381 296.64101403349923 239.89135355364448 296.64101403349923 Q 239.46582163875087 296.64101403349923 239.04028972385726 296.64101403349923 Q 238.61475780896365 296.64101403349923 238.18922589406998 296.64101403349923 Q 237.7636939791763 296.64101403349923 237.7636939791763 296.2154821186056 Q 237.7636939791763 295.789950203712 237.3381620642827 295.789950203712 Q 236.9126301493891 295.789950203712 236.48709823449548 295.789950203712 Q 236.06156631960187 295.789950203712 235.63603440470825 295.789950203712 Q 235.21050248981464 295.789950203712 234.78497057492103 295.789950203712 Q 234.35943866002742 295.789950203712 233.9339067451338 295.789950203712 Q 233.5083748302402 295.789950203712 233.0828429153466 295.789950203712 Q 232.65731100045298 295.789950203712 232.23177908555937 295.789950203712 Q 231.80624717066576 295.789950203712 231.38071525577215 295.789950203712 Q 230.95518334087853 295.789950203712 230.10411951109126 295.789950203712 L 229.25205568130397 295.789950203712" stroke-linecap="round" />
</g>
<g transform="matrix(1 0 0 1 230.1 308.13)" id="EBvJDOrJub-hqPaR9ZZUK"  >
<path style="stroke: rgb(0,0,0); stroke-width: 1; stroke-dasharray: none; stroke-linecap: round; stroke-dashoffset: 0; stroke-linejoin: round; stroke-miterlimit: 10; fill: none; fill-rule: nonzero; opacity: 1;" vector-effect="non-scaling-stroke"  transform=" translate(-230.1, -308.13)" d="M 230.1041195110913 295.78895020371203 Q 230.1041195110913 295.789950203712 230.1041195110913 296.2154821186056 Q 230.1041195110913 296.64101403349923 230.1041195110913 297.06654594839284 Q 230.1041195110913 297.49207786328645 230.1041195110913 297.9176097781801 Q 230.1041195110913 298.34314169307373 230.1041195110913 298.76867360796734 Q 230.1041195110913 299.19420552286095 230.1041195110913 299.61973743775457 Q 230.1041195110913 300.0452693526482 230.1041195110913 300.4708012675418 Q 230.1041195110913 300.8963331824354 230.1041195110913 301.321865097329 Q 230.1041195110913 301.7473970122227 230.1041195110913 302.1729289271163 Q 230.1041195110913 302.5984608420099 230.1041195110913 303.0239927569035 Q 230.1041195110913 303.4495246717971 230.1041195110913 303.87505658669073 Q 230.1041195110913 304.30058850158434 230.1041195110913 304.72612041647795 Q 230.1041195110913 305.15165233137157 230.1041195110913 305.57718424626523 Q 230.1041195110913 306.00271616115884 230.1041195110913 306.42824807605245 Q 230.1041195110913 306.85377999094607 230.1041195110913 307.2793119058397 Q 230.1041195110913 307.7048438207333 230.1041195110913 308.1303757356269 Q 230.1041195110913 308.5559076505205 230.1041195110913 308.9814395654141 Q 230.1041195110913 309.40697148030773 230.1041195110913 309.83250339520134 Q 230.1041195110913 310.258035310095 230.1041195110913 310.6835672249886 Q 230.1041195110913 311.10909913988223 230.1041195110913 311.53463105477584 Q 230.1041195110913 311.96016296966945 230.1041195110913 312.38569488456307 Q 230.1041195110913 312.8112267994567 230.1041195110913 313.2367587143503 Q 230.1041195110913 313.6622906292439 230.1041195110913 314.08782254413757 Q 230.1041195110913 314.5133544590312 230.1041195110913 314.9388863739248 Q 230.1041195110913 315.3644182888184 230.1041195110913 315.789950203712 Q 230.1041195110913 316.2154821186056 230.1041195110913 316.64101403349923 Q 230.1041195110913 317.06654594839284 230.1041195110913 317.49207786328645 Q 230.1041195110913 317.9176097781801 230.1041195110913 318.34314169307373 Q 230.1041195110913 318.76867360796734 230.1041195110913 319.61973743775457 L 230.1041195110913 320.47180126754176" stroke-linecap="round" />
</g>
<g transform="matrix(1 0 0 1 356.06 292.39)" id="zStl_cGrLwZSX8tf8kycv"  >
<path style="stroke: rgb(0,0,0); stroke-width: 1; stroke-dasharray: none; stroke-linecap: round; stroke-dashoffset: 0; stroke-linejoin: round; stroke-miterlimit: 10; fill: none; fill-rule: nonzero; opacity: 1;" vector-effect="non-scaling-stroke"  transform=" translate(-356.06, -292.39)" d="M 356.0605663196019 292.38569488456307 L 356.06256631960184 292.38569488456307" stroke-linecap="round" />
</g>
<g transform="matrix(1 0 0 1 135.21 214.09)" id="pYrtt2ycSaUjvw9beeOmF"  >
<path style="stroke: rgb(0,0,0); stroke-width: 1; stroke-dasharray: none; stroke-linecap: round; stroke-dashoffset: 0; stroke-linejoin: round; stroke-miterlimit: 10; fill: none; fill-rule: nonzero; opacity: 1;" vector-effect="non-scaling-stroke"  transform=" translate(-135.21, -214.09)" d="M 131.37971525577214 202.1729289271163 Q 131.38071525577215 202.1729289271163 131.38071525577215 202.5984608420099 Q 131.38071525577215 203.0239927569035 131.80624717066576 203.0239927569035 Q 132.23177908555937 203.0239927569035 132.23177908555937 203.44952467179712 Q 132.23177908555937 203.87505658669073 132.23177908555937 204.30058850158434 Q 132.23177908555937 204.72612041647795 132.65731100045298 204.72612041647795 Q 133.0828429153466 204.72612041647795 133.0828429153466 205.15165233137157 Q 133.0828429153466 205.57718424626518 133.0828429153466 206.00271616115882 Q 133.0828429153466 206.42824807605245 133.5083748302402 206.42824807605245 Q 133.9339067451338 206.42824807605245 133.9339067451338 206.85377999094607 Q 133.9339067451338 207.27931190583968 133.9339067451338 207.7048438207333 Q 133.9339067451338 208.1303757356269 133.9339067451338 208.5559076505205 Q 133.9339067451338 208.98143956541412 134.35943866002742 208.98143956541412 Q 134.78497057492103 208.98143956541412 134.78497057492103 209.40697148030776 Q 134.78497057492103 209.8325033952014 134.78497057492103 210.258035310095 Q 134.78497057492103 210.68356722498862 134.78497057492103 211.10909913988223 Q 134.78497057492103 211.53463105477584 134.78497057492103 211.96016296966945 Q 134.78497057492103 212.38569488456307 134.78497057492103 212.81122679945668 Q 134.78497057492103 213.2367587143503 135.21050248981467 213.2367587143503 Q 135.6360344047083 213.2367587143503 135.6360344047083 213.66229062924393 Q 135.6360344047083 214.08782254413757 135.6360344047083 214.51335445903118 Q 135.6360344047083 214.9388863739248 136.06156631960192 214.9388863739248 Q 136.48709823449553 214.9388863739248 136.48709823449553 215.3644182888184 Q 136.48709823449553 215.789950203712 136.91263014938914 215.789950203712 Q 137.33816206428276 215.789950203712 137.33816206428276 216.21548211860562 Q 137.33816206428276 216.64101403349923 137.33816206428276 217.06654594839284 Q 137.33816206428276 217.49207786328645 137.76369397917637 217.9176097781801 Q 138.18922589406998 218.34314169307373 138.18922589406998 218.76867360796734 Q 138.18922589406998 219.19420552286095 138.18922589406998 219.61973743775457 Q 138.18922589406998 220.04526935264818 138.18922589406998 220.4708012675418 Q 138.18922589406998 220.8963331824354 138.6147578089636 220.8963331824354 Q 139.0402897238572 220.8963331824354 139.0402897238572 221.32186509732904 Q 139.0402897238572 221.74739701222268 139.0402897238572 222.1729289271163 Q 139.0402897238572 222.5984608420099 139.0402897238572 223.0239927569035 Q 139.0402897238572 223.44952467179712 139.0402897238572 223.87505658669073 Q 139.0402897238572 224.30058850158434 139.0402897238572 225.1516523313716 L 139.0402897238572 226.00371616115885" stroke-linecap="round" />
</g>
<g transform="matrix(1 0 0 1 143.3 211.96)" id="I-zcwSPKbrd8zlJe6fLl9"  >
<path style="stroke: rgb(0,0,0); stroke-width: 1; stroke-dasharray: none; stroke-linecap: round; stroke-dashoffset: 0; stroke-linejoin: round; stroke-miterlimit: 10; fill: none; fill-rule: nonzero; opacity: 1;" vector-effect="non-scaling-stroke"  transform=" translate(-143.3, -211.96)" d="M 139.0402897238572 224.30158850158435 Q 139.0402897238572 224.30058850158434 139.0402897238572 223.87505658669073 Q 139.0402897238572 223.44952467179712 139.0402897238572 223.0239927569035 Q 139.0402897238572 222.5984608420099 139.0402897238572 222.1729289271163 Q 139.0402897238572 221.74739701222268 139.46582163875084 221.32186509732904 Q 139.89135355364448 220.8963331824354 139.89135355364448 220.4708012675418 Q 139.89135355364448 220.04526935264818 140.3168854685381 220.04526935264818 Q 140.7424173834317 220.04526935264818 140.7424173834317 219.61973743775457 Q 140.7424173834317 219.19420552286095 140.7424173834317 218.76867360796734 Q 140.7424173834317 218.34314169307373 140.7424173834317 217.9176097781801 Q 140.7424173834317 217.49207786328645 141.1679492983253 217.49207786328645 Q 141.59348121321892 217.49207786328645 141.59348121321892 217.06654594839284 Q 141.59348121321892 216.64101403349923 141.59348121321892 216.21548211860562 Q 141.59348121321892 215.789950203712 141.59348121321892 215.3644182888184 Q 141.59348121321892 214.9388863739248 142.01901312811253 214.9388863739248 Q 142.44454504300614 214.9388863739248 142.44454504300614 214.51335445903118 Q 142.44454504300614 214.08782254413757 142.44454504300614 213.66229062924393 Q 142.44454504300614 213.2367587143503 142.44454504300614 212.81122679945668 Q 142.44454504300614 212.38569488456307 142.87007695789976 212.38569488456307 Q 143.29560887279337 212.38569488456307 143.29560887279337 211.96016296966945 Q 143.29560887279337 211.53463105477584 143.29560887279337 211.10909913988223 Q 143.29560887279337 210.68356722498862 143.721140787687 210.68356722498862 Q 144.14667270258064 210.68356722498862 144.14667270258064 210.258035310095 Q 144.14667270258064 209.8325033952014 144.14667270258064 209.40697148030776 Q 144.14667270258064 208.98143956541412 144.57220461747426 208.98143956541412 Q 144.99773653236787 208.98143956541412 144.99773653236787 208.5559076505205 Q 144.99773653236787 208.1303757356269 144.99773653236787 207.7048438207333 Q 144.99773653236787 207.27931190583968 144.99773653236787 206.85377999094607 Q 144.99773653236787 206.42824807605245 145.42326844726148 206.42824807605245 Q 145.8488003621551 206.42824807605245 145.8488003621551 206.00271616115882 Q 145.8488003621551 205.57718424626518 145.8488003621551 205.15165233137157 Q 145.8488003621551 204.72612041647795 145.8488003621551 204.30058850158434 Q 145.8488003621551 203.87505658669073 146.2743322770487 203.87505658669073 Q 146.6998641919423 203.87505658669073 146.6998641919423 203.44952467179712 Q 146.6998641919423 203.0239927569035 146.6998641919423 202.5984608420099 Q 146.6998641919423 202.1729289271163 146.6998641919423 201.74739701222265 Q 146.6998641919423 201.321865097329 146.6998641919423 200.8963331824354 Q 146.6998641919423 200.4708012675418 147.12539610683595 200.04526935264818 L 147.5519280217296 199.61873743775456" stroke-linecap="round" />
</g>
<g transform="matrix(1 0 0 1 150.96 212.39)" id="YtlROc0n0_dCONKvPo0xI"  >
<path style="stroke: rgb(0,0,0); stroke-width: 1; stroke-dasharray: none; stroke-linecap: round; stroke-dashoffset: 0; stroke-linejoin: round; stroke-miterlimit: 10; fill: none; fill-rule: nonzero; opacity: 1;" vector-effect="non-scaling-stroke"  transform=" translate(-150.96, -212.39)" d="M 147.5509280217296 199.61873743775456 Q 147.5509280217296 199.61973743775457 147.5509280217296 200.04526935264818 Q 147.5509280217296 200.4708012675418 147.5509280217296 200.8963331824354 Q 147.5509280217296 201.321865097329 147.5509280217296 201.74739701222265 Q 147.5509280217296 202.1729289271163 147.9764599366232 202.1729289271163 Q 148.4019918515168 202.1729289271163 148.4019918515168 202.5984608420099 Q 148.4019918515168 203.0239927569035 148.4019918515168 203.44952467179712 Q 148.4019918515168 203.87505658669073 148.82752376641042 203.87505658669073 Q 149.25305568130403 203.87505658669073 149.25305568130403 204.30058850158434 Q 149.25305568130403 204.72612041647795 149.25305568130403 205.15165233137157 Q 149.25305568130403 205.57718424626518 149.25305568130403 206.00271616115882 Q 149.25305568130403 206.42824807605245 149.25305568130403 206.85377999094607 Q 149.25305568130403 207.27931190583968 149.25305568130403 207.7048438207333 Q 149.25305568130403 208.1303757356269 149.25305568130403 208.5559076505205 Q 149.25305568130403 208.98143956541412 149.67858759619764 208.98143956541412 Q 150.10411951109126 208.98143956541412 150.10411951109126 209.40697148030776 Q 150.10411951109126 209.8325033952014 150.10411951109126 210.258035310095 Q 150.10411951109126 210.68356722498862 150.10411951109126 211.10909913988223 Q 150.10411951109126 211.53463105477584 150.52965142598487 211.53463105477584 Q 150.95518334087848 211.53463105477584 150.95518334087848 211.96016296966945 Q 150.95518334087848 212.38569488456307 150.95518334087848 212.81122679945668 Q 150.95518334087848 213.2367587143503 151.38071525577212 213.2367587143503 Q 151.80624717066576 213.2367587143503 151.80624717066576 213.66229062924393 Q 151.80624717066576 214.08782254413757 151.80624717066576 214.51335445903118 Q 151.80624717066576 214.9388863739248 151.80624717066576 215.3644182888184 Q 151.80624717066576 215.789950203712 151.80624717066576 216.21548211860562 Q 151.80624717066576 216.64101403349923 152.23177908555937 216.64101403349923 Q 152.65731100045298 216.64101403349923 152.65731100045298 217.06654594839284 Q 152.65731100045298 217.49207786328645 152.65731100045298 217.9176097781801 Q 152.65731100045298 218.34314169307373 152.65731100045298 218.76867360796734 Q 152.65731100045298 219.19420552286095 152.65731100045298 219.61973743775457 Q 152.65731100045298 220.04526935264818 153.0828429153466 220.04526935264818 Q 153.5083748302402 220.04526935264818 153.5083748302402 220.4708012675418 Q 153.5083748302402 220.8963331824354 153.5083748302402 221.32186509732904 Q 153.5083748302402 221.74739701222268 153.5083748302402 222.1729289271163 Q 153.5083748302402 222.5984608420099 153.5083748302402 223.0239927569035 Q 153.5083748302402 223.44952467179712 153.5083748302402 223.87505658669073 Q 153.5083748302402 224.30058850158434 153.9339067451338 224.72612041647798 L 154.36043866002743 225.15265233137163" stroke-linecap="round" />
</g>
<g transform="matrix(1 0 0 1 158.61 213.24)" id="kFPpnKrMqxGuvvtjTU246"  >
<path style="stroke: rgb(0,0,0); stroke-width: 1; stroke-dasharray: none; stroke-linecap: round; stroke-dashoffset: 0; stroke-linejoin: round; stroke-miterlimit: 10; fill: none; fill-rule: nonzero; opacity: 1;" vector-effect="non-scaling-stroke"  transform=" translate(-158.61, -213.24)" d="M 154.35843866002742 225.15165233137162 Q 154.35943866002742 225.15165233137162 154.35943866002742 224.72612041647798 Q 154.35943866002742 224.30058850158434 154.78497057492103 224.30058850158434 Q 155.21050248981464 224.30058850158434 155.21050248981464 223.87505658669073 Q 155.21050248981464 223.44952467179712 155.21050248981464 223.0239927569035 Q 155.21050248981464 222.5984608420099 155.63603440470828 222.5984608420099 Q 156.06156631960192 222.5984608420099 156.06156631960192 222.1729289271163 Q 156.06156631960192 221.74739701222268 156.06156631960192 221.32186509732904 Q 156.06156631960192 220.8963331824354 156.06156631960192 220.4708012675418 Q 156.06156631960192 220.04526935264818 156.48709823449553 220.04526935264818 Q 156.91263014938914 220.04526935264818 156.91263014938914 219.61973743775457 Q 156.91263014938914 219.19420552286095 156.91263014938914 218.76867360796734 Q 156.91263014938914 218.34314169307373 157.33816206428276 218.34314169307373 Q 157.76369397917637 218.34314169307373 157.76369397917637 217.9176097781801 Q 157.76369397917637 217.49207786328645 157.76369397917637 217.06654594839284 Q 157.76369397917637 216.64101403349923 157.76369397917637 216.21548211860562 Q 157.76369397917637 215.789950203712 158.18922589406998 215.789950203712 Q 158.6147578089636 215.789950203712 158.6147578089636 215.3644182888184 Q 158.6147578089636 214.9388863739248 158.6147578089636 214.51335445903118 Q 158.6147578089636 214.08782254413757 158.6147578089636 213.66229062924393 Q 158.6147578089636 213.2367587143503 159.0402897238572 213.2367587143503 Q 159.4658216387508 213.2367587143503 159.4658216387508 212.81122679945668 Q 159.4658216387508 212.38569488456307 159.4658216387508 211.96016296966945 Q 159.4658216387508 211.53463105477584 159.89135355364445 211.53463105477584 Q 160.3168854685381 211.53463105477584 160.3168854685381 211.10909913988223 Q 160.3168854685381 210.68356722498862 160.3168854685381 210.258035310095 Q 160.3168854685381 209.8325033952014 160.3168854685381 209.40697148030776 Q 160.3168854685381 208.98143956541412 160.7424173834317 208.98143956541412 Q 161.1679492983253 208.98143956541412 161.1679492983253 208.5559076505205 Q 161.1679492983253 208.1303757356269 161.1679492983253 207.7048438207333 Q 161.1679492983253 207.27931190583968 161.1679492983253 206.85377999094607 Q 161.1679492983253 206.42824807605245 161.1679492983253 206.00271616115882 Q 161.1679492983253 205.57718424626518 161.1679492983253 205.15165233137157 Q 161.1679492983253 204.72612041647795 161.59348121321892 204.72612041647795 Q 162.01901312811253 204.72612041647795 162.01901312811253 204.30058850158434 Q 162.01901312811253 203.87505658669073 162.01901312811253 203.44952467179712 Q 162.01901312811253 203.0239927569035 162.44454504300614 203.0239927569035 Q 162.87007695789976 203.0239927569035 162.87007695789976 202.17292892711626 L 162.87007695789976 201.320865097329" stroke-linecap="round" />
</g>
<g transform="matrix(1 0 0 1 450.08 571.15)" id="RXa6zM8dJeNXQvFB1loYx"  >
<path style="stroke: rgb(0,0,0); stroke-width: 1; stroke-dasharray: none; stroke-linecap: round; stroke-dashoffset: 0; stroke-linejoin: round; stroke-miterlimit: 10; fill: none; fill-rule: nonzero; opacity: 1;" vector-effect="non-scaling-stroke"  transform=" translate(-450.08, -571.15)" d="M 450.0759578995027 571.1543684925305 L 450.0779578995027 571.1543684925305" stroke-linecap="round" />
</g>
<g transform="matrix(1 0 0 1 21.14 420.52)" id="GHWUGPpxXXkGwyy3Ci98r"  >
<path style="stroke: rgb(0,0,0); stroke-width: 1; stroke-dasharray: none; stroke-linecap: round; stroke-dashoffset: 0; stroke-linejoin: round; stroke-miterlimit: 10; fill: none; fill-rule: nonzero; opacity: 1;" vector-effect="non-scaling-stroke"  transform=" translate(-21.14, -420.52)" d="M 21.139787686736813 420.51607062019 L 21.141787686736816 420.51607062019" stroke-linecap="round" />
</g>
</svg>