<?xml version="1.0" encoding="UTF-8" standalone="no" ?>
<!DOCTYPE svg PUBLIC "-//W3C//DTD SVG 1.1//EN" "http://www.w3.org/Graphics/SVG/1.1/DTD/svg11.dtd">
<svg xmlns="http://www.w3.org/2000/svg" xmlns:xlink="http://www.w3.org/1999/xlink" version="1.1" width="640" height="640" viewBox="0 0 640 640" xml:space="preserve">
<desc>Created with Fabric.js 4.6.0</desc>
<defs>
</defs>
<g transform="matrix(5.23 0 0 5.23 393.34 415.03)" id="fYv7ppbzVJY66vmJIF_uS"  >
<path style="stroke: rgb(0,0,0); stroke-width: 2; stroke-dasharray: none; stroke-linecap: butt; stroke-dashoffset: 0; stroke-linejoin: miter; stroke-miterlimit: 4; fill: rgb(255,0,0); fill-rule: nonzero; opacity: 1;" vector-effect="non-scaling-stroke"  transform=" translate(0, 0)" d="M 0 -42.55319 C 23.48936 -42.55319 42.55319 -23.48936 42.55319 0 C 42.55319 23.48936 23.48936 42.55319 0 42.55319 C -23.48936 42.55319 -42.55319 23.48936 -42.55319 0 C -42.55319 -23.48936 -23.48936 -42.55319 0 -42.55319 z" stroke-linecap="round" />
</g>
<g transform="matrix(2.33 0 0 2.33 393.34 415.03)" id="QccJ7wh7RaskzJlSxXceO"  >
<path style="stroke: rgb(0,0,0); stroke-width: 2; stroke-dasharray: none; stroke-linecap: butt; stroke-dashoffset: 0; stroke-linejoin: miter; stroke-miterlimit: 4; fill: rgb(14,112,202); fill-rule: nonzero; opacity: 1;" vector-effect="non-scaling-stroke"  transform=" translate(0, 0)" d="M 0 -42.55319 C 23.48936 -42.55319 42.55319 -23.48936 42.55319 0 C 42.55319 23.48936 23.48936 42.55319 0 42.55319 C -23.48936 42.55319 -42.55319 23.48936 -42.55319 0 C -42.55319 -23.48936 -23.48936 -42.55319 0 -42.55319 z" stroke-linecap="round" />
</g>
<g transform="matrix(2.35 2.81 -2.74 2.3 211.64 235.49)" id="hvJKDRZ10BiWpr3r-rVs1"  >
<path style="stroke: rgb(0,0,0); stroke-width: 1; stroke-dasharray: none; stroke-linecap: butt; stroke-dashoffset: 0; stroke-linejoin: miter; stroke-miterlimit: 4; fill: rgb(190,218,190); fill-rule: nonzero; opacity: 1;" vector-effect="non-scaling-stroke"  transform=" translate(0, 0)" d="M 15.51895 32.5 L 54.34895 0 L 15.518950000000004 -32.5 L 15.518950000000004 -11.895 L -13.202519999999996 -11.895 L -54.34895 -12.85304 L -53.62015 10.912279999999999 L -15.280700000000003 11.951999999999998 L 15.518959999999996 11.951999999999998 z" stroke-linecap="round" />
</g>
</svg>